<svg width="76" height="57" viewBox="0 0 76 57" fill="none" xmlns="http://www.w3.org/2000/svg">
<path fill-rule="evenodd" clip-rule="evenodd" d="M70.4 44.9H73.9C74.4 44.9 74.8 45.3 75.1 45.8V53C74.9 54.7 73.4 56.1 71.7 56H21.4C20.8 56.1 20.1 55.5 20.2 54.9C20.2 54.3 20.8 53.8 21.4 53.9H71.6C72.3 54 72.8 53.4 72.8 52.8V47.1H50C50 47.2315 50.0027 47.3658 50.0054 47.5018C50.0194 48.1932 50.0342 48.9315 49.7 49.6C49.2 50.7 48 51.5 46.7 51.5H28.4C27.1 51.6 25.8 50.8 25.3 49.6C24.9658 48.9315 24.9806 48.1932 24.9946 47.5018C24.9973 47.3658 25 47.2315 25 47.1H2.2V52.8C2.2 53.4 2.8 53.9 3.4 53.9H16.4C17.1 53.8 17.7 54.5 17.5 55.2C17.4 55.7 16.9 56 16.4 56H3.2C1.6 56 0.1 54.6 0 53V45.8C0.1 45.3 0.5 44.9 1 44.9H4.5V3.2C4.5 1.5 6 0 7.7 0H34H35.3C35.9 0.2 36.2 0.9 35.9 1.5C35.8 1.9 35.3 2.2 34.8 2.2H7.7C7.1 2.1 6.6 2.7 6.6 3.3V44.9H68.1V3.3C68.2 2.7 67.6 2.2 67 2.2H40.6C40.5258 2.2 40.45 2.20153 40.3735 2.20308C39.8314 2.21403 39.2505 2.22577 38.9 1.7C38.4 1 39 0 39.8 0C48.8 0 57.9 0 67.1 0.1C68.8 0 70.4 1.5 70.4 3.2V44.9ZM46.5 49.3C47 49.4 47.5 49 47.6 48.5C47.7 48 47.7 47.5 47.7 47H27.1C27.1306 47.1833 27.1238 47.3947 27.1167 47.6141C27.1007 48.1127 27.0833 48.6528 27.5 49C27.7505 49.3341 28.2103 49.3194 28.6464 49.3055C28.7324 49.3027 28.8176 49.3 28.9 49.3H46.5Z" fill="white"/>
<path d="M63.5999 30.7C64.2999 30.9 64.8999 30.2 64.8999 29.6C64.8999 21.5 64.8999 13.3 64.8999 5.2C64.8999 4.5 64.3999 4 63.7999 4C46.1999 4 28.4999 4 10.8999 4C10.4999 4 10.0999 4 9.7999 4C9.2999 4.1 8.8999 4.6 8.8999 5.1C8.8999 17 8.8999 28.9 8.8999 40.7C8.8999 41.1 8.9999 41.5 9.2999 41.7C9.6999 42 10.2999 41.9 10.6999 41.9C28.3999 41.9 45.9999 41.9 63.6999 41.9C64.2999 41.9 64.7999 41.4 64.7999 40.8C64.7999 38.6 64.7999 36.5 64.7999 34.3C64.7999 33.7 64.3999 33.2 63.7999 33.1C63.1999 33 62.5999 33.5 62.5999 34.1C62.5999 36 62.5999 37.8 62.5999 39.7C45.3999 39.7 28.1999 39.7 10.8999 39.7C10.8999 28.5 10.8999 17.3 10.8999 6C28.0999 6 45.2999 6 62.5999 6V29.2C62.6999 29.9 62.9999 30.6 63.5999 30.7Z" fill="white"/>
<path fill-rule="evenodd" clip-rule="evenodd" d="M45.5002 21.8002L48.2002 26.6002L48.5002 26.7002C48.9002 27.5002 49.2002 28.3002 49.2002 29.1002V29.4002C49.1002 30.4002 48.8002 31.4002 48.2002 32.2002C47.3002 33.4002 45.9002 34.1002 44.4002 34.1002H44.2002C42.9002 34.1002 41.6002 33.5002 40.7002 32.4002L40.1002 31.5002L36.9002 26.0002L33.6002 31.8002C33.1002 32.7002 32.3002 33.4002 31.4002 33.8002C29.5002 34.6002 27.2002 34.1002 25.8002 32.5002C25.2002 31.7002 24.8002 30.7002 24.7002 29.6002V29.2002C24.7002 28.6002 24.8002 28.1002 25.0002 27.6002C25.1002 27.4502 25.1752 27.3002 25.2502 27.1502C25.3252 27.0002 25.4002 26.8502 25.5002 26.7002L31.1002 17.0002L32.9002 14.0002C33.6002 12.8002 34.8002 11.9002 36.2002 11.7002C37.3002 11.5002 38.4002 11.7002 39.4002 12.2002C39.5002 12.2002 39.6002 12.2002 39.7002 12.3002C39.771 12.371 39.8419 12.4293 39.9083 12.484C40.0293 12.5836 40.1356 12.671 40.2002 12.8002V12.9002C40.5076 13.3306 40.7772 13.7609 41.0323 14.1681C41.1921 14.4231 41.3461 14.6691 41.5002 14.9002C42.1982 16.0424 42.856 17.1846 43.499 18.3013C43.8693 18.9444 44.2348 19.579 44.6002 20.2002L45.5002 21.8002ZM31.0002 32.2002C31.6002 31.9002 32.1002 31.3002 32.4002 30.6002C32.6002 30.0002 32.7002 29.3002 32.5002 28.6002C32.3002 28.0002 31.9002 27.3002 31.3002 26.9002C30.7002 26.4002 29.9002 26.2002 29.1002 26.2002C28.7002 26.2002 28.4002 26.3002 28.1002 26.4002C27.0002 26.9002 26.2002 28.1002 26.2002 29.4002C26.2002 30.2002 26.5002 30.8002 26.9002 31.4002C27.4002 32.1002 28.1002 32.5002 28.9002 32.6002C29.6002 32.7002 30.4002 32.6002 31.0002 32.2002ZM34.0002 28.1002C33.7002 27.1002 33.0002 26.2002 32.1002 25.6002C31.3002 25.1002 30.4002 24.8002 29.4002 24.8002H29.4002C29.1002 24.8002 28.7002 24.8002 28.4002 24.9002L31.0002 20.5002C31.2002 20.1002 31.4002 19.7002 31.7002 19.3002C31.8002 19.1002 31.9252 18.8752 32.0502 18.6502L32.0502 18.6502C32.1752 18.4252 32.3002 18.2002 32.4002 18.0002C32.553 18.4585 32.7641 18.8585 32.9445 19.2002L32.9445 19.2002C33.0002 19.3058 33.053 19.4058 33.1002 19.5002C33.4002 20.0002 33.7002 20.5252 34.0002 21.0502C34.3002 21.5752 34.6002 22.1002 34.9002 22.6002C35.1002 22.9002 35.2752 23.2252 35.4502 23.5502C35.6252 23.8752 35.8002 24.2002 36.0002 24.5002L34.0002 28.1002ZM45.3002 32.6002C46.4002 32.3002 47.4002 31.3002 47.6002 30.1002C47.7002 29.4002 47.6002 28.5002 47.1002 27.8002C46.002 25.7502 44.8502 23.7538 43.684 21.7326C43.2574 20.9931 42.8288 20.2502 42.4002 19.5002L41.7002 18.3002L41.7002 18.3001C41.1002 17.2002 40.5002 16.1002 39.8002 15.0002L39.7002 14.9002C39.5002 14.5002 39.3002 14.2002 39.0002 13.9002L38.4002 13.6002L38.2002 13.5002C37.8002 13.3002 37.4002 13.2002 36.9002 13.2002H36.4002C35.5002 13.4002 34.7002 13.9002 34.2002 14.7002C33.8002 15.2002 33.7002 15.9002 33.7002 16.6002C33.7002 17.0002 33.9002 17.4002 34.1002 17.8002C34.2593 18.0785 34.4025 18.3569 34.5425 18.629C34.7546 19.0411 34.9593 19.4388 35.2002 19.8002L35.3002 20.0002L38.9002 26.3002C39.3502 27.1002 39.8002 27.8752 40.2502 28.6502C40.7002 29.4252 41.1502 30.2002 41.6002 31.0002C41.9002 31.6002 42.3002 32.0002 42.8002 32.3002C43.6002 32.7002 44.5002 32.8002 45.3002 32.6002Z" fill="white"/>
</svg>
