<svg width="44" height="44" viewBox="0 0 44 44" fill="none" xmlns="http://www.w3.org/2000/svg">
<path d="M13.2139 15.4454C14.0954 13.8312 15.4635 12.5944 17.0884 11.9425C18.8143 11.242 20.7288 11.327 22.3958 12.1781L22.6652 12.3083L22.9346 12.4261C23.2087 12.5405 23.4641 12.7016 23.6911 12.9035C24.06 13.2594 24.2315 13.797 24.1439 14.3232C24.0825 14.6699 23.9557 14.9991 23.7714 15.2904C23.3893 15.909 23.155 16.6205 23.0893 17.3611C22.9518 18.7995 23.5192 20.3928 24.1038 22.0605C24.713 23.8777 24.9743 25.8098 24.8718 27.7395C24.7283 29.6957 24.092 31.5719 23.032 33.1644C22.5083 33.9432 21.8916 34.6437 21.1979 35.2475C20.5052 35.823 19.7532 36.3098 18.9569 36.6982C17.4046 37.4282 15.746 37.8583 14.0565 37.9692C17.1973 36.8408 20.1949 35.1235 21.7367 32.2344C23.2785 29.3453 23.3129 25.8796 22.2353 22.7797C21.9602 21.9365 21.6622 21.0748 21.4444 20.1324C21.1865 19.1454 21.1106 18.1132 21.2209 17.0945C21.3657 16.0519 21.7456 15.064 22.327 14.2178C22.3809 14.1429 22.427 14.0618 22.4646 13.976C22.4646 13.976 22.5334 14.2302 22.5506 14.1868C22.2718 13.9788 21.9786 13.7943 21.6736 13.635C20.369 12.8188 18.8273 12.5664 17.3578 12.9283C15.779 13.3117 14.3384 14.1867 13.2139 15.4454Z" fill="#EA6169"/>
<path d="M16.1338 25.2114C15.6003 26.4375 14.9367 27.6097 14.1531 28.7102C12.6115 30.8594 10.8108 32.8332 8.787 34.5923C7.75376 35.4931 6.62846 36.2955 5.42753 36.9878C5.97094 35.7642 6.64546 34.596 7.44063 33.5012C8.98411 31.3535 10.787 29.3816 12.8132 27.6252C13.8315 26.718 14.944 25.9093 16.1338 25.2114Z" fill="#EA6169"/>
<path d="M5.31968 35.2895C2.25774 31.5702 0.574254 26.8805 0.561095 22.0332C0.549538 17.107 2.2059 12.3264 5.25266 8.49241C8.35664 4.61424 12.67 1.9261 17.4812 0.87146C27.4554 -1.23788 37.5215 4.03448 41.6092 13.5091C44.5734 20.4445 43.792 28.4432 39.5437 34.6523C38.137 36.6322 36.418 38.3627 34.4561 39.7742C30.5618 42.5865 25.8151 43.914 21.0517 43.5228C30.4774 43.5723 39.0502 36.5328 41.0121 27.5943C42.0766 23.1614 41.6476 18.4943 39.7935 14.338C35.972 5.83642 26.9156 1.09476 17.8772 2.8633C8.73955 4.67272 2.00927 12.5971 1.5908 22.0394C1.33285 26.7559 2.64635 31.4232 5.31968 35.2895Z" fill="#EA6169"/>
</svg>
