<svg width="20" height="21" viewBox="0 0 20 21" fill="none" xmlns="http://www.w3.org/2000/svg">
<path id="Call" fill-rule="evenodd" clip-rule="evenodd" d="M3.01712 3.71829C1.42219 5.31323 0.384212 7.31745 0.00868416 9.51998C-0.0461682 9.828 0.164802 10.1234 0.472819 10.1698C0.476234 10.1702 0.479606 10.1706 0.482943 10.171C0.512594 10.1748 0.539526 10.1782 0.569866 10.1782C0.844128 10.1782 1.08463 9.98412 1.13105 9.70564C1.46438 7.73939 2.39265 5.94614 3.81881 4.51998C5.24497 3.09804 7.03822 2.16555 9.00447 1.83222C9.3167 1.77737 9.52345 1.48623 9.47282 1.17399C9.41797 0.865974 9.12683 0.655004 8.81881 0.709856C6.61628 1.08538 4.61206 2.12336 3.01712 3.71829ZM5.60362 12.4314C5.08041 12.4314 4.58674 12.6592 4.17746 13.0854L1.861 15.4103C1.43484 15.8322 1.21122 16.3343 1.21122 16.8575C1.21122 17.3765 1.43063 17.8829 1.84835 18.3175C2.02978 18.5073 2.21544 18.6888 2.39687 18.8618L2.45571 18.9187C2.70001 19.1549 2.93211 19.3793 3.13527 19.6255C3.13737 19.6297 3.14053 19.6328 3.14369 19.636L3.14371 19.636L3.14372 19.636C3.14688 19.6392 3.15004 19.6424 3.15214 19.6466C3.79349 20.3428 4.61206 20.693 5.58674 20.693C5.67113 20.693 5.76396 20.6888 5.85257 20.6845C7.29982 20.5917 8.59518 20.0474 9.56565 19.5875C12.1057 18.3596 14.3294 16.617 16.1775 14.4103C17.7007 12.5791 18.7218 10.8702 19.4053 9.02631C19.6838 8.27526 20.0467 7.12758 19.9454 5.89551C19.8779 5.1318 19.5699 4.47357 19.0298 3.93348L17.5952 2.48623L17.5867 2.47779C17.1648 2.07273 16.6669 1.85754 16.1521 1.85754C15.6374 1.85754 15.1479 2.07273 14.7386 2.47779C14.4644 2.73095 14.1986 3.001 13.9454 3.2626C13.8188 3.39762 13.6838 3.53264 13.553 3.66344L13.553 3.66344L12.4011 4.81534C11.515 5.70142 11.515 6.8491 12.4011 7.73517C12.4602 7.79424 12.5192 7.85437 12.5783 7.9145C12.6374 7.97462 12.6964 8.03475 12.7555 8.09382L12.8461 8.18573C13.1299 8.47365 13.4218 8.76992 13.7344 9.05585C13.477 9.62547 13.1226 10.1866 12.5952 10.8533C11.5066 12.1909 10.3716 13.2246 9.12261 14.0179C9.00027 14.0938 8.85684 14.1655 8.70497 14.2415L8.70492 14.2415L8.70489 14.2415C8.66942 14.2599 8.63348 14.2784 8.59722 14.297L8.59654 14.2973L8.59628 14.2975C8.525 14.334 8.4525 14.3712 8.37999 14.4103L7.04666 13.0812C6.6205 12.655 6.12261 12.4314 5.60362 12.4314ZM3.08544 17.9495L3.08542 17.9495L3.08536 17.9494C2.93993 17.808 2.802 17.6739 2.66691 17.5284C2.23653 17.0812 2.23653 16.6381 2.67113 16.2077L4.99603 13.8829L5.00447 13.8744C5.13527 13.731 5.35046 13.5664 5.61206 13.5664C5.87788 13.5664 6.10573 13.7394 6.24919 13.8829L7.69223 15.3259C7.76396 15.3976 7.98337 15.617 8.33358 15.617C8.47282 15.617 8.60784 15.5833 8.7513 15.5115C8.75974 15.5073 8.76818 15.502 8.77662 15.4968L8.77664 15.4968C8.78507 15.4915 8.7935 15.4862 8.80193 15.482C8.9243 15.4061 9.06776 15.3343 9.21965 15.2584C9.38843 15.174 9.56565 15.0854 9.73864 14.9757C11.0931 14.1191 12.3209 13.001 13.4855 11.5664L13.4897 11.5622C14.131 10.7478 14.553 10.0643 14.8526 9.33855L14.8652 9.30057C14.9412 9.06007 15.0087 8.70564 14.6458 8.34277C14.6431 8.33732 14.6386 8.33363 14.6335 8.32943L14.6335 8.32943C14.6307 8.32712 14.6277 8.32466 14.6247 8.32167C14.2576 7.99256 13.9201 7.655 13.5656 7.29213C13.4842 7.21352 13.4047 7.13305 13.3245 7.05194C13.2842 7.01116 13.2437 6.97021 13.2028 6.92927C12.7555 6.48201 12.7555 6.06851 13.2028 5.62125L14.3547 4.46935C14.4217 4.40027 14.4886 4.33223 14.5551 4.26472C14.6226 4.19614 14.6896 4.1281 14.7555 4.06007C15.0129 3.79424 15.2576 3.5453 15.515 3.30479L15.5277 3.29213C15.6627 3.15711 15.8779 2.99678 16.1437 2.99678C16.3589 2.99678 16.5783 3.10226 16.7851 3.29635L18.2239 4.73517C18.5741 5.08538 18.764 5.49467 18.8062 5.98834C18.8694 6.76049 18.726 7.57905 18.3336 8.62969C17.6964 10.3512 16.7344 11.9546 15.2956 13.6888C13.553 15.7689 11.4559 17.4103 9.06776 18.5664C8.19434 18.9841 7.02978 19.4736 5.77662 19.5537C5.71332 19.558 5.64581 19.558 5.58252 19.558C4.9243 19.558 4.42219 19.3428 3.99603 18.8871C3.73442 18.5791 3.45594 18.3048 3.18168 18.0432L3.08544 17.9495ZM9.17324 5.45669C8.06776 5.64235 7.06354 6.16555 6.26185 6.96724C5.46016 7.76893 4.94117 8.77315 4.7513 9.87863C4.70489 10.1571 4.46438 10.3512 4.19012 10.3512C4.15977 10.3512 4.13284 10.3478 4.10318 10.344L4.09307 10.3428C3.78084 10.2921 3.57409 9.99678 3.62472 9.68454C3.85257 8.34699 4.48548 7.12758 5.45172 6.16133C6.41797 5.19509 7.63738 4.56218 8.97493 4.33433C9.28717 4.2837 9.5783 4.49045 9.63316 4.79846C9.68801 5.10648 9.48548 5.40606 9.17324 5.45669Z" fill="#6F6D6D"/>
</svg>
