<svg width="67" height="51" viewBox="0 0 67 51" fill="none" xmlns="http://www.w3.org/2000/svg">
<path id="content" fill-rule="evenodd" clip-rule="evenodd" d="M6.93816 0.00982977C5.42543 0.00719949 4.07758 1.35127 4.06973 2.87289C4.0607 8.69459 4.06274 14.5163 4.06478 20.338C4.06718 27.1785 4.06958 34.019 4.05402 40.8595C3.70504 40.8603 3.35591 40.8577 3.00677 40.8551C2.30859 40.8498 1.61041 40.8445 0.913398 40.8673C0.444922 40.8726 0.0863672 41.2724 0 41.7143V48.2966C0.125625 49.7485 1.40936 50.9913 2.87236 50.9926C6.44423 51.001 10.0172 50.9985 13.5902 50.996H13.5903H13.5903L14.6602 50.9952C15.1247 51.0229 15.5854 50.6993 15.6822 50.2351C15.851 49.6157 15.2909 48.9673 14.6589 49.0291C12.591 49.0193 10.523 49.0218 8.45514 49.0243C6.63783 49.0265 4.82053 49.0287 3.00322 49.0225C2.43922 49.0646 1.92756 48.5622 1.96551 47.9928C1.9638 47.2443 1.96457 46.4956 1.96533 45.7468C1.96633 44.7732 1.96733 43.7994 1.96289 42.8256C8.76103 42.8256 15.5592 42.8256 22.3573 42.8269C22.36 42.9853 22.358 43.1456 22.3559 43.3066C22.3479 43.9314 22.3399 44.5664 22.6073 45.1416C23.0679 46.2187 24.2024 46.9578 25.3736 46.9117C27.5983 46.9101 29.823 46.9109 32.0476 46.9117C35.2836 46.9129 38.5193 46.914 41.7546 46.9078C42.8813 46.9025 43.9557 46.1753 44.394 45.135C44.6588 44.5599 44.6512 43.9256 44.6438 43.3018C44.6419 43.1424 44.64 42.9837 44.6427 42.8269C51.4408 42.8256 58.239 42.8256 65.0371 42.8256C65.0354 43.5551 65.0364 44.2847 65.0373 45.0142C65.0385 46.0088 65.0398 47.0034 65.0345 47.998C65.0685 48.5662 64.5569 49.0659 63.9929 49.0225C55.4502 49.0255 46.9071 49.0251 38.364 49.0247H38.3137C31.9209 49.0244 25.5281 49.024 19.1356 49.0252C18.5899 48.9712 18.0377 49.3921 18.0285 49.9602C17.9788 50.5442 18.5231 51.0465 19.0937 50.9966C34.0601 50.9979 49.0291 50.9979 63.9955 50.9966C65.5121 51.0557 66.8848 49.7866 67 48.2755V41.7064C66.9071 41.2698 66.5551 40.8726 66.0866 40.866C65.4047 40.8394 64.7217 40.8464 64.0391 40.8534H64.0388C63.6748 40.8571 63.3109 40.8608 62.9473 40.8595C62.9313 34.1155 62.9334 27.3712 62.9356 20.627C62.9375 14.7084 62.9394 8.78985 62.929 2.87158C62.9224 1.30393 61.4947 -0.0559273 59.9388 0.00588434C56.9502 0.0073379 53.9613 0.00629239 50.9723 0.00524685C45.8481 0.00345446 40.7237 0.00166196 35.6003 0.0124601C34.8518 -0.00989736 34.3768 0.959362 34.8295 1.55118C35.121 1.99849 35.665 1.98909 36.151 1.98069C36.2279 1.97936 36.3035 1.97806 36.3763 1.9786H36.3768C44.2321 1.97728 52.0874 1.97597 59.9428 1.97991C60.5002 1.94046 61.0014 2.4389 60.97 2.99915C60.9747 9.51139 60.9739 16.0236 60.973 22.5359C60.9722 28.6411 60.9714 34.7463 60.9752 40.8516C56.9055 40.8519 52.8359 40.8524 48.7662 40.853H48.7515C34.511 40.8549 20.2705 40.8568 6.03 40.8476C6.02477 28.2341 6.02607 15.6192 6.03 3.00572C5.99336 2.44416 6.49586 1.94046 7.05594 1.97991C10.6765 1.97696 14.2973 1.97745 17.9182 1.97794C22.3746 1.97854 26.8311 1.97914 31.2872 1.97334C31.7269 2.00227 32.1639 1.72083 32.2922 1.29209C32.4714 0.783133 32.1456 0.170277 31.6222 0.0453386C31.3493 -0.00548141 31.0716 -0.00177089 30.7945 0.00193017C30.6916 0.00330531 30.5888 0.00467916 30.4863 0.00325406C27.0524 0.00613093 23.6182 0.00548364 20.1841 0.00483634C15.7687 0.0040041 11.3532 0.00317186 6.93816 0.00982977ZM24.3185 43.3717C24.327 43.1846 24.3354 42.9997 24.3202 42.8269C30.4405 42.8256 36.5595 42.8256 42.6798 42.8269C42.6772 42.9718 42.6796 43.1173 42.6821 43.263C42.6871 43.5668 42.6921 43.8714 42.6523 44.1736C42.5607 44.6392 42.0948 44.9719 41.6277 44.939C39.2795 44.9367 36.9312 44.9377 34.583 44.9388C31.6929 44.9401 28.8029 44.9415 25.9128 44.9364C25.8294 44.9338 25.743 44.9352 25.6554 44.9366C25.2906 44.9423 24.9052 44.9483 24.633 44.6747C24.2747 44.3325 24.2969 43.8451 24.3185 43.3717ZM26.0018 12.8963C26.2628 12.8523 26.5283 12.8553 26.7934 12.8582H26.7935H26.7936C26.8891 12.8593 26.9846 12.8604 27.0797 12.8592C31.2159 12.8614 35.352 12.861 39.4884 12.8607C43.6248 12.8603 47.7614 12.8599 51.8983 12.8621C52.5071 12.8051 53.0845 13.3383 53.0489 13.9542C53.0532 14.5588 52.4814 15.0407 51.8912 14.9979C43.3821 15.0022 34.8716 15.0022 26.3625 14.9979C25.8207 15.0321 25.2804 14.6443 25.2105 14.0925C25.1136 13.5678 25.48 13.0104 26.0018 12.8963ZM13.8342 13.6619C13.9497 13.1615 14.4573 12.8207 14.962 12.8621C16.8808 12.8571 18.7985 12.8597 20.716 12.8624L21.5377 12.8635C22.0852 12.8207 22.6142 13.2485 22.6669 13.7988C22.7553 14.3862 22.2634 14.9822 21.6646 14.9865C21.197 15.0077 20.7293 15.0037 20.2617 14.9996C19.9437 14.9969 19.6258 14.9941 19.3078 14.9993C19.3054 15.7945 19.3065 16.5894 19.3075 17.3841V17.3853V17.3855V17.3856C19.309 18.5213 19.3105 19.6568 19.3021 20.7923C19.342 21.461 18.6548 22.0256 18.0075 21.8602C17.5241 21.7618 17.1605 21.2999 17.1748 20.808C17.1664 19.669 17.1679 18.5301 17.1694 17.3911C17.1704 16.5938 17.1714 15.7966 17.1691 14.9993C16.8743 14.9966 16.5795 14.9998 16.2847 15.003C15.7967 15.0083 15.3088 15.0135 14.8208 14.9922C14.165 14.9936 13.6503 14.2864 13.8342 13.6619ZM26.9141 18.6571C26.5603 18.6487 26.205 18.6403 25.8635 18.7363C25.1606 18.9844 24.9681 20.0067 25.5256 20.4971C25.846 20.8187 26.2949 20.8088 26.7249 20.7994H26.7249H26.725C26.8498 20.7967 26.9731 20.794 27.0911 20.7994C30.4596 20.7977 33.8281 20.7985 37.1965 20.7994H37.1982H37.1983H37.1984H37.1985H37.1986C42.0988 20.8006 46.9988 20.8019 51.8983 20.7951C52.6226 20.8678 53.2471 20.0979 53.0018 19.4064C52.8479 18.8703 52.2733 18.5994 51.7472 18.655C47.2346 18.659 42.722 18.6586 38.2095 18.6581H38.2003C34.5932 18.6578 30.9862 18.6574 27.3791 18.6593C27.2253 18.6645 27.0698 18.6608 26.9141 18.6571H26.9141ZM14.7567 24.4736C22.2449 24.4503 29.7348 24.4537 37.2246 24.4571H37.2262C42.0728 24.4594 46.9195 24.4616 51.7657 24.4565C52.3331 24.3924 52.9505 24.7474 53.0332 25.3434C53.1744 26.0049 52.5698 26.6551 51.904 26.5938C39.5895 26.5981 27.2736 26.5966 14.9591 26.5952C14.453 26.6323 13.9454 26.2915 13.8328 25.7882C13.6588 25.188 14.1293 24.5079 14.7567 24.4736ZM15.5701 30.2534C15.2481 30.2487 14.925 30.244 14.607 30.2965C14.0324 30.4177 13.6617 31.0736 13.8442 31.6311C13.9754 32.1116 14.4658 32.4267 14.9549 32.3939C27.2679 32.3953 39.581 32.3953 51.894 32.3939C52.4301 32.4352 52.9576 32.0445 53.0346 31.5056C53.1687 30.8455 52.5655 30.1939 51.8997 30.2566C45.0554 30.255 38.2106 30.2552 31.3656 30.2555H31.3655H31.3654H31.3282C26.208 30.2556 21.0876 30.2558 15.9672 30.2552C15.8353 30.2573 15.7028 30.2553 15.5701 30.2534ZM8.78619 5.02661C8.32587 5.10015 7.97866 5.54524 8.00496 6.00066C8.00023 12.3765 8.00117 18.7524 8.00212 25.1283C8.00275 29.3792 8.00338 33.63 8.00233 37.8809C7.9826 38.2176 8.0865 38.5788 8.37453 38.7865C8.65321 39.015 9.01248 39.0055 9.36114 38.9964C9.47321 38.9934 9.58419 38.9905 9.69104 38.9955C17.3551 38.9931 25.0191 38.9935 32.6831 38.994C41.1131 38.9945 49.5431 38.995 57.9731 38.9917C58.515 39.0252 59.0121 38.5569 58.9924 38.0215C59.0008 36.6356 58.9992 35.249 58.9976 33.8623C58.997 33.3075 58.9963 32.7527 58.9963 32.1979C59.0384 31.6857 58.6215 31.1864 58.0928 31.158C57.5641 31.0974 57.0393 31.5373 57.0354 32.0637C57.0216 33.0862 57.0238 34.1087 57.026 35.1315C57.0273 35.7709 57.0287 36.4104 57.0262 37.05C46.9199 37.0633 36.8142 37.0611 26.7086 37.0589C21.1329 37.0576 15.5573 37.0564 9.9817 37.0578C9.97152 31.0818 9.97299 25.1058 9.97447 19.1299C9.97547 15.0661 9.97647 11.0023 9.97381 6.93857C16.2477 6.93909 22.5214 6.93878 28.795 6.93847C38.2058 6.93801 47.6164 6.93754 57.0275 6.93986C57.0243 10.2584 57.0248 13.5767 57.0253 16.8949C57.0258 20.4898 57.0263 24.0846 57.0222 27.6799C56.9538 28.1985 57.2774 28.7674 57.8324 28.85C58.4453 28.9855 59.0529 28.4346 58.9963 27.8282C58.9965 26.9184 58.9967 26.0085 58.9969 25.0986C58.9982 18.7322 58.9995 12.3658 58.9937 5.99936C59.024 5.45751 58.5268 4.97243 57.9744 5.00597C48.5346 5.00218 39.0948 5.00285 29.6548 5.00352C23.0464 5.00398 16.4379 5.00445 9.82913 5.00339C9.73356 5.0041 9.63779 5.00295 9.54196 5.00181C9.28963 4.99878 9.03687 4.99576 8.78619 5.02661Z" fill="#827F7F"/>
</svg>
