<svg width="75" height="75" viewBox="0 0 75 75" fill="none" xmlns="http://www.w3.org/2000/svg">
<g id="Combined Shape">
<path fill-rule="evenodd" clip-rule="evenodd" d="M16.8273 0H12.612C9.28766 0.485817 6.1497 2.13847 3.88502 4.62186C1.65117 7.0348 0.271517 10.2168 0.0425542 13.4972C-0.209892 16.7394 0.667799 20.0535 2.4907 22.7483C4.18443 25.2874 6.68394 27.2732 9.53717 28.3579C7.6453 34.2068 7.64676 40.6471 9.54451 46.496C5.91046 47.8625 2.86936 50.7157 1.29158 54.2632C-0.479951 58.1454 -0.427113 62.8171 1.45889 66.6464C1.76124 67.2995 2.73727 67.4302 3.21134 66.8945C3.58414 66.5334 3.58414 65.9507 3.35077 65.5163C2.02543 62.6836 1.85224 59.3489 2.82093 56.3811C3.68101 53.7436 5.45107 51.4202 7.75537 49.8762C11.6081 47.2255 16.9755 47.0494 20.9971 49.4373C23.4746 50.8757 25.4428 53.1815 26.4481 55.8674C27.5607 58.7956 27.5049 62.1464 26.3058 65.0393C25.3503 67.3597 23.68 69.3793 21.5783 70.7502C19.6702 72.0109 17.407 72.7213 15.1218 72.7859C12.0969 72.9018 9.03962 71.8568 6.72651 69.9004C6.6801 69.8608 6.63315 69.8196 6.58551 69.7777L6.58528 69.7775C6.21713 69.4539 5.80753 69.0938 5.28522 69.2237C4.47651 69.3485 4.10224 70.4684 4.6952 71.0408C7.24755 73.4625 10.7157 74.8803 14.2309 74.9904C17.25 75.102 20.2911 74.236 22.8097 72.5672C25.4017 70.869 27.4124 68.3284 28.5191 65.4385C34.3562 67.3362 40.7715 67.3069 46.6145 65.4487C48.2422 69.827 52.0685 73.3025 56.5861 74.4958C59.8855 75.3911 63.4931 75.077 66.5915 73.6313C71.0988 71.5765 74.385 67.1131 75 62.1977V58.3596C74.3483 53.0656 70.5719 48.3454 65.5817 46.4872C67.4721 40.6442 67.4795 34.2126 65.5905 28.3667C67.4369 27.6593 69.1438 26.5922 70.569 25.2199C72.9819 22.9288 74.5846 19.7967 75 16.4913V12.6356C74.6507 10.0833 73.635 7.62483 72.0528 5.59056C69.7471 2.58026 66.2363 0.525445 62.479 0H58.2901C56.9897 0.196675 55.7113 0.548929 54.5064 1.07731C50.9002 2.63897 47.9956 5.71091 46.6101 9.3861C40.7701 7.4986 34.3444 7.50154 28.5059 9.38903C27.7779 7.48392 26.6565 5.72999 25.2255 4.27548C22.9931 1.98143 19.9931 0.463801 16.8273 0ZM3.34197 9.35821C4.53228 6.75887 6.63991 4.59691 9.20547 3.3376C11.4716 2.2148 14.0827 1.81557 16.5822 2.19278C19.1551 2.57439 21.5944 3.7882 23.454 5.60524C25.6658 7.74518 27.047 10.7261 27.2246 13.801C27.4271 16.8847 26.4247 20.0256 24.4829 22.4283C24.1233 22.8187 24.0426 23.4557 24.3889 23.8813C24.7823 24.4361 25.6937 24.4552 26.1091 23.9151C28.9403 20.5217 30.0558 15.8133 29.1311 11.4996C34.5675 9.73394 40.5572 9.72954 45.9922 11.4981C45.3376 14.6303 45.6986 17.9723 47.0856 20.8622C48.7001 24.307 51.7045 27.059 55.271 28.3784C57.8762 29.3618 60.7544 29.5512 63.4755 28.9831C65.2485 34.4269 65.2441 40.4285 63.4667 45.8708C60.6047 45.2734 57.5636 45.5215 54.8557 46.6325C51.2304 48.1003 48.248 51.0739 46.7701 54.6933C45.6487 57.4071 45.3948 60.4556 45.9892 63.3264C40.5572 65.0965 34.569 65.0906 29.1355 63.3264C29.862 59.8861 29.3204 56.1962 27.5944 53.1287C25.6585 49.6164 22.227 46.9686 18.3332 46.0014C16.1551 45.4334 13.8522 45.4231 11.6521 45.8693C9.88209 40.4255 9.87181 34.4255 11.6477 28.9817C14.8811 29.6598 18.3376 29.24 21.295 27.7576C21.3563 27.7256 21.42 27.6941 21.4845 27.6623L21.4845 27.6622L21.4845 27.6622C21.8724 27.4705 22.2918 27.2633 22.4251 26.8241C22.6629 26.2165 22.2226 25.4753 21.5783 25.3858C21.2239 25.3082 20.8943 25.4801 20.5895 25.6391L20.5347 25.6676C18.0382 26.9914 15.0837 27.4112 12.3141 26.8667C9.66486 26.3486 7.19764 24.944 5.40117 22.9288C3.77641 21.125 2.69911 18.8382 2.34099 16.4385C1.97993 14.0476 2.32631 11.5525 3.34197 9.35821ZM58.7745 2.16196C54.4418 2.66979 50.5435 5.66835 48.8645 9.68111C47.5714 12.7149 47.5465 16.2697 48.8072 19.3182C49.8449 21.8647 51.7573 24.0369 54.1336 25.4166C56.4276 26.7566 59.159 27.3246 61.7979 27.0179C66.5108 26.5614 70.7378 23.1431 72.2422 18.6665C73.1859 15.9116 73.1463 12.825 72.0954 10.1053C70.9609 7.11699 68.6257 4.61012 65.7343 3.25101C63.5841 2.22213 61.136 1.85814 58.7745 2.16196ZM50.2735 52.9129C52.1492 50.3268 55.0406 48.498 58.1903 47.9476C60.568 47.5278 63.0734 47.7891 65.2911 48.7519C67.5646 49.7089 69.5328 51.3645 70.8801 53.4296C72.3787 55.7104 73.1008 58.4932 72.885 61.2173C72.7074 63.6875 71.7637 66.0931 70.2226 68.0319C68.5788 70.119 66.2554 71.6646 63.6898 72.3573C61.2021 73.0383 58.5029 72.9283 56.0841 72.0271C53.8576 71.214 51.8777 69.7477 50.4423 67.8617C48.8938 65.8348 47.9765 63.3279 47.8855 60.777C47.7637 57.9854 48.6194 55.1644 50.2735 52.9129ZM60.9408 6.33763C61.6969 6.01927 62.5204 6.03283 63.3306 6.04617H63.3307H63.3307H63.3307H63.3308H63.3308C63.5066 6.04906 63.6819 6.05195 63.8557 6.05143C64.3708 6.02794 64.8611 6.41395 64.9565 6.92179C65.0871 7.47952 64.6996 8.09743 64.1375 8.21045C63.804 8.26074 63.4674 8.25412 63.131 8.2475C62.7507 8.24002 62.3707 8.23255 61.9961 8.30732C61.1683 8.49959 60.5386 9.2951 60.543 10.1449C60.5334 10.8216 60.5358 11.4989 60.5381 12.1764V12.1766V12.1767V12.1768V12.1769V12.1771C60.5394 12.5339 60.5406 12.8908 60.5401 13.2477C60.7986 13.2642 61.0607 13.2553 61.3229 13.2464H61.323C61.7815 13.2309 62.2403 13.2153 62.68 13.3357C63.5078 13.6586 63.5489 14.959 62.7343 15.3245C62.2833 15.4827 61.8036 15.4673 61.3247 15.4518C61.0618 15.4433 60.7991 15.4348 60.5416 15.4551C60.5363 16.4363 60.5375 17.4178 60.5388 18.3993C60.5403 19.604 60.5418 20.8087 60.5313 22.0129C60.5445 22.5398 60.1233 23.0257 59.6022 23.0961C58.9653 23.2121 58.3224 22.6602 58.3444 22.0144C58.3371 20.8077 58.337 19.6006 58.3369 18.3933C58.3367 17.4126 58.3366 16.4316 58.3327 15.4507C58.0985 15.434 57.8598 15.4421 57.6207 15.4503C57.1676 15.4657 56.7133 15.4812 56.2867 15.3274C55.4765 14.9708 55.4956 13.6777 56.3175 13.3489C56.7357 13.2165 57.1759 13.2322 57.6153 13.248C57.8574 13.2566 58.0993 13.2653 58.3371 13.2491C58.3414 12.7919 58.3398 12.3346 58.3382 11.8774C58.3359 11.2412 58.3337 10.605 58.3474 9.96878C58.3973 8.38657 59.4672 6.90711 60.9408 6.33763ZM15.7676 8.16201C17.09 7.63363 18.6546 7.88902 19.7789 8.7491C20.0624 8.6357 20.3229 8.47954 20.5832 8.32349L20.5832 8.32348C20.8148 8.18466 21.0462 8.04593 21.2935 7.93745C22.001 7.69234 22.8009 8.35722 22.6908 9.09549C22.5029 10.1023 21.9951 11.0241 21.3669 11.8225C21.3977 14.1019 20.796 16.4282 19.4295 18.2746C18.0015 20.2384 15.7603 21.5623 13.3694 21.9439C10.9785 22.3344 8.47895 21.8074 6.37719 20.6259C5.75342 20.3118 5.62426 19.3798 6.13062 18.9014C6.39627 18.6019 6.81457 18.5608 7.1903 18.5711C7.89481 18.5799 8.59197 18.4537 9.26711 18.26C7.96526 17.2516 6.9951 15.8015 6.70156 14.1679C6.39774 12.5358 6.60762 10.823 7.21526 9.28335C7.40606 8.75644 8.02103 8.43354 8.55968 8.60967C8.90027 8.70482 9.11342 8.9784 9.32294 9.24732C9.39782 9.34344 9.47224 9.43896 9.55185 9.52553C10.4677 10.5984 11.7872 11.2853 13.1683 11.5216C13.3532 10.0407 14.3571 8.68159 15.7676 8.16201ZM15.5445 11.1532C15.3603 11.509 15.3593 11.9013 15.3582 12.2933C15.3577 12.4948 15.3571 12.6962 15.3317 12.8925C15.2495 13.3989 14.7637 13.7893 14.2529 13.7775C12.2847 13.8304 10.3209 13.1317 8.80332 11.8812C8.68737 12.9864 8.80479 14.1562 9.38306 15.1278C9.95107 16.1156 10.9095 16.8069 11.9281 17.278C12.4535 17.4835 12.8175 18.0706 12.6399 18.6328C12.4878 19.1464 12.0098 19.3981 11.5543 19.638C11.4162 19.7107 11.2803 19.7823 11.1561 19.8598C13.7407 20.0594 16.4398 18.8852 17.8635 16.6836C18.9746 15.0471 19.2461 13.0099 19.1463 11.0769C18.9739 10.9712 18.8171 10.8389 18.6605 10.7068C18.3825 10.4723 18.105 10.2382 17.7417 10.1537C16.8933 9.90714 15.9173 10.3533 15.5445 11.1532ZM46.6262 27.1441C46.6908 26.3398 45.7456 25.716 45.0352 26.1108C44.4643 26.3662 44.388 27.0413 44.4217 27.5917C41.6316 29.2268 38.6066 30.467 35.4584 31.2097C35.1605 31.0482 34.8361 30.9308 34.4927 30.9587C33.7735 30.965 33.0543 30.961 32.3353 30.9569L32.3346 30.9569H32.3345H32.3343H32.3342H32.3341C31.3879 30.9516 30.442 30.9462 29.4966 30.9646C28.365 30.9969 27.3875 32.0389 27.4124 33.1691C27.4038 34.2843 27.4073 35.3995 27.4108 36.5146C27.4132 37.3046 27.4157 38.0945 27.4139 38.8844C27.3816 39.7342 27.8982 40.5547 28.657 40.9231C29.1366 41.171 29.6765 41.1629 30.206 41.155H30.206C30.3474 41.1528 30.4881 41.1507 30.6267 41.1535C30.75 43.5855 30.8762 46.0175 31.0098 48.4496C31.0083 49.0455 31.5484 49.568 32.1473 49.5313C32.7754 49.5239 33.2862 48.9104 33.1996 48.2896C33.1628 47.5719 33.1264 46.8542 33.09 46.1363L33.0899 46.1335L33.0897 46.1307L33.0896 46.1279L33.0894 46.125C33.0055 44.4698 32.9216 42.8142 32.8327 41.1594C33.1123 41.1364 33.4002 41.148 33.6887 41.1596H33.6888H33.6889H33.6889H33.689C34.3046 41.1844 34.9235 41.2093 35.4731 40.8996C36.0989 41.041 36.7134 41.2255 37.3279 41.41L37.3279 41.41L37.3279 41.41L37.328 41.41L37.328 41.41L37.3285 41.4102L37.329 41.4103L37.3294 41.4104L37.3299 41.4106C37.6011 41.492 37.8722 41.5734 38.1443 41.6511C38.6888 41.8228 39.3156 41.4764 39.477 40.9348C39.6634 40.3991 39.3537 39.7489 38.8121 39.5742C38.06 39.3064 37.2901 39.0972 36.5203 38.8881L36.5193 38.8878C36.3236 38.8347 36.1279 38.7815 35.9325 38.7274C35.9325 38.2165 35.9322 37.7058 35.932 37.1952V37.195V37.1949V37.1947V37.1946C35.9314 35.9183 35.9308 34.6424 35.9339 33.3658C38.887 32.6495 41.7505 31.5649 44.4232 30.1177C44.4305 34.0752 44.4291 38.0312 44.4276 41.9887V41.9894V41.9901V41.9909V41.9916C44.217 41.8922 44.0108 41.7831 43.8046 41.674C43.4746 41.4994 43.1447 41.3248 42.797 41.1902C42.2202 40.9847 41.5421 41.3883 41.4173 41.9798C41.2838 42.4789 41.5641 43.0263 42.0308 43.2347C42.8381 43.6369 43.6336 44.0625 44.4144 44.5161C44.4176 44.585 44.4186 44.6555 44.4196 44.7267V44.7269L44.4196 44.7275C44.4243 45.0511 44.4292 45.3876 44.636 45.6521C44.9897 46.1761 45.8072 46.2627 46.2637 45.8267C46.5719 45.5684 46.6453 45.1487 46.6306 44.7685C46.6278 41.974 46.6284 39.1795 46.6289 36.3851V36.3756V36.3755V36.3754V36.3753V36.3753C46.6295 33.2979 46.6301 30.2208 46.6262 27.1441ZM29.614 38.9431C29.614 37.016 29.6155 35.0889 29.6213 33.1618C30.9907 33.1603 32.3615 33.1603 33.7324 33.1618C33.7324 33.8057 33.7325 34.4494 33.7327 35.0931V35.1045V35.1046V35.1048V35.105C33.733 36.3882 33.7334 37.6712 33.7324 38.9549C32.8612 38.9409 31.9906 38.9423 31.1203 38.9437C30.6181 38.9445 30.1161 38.9453 29.614 38.9431ZM62.4678 52.4763H62.4685C63.3739 52.4789 64.2791 52.4814 65.184 52.4814C66.7383 52.4462 68.1502 53.7906 68.1869 55.3449C68.2045 58.6209 68.2001 61.8983 68.1884 65.1743C68.1693 66.7418 66.7441 68.1053 65.1781 68.0701C64.3717 68.0705 63.5652 68.0714 62.7586 68.0723H62.7582H62.7579H62.7576C60.3363 68.0751 57.9145 68.0778 55.4927 68.0657C53.9736 68.0378 52.6306 66.6963 52.6101 65.1758C52.5964 63.021 52.5996 60.865 52.6029 58.7095L52.6029 58.7034V58.7032V58.7029C52.6045 57.6274 52.6062 56.5521 52.6057 55.477C52.5807 54.002 53.796 52.6429 55.2637 52.5034C57.6638 52.4629 60.0662 52.4696 62.4675 52.4763H62.4677H62.4678ZM55.2255 54.7799C54.9173 54.9354 54.7794 55.2906 54.8028 55.6238C54.8064 57.1311 54.8055 58.6392 54.8046 60.1472C54.8036 61.7713 54.8027 63.3954 54.8072 65.0187C54.772 65.4693 55.1683 65.8832 55.6189 65.8656C57.122 65.8787 58.6251 65.8748 60.1282 65.871C61.6632 65.8671 63.1983 65.8632 64.7334 65.8773C64.7799 65.8764 64.8277 65.8763 64.8762 65.8762C65.1942 65.8757 65.5412 65.8752 65.7666 65.6205C65.9974 65.3969 65.9969 65.0739 65.9964 64.77C65.9963 64.7028 65.9961 64.6366 65.9985 64.5725C65.9861 63.0571 65.9897 61.5417 65.9934 60.0262C65.9971 58.5108 66.0007 56.9954 65.9883 55.48C66.0059 54.9751 65.5024 54.6184 65.0269 54.6771C63.9645 54.6766 62.9024 54.6774 61.8402 54.6781C59.8678 54.6795 57.8956 54.6809 55.9227 54.6742C55.8758 54.6765 55.8282 54.6775 55.7803 54.6784C55.5896 54.6822 55.3945 54.686 55.2255 54.7799ZM13.1155 54.5612C12.6854 54.2852 12.1292 54.1913 11.6507 54.3997C11.1091 54.6184 10.7216 55.1732 10.7201 55.7588C10.7109 57.1124 10.7123 58.4664 10.7138 59.8204V59.8207C10.7153 61.2619 10.7168 62.7031 10.7055 64.1439C10.6981 64.5843 10.7436 65.0657 11.0533 65.4091C11.5142 65.9933 12.408 66.1371 13.0347 65.7364C15.4931 64.3201 17.953 62.9022 20.4085 61.4786C21.0734 61.1351 21.4227 60.2868 21.1321 59.5852C20.9565 59.0699 20.4767 58.8002 20.0245 58.5461C19.9512 58.5049 19.8786 58.4641 19.8082 58.4228C18.5744 57.7059 17.338 56.9944 16.1018 56.2831L16.1006 56.2825L16.0986 56.2813C15.1035 55.7087 14.1086 55.1363 13.1155 54.5612ZM12.9184 60.5433C12.9153 59.3588 12.9123 58.1745 12.9173 56.9903C13.9508 57.5788 14.9792 58.1764 16.0077 58.7741L16.0082 58.7745L16.009 58.7749L16.0107 58.7759C16.7894 59.2284 17.5681 59.681 18.3493 60.1297C17.4924 60.6214 16.6372 61.1166 15.7818 61.6119L15.7814 61.6122L15.7812 61.6123C14.8289 62.1637 13.8765 62.7152 12.9217 63.2618C12.923 62.3557 12.9207 61.4498 12.9184 60.5441V60.5437V60.5433ZM59.6595 57.0328C60.6443 56.8024 61.726 57.0578 62.5039 57.705C63.3185 58.3626 63.7867 59.4237 63.7162 60.4702C63.6634 61.5563 63.0264 62.5896 62.0871 63.1371C61.1331 63.7139 59.8826 63.7521 58.8919 63.2384C57.8116 62.6982 57.0763 61.5329 57.0763 60.322C57.0235 58.7941 58.1654 57.344 59.6595 57.0328ZM59.9516 59.2432C59.2045 59.5294 59.0387 60.6376 59.6698 61.1292C60.2774 61.7016 61.3914 61.298 61.5044 60.4761C61.6996 59.6351 60.728 58.8601 59.9516 59.2432Z" fill="url(#paint0_linear)" style="mix-blend-mode:multiply"/>
</g>
<defs>
<linearGradient id="paint0_linear" x1="94.1936" y1="51.826" x2="47.8457" y2="-15.0281" gradientUnits="userSpaceOnUse">
<stop stop-color="#011F43"/>
<stop offset="0.470771" stop-color="#793043"/>
<stop offset="1" stop-color="#FF4343"/>
</linearGradient>
</defs>
</svg>
