<svg width="20" height="18" viewBox="0 0 20 18" fill="none" xmlns="http://www.w3.org/2000/svg">
<path fill-rule="evenodd" clip-rule="evenodd" d="M13.3696 0.495874L13.3645 0.490582C13.2676 0.39083 13.1342 0.33502 12.9952 0.336624C12.9762 0.335822 12.9571 0.337426 12.9389 0.341916H3.66796C2.19478 0.342397 1.0008 1.53653 1 3.00988V14.3318C1.0008 15.805 2.19478 16.999 3.66796 16.9998H16.6635C18.1369 16.999 19.331 15.805 19.3315 14.3318V6.65772C19.3305 6.52172 19.2773 6.39134 19.1828 6.29351L13.3696 0.495874ZM13.5082 2.08116L17.5922 6.15479H15.1499C14.2443 6.15222 13.5108 5.41868 13.5082 4.51305V2.08116ZM3.66796 15.9633H16.6635C17.5701 15.9625 18.3046 15.228 18.3054 14.3214V7.18101H15.1499C13.6769 7.18037 12.4828 5.98624 12.482 4.51305V1.35756H3.66796C2.76218 1.36044 2.02895 2.09399 2.02606 2.99945V14.3214C2.02895 15.2272 2.76218 15.9607 3.66796 15.9633ZM4.67366 8.77302H10.0666C10.3498 8.77302 10.5796 8.54336 10.5796 8.25998C10.5796 7.9766 10.3498 7.74695 10.0666 7.74695H4.67366C4.39028 7.74695 4.16047 7.9766 4.16047 8.25998C4.16047 8.54336 4.39028 8.77302 4.67366 8.77302ZM4.67366 11.6309H15.658C15.9412 11.6309 16.1712 11.8605 16.1712 12.1439C16.1712 12.4273 15.9412 12.6569 15.658 12.6569H4.67366C4.39028 12.6569 4.16047 12.4273 4.16047 12.1439C4.16047 11.8605 4.39028 11.6309 4.67366 11.6309Z" fill="#B1B1B1"/>
<path d="M13.3645 0.490582L13.526 0.333952L13.5259 0.333836L13.3645 0.490582ZM13.3696 0.495874L13.2081 0.652526L13.2107 0.655186L13.3696 0.495874ZM12.9952 0.336624L12.9856 0.561749L12.9978 0.561609L12.9952 0.336624ZM12.9389 0.341916V0.566916H12.9661L12.9925 0.560422L12.9389 0.341916ZM3.66796 0.341916L3.66796 0.116916L3.66789 0.116916L3.66796 0.341916ZM1 3.00988L0.775 3.00976V3.00988H1ZM1 14.3318L0.775 14.3318L0.775 14.3319L1 14.3318ZM3.66796 16.9998L3.66784 17.2248H3.66796V16.9998ZM16.6635 16.9998L16.6635 17.2248L16.6636 17.2248L16.6635 16.9998ZM19.3315 14.3318L19.5565 14.3319V14.3318H19.3315ZM19.3315 6.65772L19.5565 6.65772L19.5565 6.65613L19.3315 6.65772ZM19.1828 6.29351L19.3447 6.13719L19.3417 6.1342L19.1828 6.29351ZM17.5922 6.15479V6.37979H18.1364L17.7511 5.99549L17.5922 6.15479ZM13.5082 2.08116L13.6671 1.92186L13.2832 1.53894V2.08116H13.5082ZM15.1499 6.15479L15.1493 6.37979H15.1499V6.15479ZM13.5082 4.51305L13.2832 4.51305L13.2832 4.51369L13.5082 4.51305ZM16.6635 15.9633L16.6635 16.1883L16.6637 16.1883L16.6635 15.9633ZM3.66796 15.9633L3.66732 16.1883H3.66796V15.9633ZM18.3054 14.3214L18.5304 14.3216V14.3214H18.3054ZM18.3054 7.18101H18.5304V6.95601H18.3054V7.18101ZM15.1499 7.18101L15.1498 7.40601H15.1499V7.18101ZM12.482 4.51305L12.257 4.51305L12.257 4.51317L12.482 4.51305ZM12.482 1.35756H12.707V1.13256H12.482V1.35756ZM3.66796 1.35756L3.66796 1.13256L3.66724 1.13256L3.66796 1.35756ZM2.02606 2.99945L1.80106 2.99874V2.99945H2.02606ZM2.02606 14.3214L1.80106 14.3214L1.80107 14.3221L2.02606 14.3214ZM13.203 0.647212L13.2081 0.652504L13.5312 0.339245L13.526 0.333952L13.203 0.647212ZM12.9978 0.561609C13.0748 0.560721 13.149 0.591622 13.2031 0.647328L13.5259 0.333836C13.3863 0.190038 13.1936 0.10932 12.9926 0.111639L12.9978 0.561609ZM12.9925 0.560422C12.9901 0.561016 12.9883 0.561253 12.9873 0.56135C12.9862 0.561447 12.9857 0.561424 12.9856 0.561422L13.0047 0.111826C12.967 0.110229 12.9264 0.113283 12.8852 0.12341L12.9925 0.560422ZM3.66796 0.566916H12.9389V0.116916H3.66796V0.566916ZM1.225 3.01C1.22573 1.66079 2.31909 0.567357 3.66803 0.566916L3.66789 0.116916C2.07046 0.117438 0.775869 1.41228 0.775 3.00976L1.225 3.01ZM1.225 14.3318V3.00988H0.775V14.3318H1.225ZM3.66808 16.7748C2.31907 16.774 1.22573 15.6807 1.225 14.3317L0.775 14.3319C0.775869 15.9293 2.07049 17.2239 3.66784 17.2248L3.66808 16.7748ZM16.6635 16.7748H3.66796V17.2248H16.6635V16.7748ZM19.1065 14.3317C19.106 15.6807 18.0126 16.774 16.6634 16.7748L16.6636 17.2248C18.2611 17.2239 19.556 15.9293 19.5565 14.3319L19.1065 14.3317ZM19.1065 6.65772V14.3318H19.5565V6.65772H19.1065ZM19.021 6.4498C19.0753 6.5061 19.1059 6.5811 19.1065 6.65931L19.5565 6.65613C19.5551 6.46234 19.4792 6.27658 19.3447 6.13722L19.021 6.4498ZM13.2107 0.655186L19.0239 6.45282L19.3417 6.1342L13.5285 0.336562L13.2107 0.655186ZM17.7511 5.99549L13.6671 1.92186L13.3493 2.24046L17.4333 6.31409L17.7511 5.99549ZM15.1499 6.37979H17.5922V5.92979H15.1499V6.37979ZM13.2832 4.51369C13.2861 5.54308 14.1199 6.37687 15.1493 6.37979L15.1506 5.92979C14.3687 5.92757 13.7354 5.29427 13.7332 4.51241L13.2832 4.51369ZM13.2832 2.08116V4.51305H13.7332V2.08116H13.2832ZM16.6635 15.7383H3.66796V16.1883H16.6635V15.7383ZM18.0804 14.3212C18.0797 15.1037 17.4458 15.7376 16.6633 15.7383L16.6637 16.1883C17.6944 16.1874 18.5295 15.3523 18.5304 14.3216L18.0804 14.3212ZM18.0804 7.18101V14.3214H18.5304V7.18101H18.0804ZM15.1499 7.40601H18.3054V6.95601H15.1499V7.40601ZM12.257 4.51317C12.2578 6.11051 13.5526 7.40532 15.1498 7.40601L15.15 6.95601C13.8012 6.95543 12.7077 5.86196 12.707 4.51293L12.257 4.51317ZM12.257 1.35756V4.51305H12.707V1.35756H12.257ZM3.66796 1.58256H12.482V1.13256H3.66796V1.58256ZM2.25106 3.00017C2.25356 2.21838 2.88663 1.58505 3.66868 1.58256L3.66724 1.13256C2.63773 1.13584 1.80435 1.9696 1.80107 2.99874L2.25106 3.00017ZM2.25106 14.3214V2.99945H1.80106V14.3214H2.25106ZM3.6686 15.7383C2.88665 15.7361 2.25356 15.1028 2.25106 14.3207L1.80107 14.3221C1.80435 15.3515 2.6377 16.1854 3.66732 16.1883L3.6686 15.7383ZM10.0666 8.54802H4.67366V8.99802H10.0666V8.54802ZM10.3546 8.25998C10.3546 8.41905 10.2256 8.54802 10.0666 8.54802V8.99802C10.474 8.99802 10.8046 8.66767 10.8046 8.25998H10.3546ZM10.0666 7.97195C10.2256 7.97195 10.3546 8.10091 10.3546 8.25998H10.8046C10.8046 7.85229 10.474 7.52195 10.0666 7.52195V7.97195ZM4.67366 7.97195H10.0666V7.52195H4.67366V7.97195ZM4.38547 8.25998C4.38547 8.10096 4.51445 7.97195 4.67366 7.97195V7.52195C4.26611 7.52195 3.93547 7.85225 3.93547 8.25998H4.38547ZM4.67366 8.54802C4.51445 8.54802 4.38547 8.41901 4.38547 8.25998H3.93547C3.93547 8.66772 4.26611 8.99802 4.67366 8.99802V8.54802ZM15.658 11.4059H4.67366V11.8559H15.658V11.4059ZM16.3962 12.1439C16.3962 11.7361 16.0653 11.4059 15.658 11.4059V11.8559C15.8171 11.8559 15.9462 11.9849 15.9462 12.1439H16.3962ZM15.658 12.8819C16.0653 12.8819 16.3962 12.5517 16.3962 12.1439H15.9462C15.9462 12.3029 15.8171 12.4319 15.658 12.4319V12.8819ZM4.67366 12.8819H15.658V12.4319H4.67366V12.8819ZM3.93547 12.1439C3.93547 12.5516 4.26611 12.8819 4.67366 12.8819V12.4319C4.51445 12.4319 4.38547 12.3029 4.38547 12.1439H3.93547ZM4.67366 11.4059C4.26611 11.4059 3.93547 11.7362 3.93547 12.1439H4.38547C4.38547 11.9849 4.51445 11.8559 4.67366 11.8559V11.4059Z" fill="#B1B1B1"/>
</svg>
