<svg width="67" height="51" viewBox="0 0 67 51" fill="none" xmlns="http://www.w3.org/2000/svg">
<path id="E icon" fill-rule="evenodd" clip-rule="evenodd" d="M6.93816 0.00982977C5.42543 0.00719949 4.07758 1.35127 4.06973 2.87289C4.0607 8.69459 4.06274 14.5163 4.06478 20.338C4.06718 27.1785 4.06958 34.019 4.05402 40.8595C3.70504 40.8603 3.35591 40.8577 3.00677 40.8551C2.30859 40.8498 1.61041 40.8445 0.913398 40.8673C0.444922 40.8726 0.0863672 41.2724 0 41.7143V48.2966C0.125625 49.7485 1.40936 50.9913 2.87236 50.9926C6.44423 51.001 10.0172 50.9985 13.5902 50.996H13.5903H13.5903L14.6602 50.9952C15.1247 51.0229 15.5854 50.6993 15.6822 50.2351C15.851 49.6157 15.2909 48.9673 14.6589 49.0291C12.591 49.0193 10.523 49.0218 8.45514 49.0243C6.63783 49.0265 4.82053 49.0287 3.00322 49.0225C2.43922 49.0646 1.92756 48.5622 1.96551 47.9928C1.9638 47.2443 1.96457 46.4956 1.96533 45.7468C1.96633 44.7732 1.96733 43.7994 1.96289 42.8256C8.76103 42.8256 15.5592 42.8256 22.3573 42.8269C22.36 42.9853 22.358 43.1456 22.3559 43.3066C22.3479 43.9314 22.3399 44.5664 22.6073 45.1416C23.0679 46.2187 24.2024 46.9578 25.3736 46.9117C27.5983 46.9101 29.823 46.9109 32.0476 46.9117C35.2836 46.9129 38.5193 46.914 41.7546 46.9078C42.8813 46.9025 43.9557 46.1753 44.394 45.135C44.6588 44.5599 44.6512 43.9256 44.6438 43.3018C44.6419 43.1424 44.64 42.9837 44.6427 42.8269C51.4408 42.8256 58.239 42.8256 65.0371 42.8256C65.0354 43.5551 65.0364 44.2847 65.0373 45.0142C65.0385 46.0088 65.0398 47.0034 65.0345 47.998C65.0685 48.5662 64.5569 49.0659 63.9929 49.0225C55.4502 49.0255 46.9071 49.0251 38.364 49.0247H38.3137C31.9209 49.0244 25.5281 49.024 19.1356 49.0252C18.5899 48.9712 18.0377 49.3921 18.0285 49.9602C17.9788 50.5442 18.5231 51.0465 19.0937 50.9966C34.0601 50.9979 49.0291 50.9979 63.9955 50.9966C65.5121 51.0557 66.8848 49.7866 67 48.2755V41.7064C66.9071 41.2698 66.5551 40.8726 66.0866 40.866C65.4047 40.8394 64.7217 40.8464 64.0391 40.8534H64.0388C63.6748 40.8571 63.3109 40.8608 62.9473 40.8595C62.9313 34.1155 62.9334 27.3712 62.9356 20.627C62.9375 14.7084 62.9394 8.78985 62.929 2.87158C62.9224 1.30393 61.4947 -0.0559273 59.9388 0.00588434C56.9502 0.0073379 53.9613 0.00629239 50.9723 0.00524685C45.8481 0.00345446 40.7237 0.00166196 35.6003 0.0124601C34.8518 -0.00989736 34.3768 0.959362 34.8295 1.55118C35.121 1.99849 35.665 1.98909 36.151 1.98069C36.2279 1.97936 36.3035 1.97806 36.3763 1.9786H36.3768C44.2321 1.97728 52.0874 1.97597 59.9428 1.97991C60.5002 1.94046 61.0014 2.4389 60.97 2.99915C60.9747 9.51139 60.9739 16.0236 60.973 22.5359C60.9722 28.6411 60.9714 34.7463 60.9752 40.8516C56.9055 40.8519 52.8359 40.8524 48.7662 40.853H48.7515C34.511 40.8549 20.2705 40.8568 6.03 40.8476C6.02477 28.2341 6.02607 15.6192 6.03 3.00572C5.99336 2.44416 6.49586 1.94046 7.05594 1.97991C10.6765 1.97696 14.2973 1.97745 17.9182 1.97794C22.3746 1.97854 26.8311 1.97914 31.2872 1.97334C31.7269 2.00227 32.1639 1.72083 32.2922 1.29209C32.4714 0.783133 32.1456 0.170277 31.6222 0.0453386C31.3493 -0.00548141 31.0716 -0.00177089 30.7945 0.00193017C30.6916 0.00330531 30.5888 0.00467916 30.4863 0.00325406C27.0524 0.00613093 23.6182 0.00548364 20.1841 0.00483634C15.7687 0.0040041 11.3532 0.00317186 6.93816 0.00982977ZM24.3185 43.3717C24.327 43.1846 24.3354 42.9997 24.3202 42.8269C30.4405 42.8256 36.5595 42.8256 42.6798 42.8269C42.6772 42.9718 42.6796 43.1173 42.6821 43.263C42.6871 43.5668 42.6921 43.8714 42.6523 44.1736C42.5607 44.6392 42.0948 44.9719 41.6277 44.939C39.2795 44.9367 36.9312 44.9377 34.583 44.9388C31.6929 44.9401 28.8029 44.9415 25.9128 44.9364C25.8294 44.9338 25.743 44.9352 25.6554 44.9366C25.2906 44.9423 24.9052 44.9483 24.633 44.6747C24.2747 44.3325 24.2969 43.8451 24.3185 43.3717ZM47.5724 12.3625C46.3038 11.0938 44.5517 10.3084 42.6134 10.3084C40.6779 10.3084 38.926 11.0938 37.6573 12.3626C36.5836 13.4392 35.8545 14.8605 35.6595 16.4484H33.2125C32.8001 16.4484 32.4666 16.7819 32.4666 17.1944C32.4666 17.6097 32.8 17.9432 33.2125 17.9432H35.6314C35.7132 18.87 35.9761 19.7432 36.383 20.5314C35.6149 21.1617 34.8475 21.792 34.0801 22.4222L34.0715 22.4293C33.2213 23.1276 32.3711 23.8258 31.5202 24.524C30.121 23.3752 28.7211 22.2255 27.3212 21.0758L27.3066 21.0638L27.2706 21.0342L23.5066 17.9432H29.8276C30.24 17.9432 30.5735 17.6097 30.5735 17.1944C30.5735 16.782 30.2401 16.4484 29.8276 16.4484H21.4241C21.0115 16.4484 20.6753 16.7819 20.6753 17.1944V30.5596C20.6753 30.9749 21.0115 31.3084 21.4241 31.3084H41.6159C42.0285 31.3084 42.3647 30.9749 42.3647 30.5596V24.3262C44.3172 24.3941 46.1907 23.6593 47.5724 22.2776C48.841 21.0089 49.6237 19.2542 49.6237 17.3186C49.6237 15.3832 48.8411 13.6311 47.5724 12.3625ZM41.2459 14.4085C41.2459 14.8237 41.5792 15.1573 41.9918 15.1573H42.4891V20.2291C42.4891 20.6417 42.8225 20.9779 43.2379 20.9779C43.6504 20.9779 43.9838 20.6417 43.9838 20.2291V14.4085C43.9838 13.996 43.6505 13.6624 43.2379 13.6624H41.9918C41.5793 13.6624 41.2459 13.9959 41.2459 14.4085ZM40.87 24.1115C39.6352 23.7951 38.5304 23.1508 37.6573 22.2777C37.499 22.1196 37.3493 21.9528 37.2079 21.7805L34.6535 23.8771L40.8699 28.983V24.1115H40.87ZM42.6134 11.806C44.1364 11.806 45.5154 12.4219 46.5157 13.4194C47.513 14.4168 48.129 15.7958 48.129 17.3186C48.129 18.8417 47.5131 20.2206 46.5157 21.218C45.5153 22.2184 44.1363 22.8343 42.6134 22.8343C41.0932 22.8343 39.7143 22.2184 38.7141 21.218C37.7166 20.2206 37.1007 18.8417 37.1007 17.3186C37.1007 15.7958 37.7166 14.4168 38.7141 13.4194C39.7143 12.422 41.0932 11.806 42.6134 11.806ZM29.559 24.8433L23.5065 29.8135H39.5335L33.4809 24.8433L31.9918 26.064C31.7093 26.2957 31.3081 26.2844 31.0368 26.0556L29.559 24.8433ZM28.3864 23.877L22.17 28.983V18.774L28.3864 23.877ZM8.78619 5.02661C8.32587 5.10015 7.97866 5.54524 8.00496 6.00066C8.00023 12.3765 8.00117 18.7524 8.00212 25.1283C8.00275 29.3792 8.00338 33.63 8.00233 37.8809C7.9826 38.2176 8.0865 38.5788 8.37453 38.7865C8.65321 39.015 9.01248 39.0055 9.36114 38.9964C9.47321 38.9934 9.58419 38.9905 9.69104 38.9955C17.3551 38.9931 25.0191 38.9935 32.6831 38.994C41.1131 38.9945 49.5431 38.995 57.9731 38.9917C58.515 39.0252 59.0121 38.5569 58.9924 38.0215C59.0008 36.6356 58.9992 35.249 58.9976 33.8623C58.997 33.3075 58.9963 32.7527 58.9963 32.1979C59.0384 31.6857 58.6215 31.1864 58.0928 31.158C57.5641 31.0974 57.0393 31.5373 57.0354 32.0637C57.0216 33.0862 57.0238 34.1087 57.026 35.1315C57.0273 35.7709 57.0287 36.4104 57.0262 37.05C46.9199 37.0633 36.8142 37.0611 26.7086 37.0589C21.1329 37.0576 15.5573 37.0564 9.9817 37.0578C9.97152 31.0818 9.97299 25.1058 9.97447 19.1299C9.97547 15.0661 9.97647 11.0023 9.97381 6.93857C16.2477 6.93909 22.5214 6.93878 28.795 6.93847C38.2058 6.93801 47.6164 6.93754 57.0275 6.93986C57.0243 10.2584 57.0248 13.5767 57.0253 16.8949C57.0258 20.4898 57.0263 24.0846 57.0222 27.6799C56.9538 28.1985 57.2774 28.7674 57.8324 28.85C58.4453 28.9855 59.0529 28.4346 58.9963 27.8282C58.9965 26.9184 58.9967 26.0085 58.9969 25.0986C58.9982 18.7322 58.9995 12.3658 58.9937 5.99936C59.024 5.45751 58.5268 4.97243 57.9744 5.00597C48.5346 5.00218 39.0948 5.00285 29.6548 5.00352C23.0464 5.00398 16.4379 5.00445 9.82913 5.00339C9.73356 5.0041 9.63779 5.00295 9.54196 5.00181C9.28963 4.99878 9.03687 4.99576 8.78619 5.02661Z" fill="white" fill-opacity="0.461429"/>
</svg>
