<svg width="20" height="15" viewBox="0 0 20 15" fill="none" xmlns="http://www.w3.org/2000/svg">
<path fill-rule="evenodd" clip-rule="evenodd" d="M20 2.88676C20 2.30586 19.7718 1.77762 19.4008 1.3857C19.3894 1.37266 19.3776 1.36031 19.3653 1.34852C18.9691 0.949062 18.4202 0.701172 17.8144 0.701172H2.18555C0.98043 0.701172 0 1.68164 0 2.88676V12.0538C0 12.6336 0.227383 13.161 0.597109 13.5527L0.599727 13.5561C0.615781 13.5747 0.63293 13.5918 0.650703 13.6079C1.04566 13.998 1.58789 14.2394 2.18559 14.2394H17.8145C18.3873 14.2394 18.9091 14.0176 19.2992 13.6557C19.3396 13.6278 19.3775 13.595 19.4111 13.556C19.4288 13.5354 19.4443 13.5136 19.4586 13.4914C19.7953 13.1068 20.0001 12.6039 20.0001 12.0538V2.88676H20ZM2.18555 1.87324H17.8145V1.8732C17.8233 1.8732 17.8321 1.8735 17.8408 1.8738L17.8473 1.87402L10.3633 7.50609C10.1468 7.6648 9.85676 7.6648 9.64019 7.50609L2.15605 1.87398L2.16467 1.87371L2.16468 1.87371C2.17162 1.87348 2.17856 1.87324 2.18555 1.87324ZM1.17203 2.88676V12.0538C1.17203 12.1281 1.18031 12.2005 1.19555 12.2704L7.17988 7.12145L1.20621 2.62598C1.18402 2.70922 1.17203 2.7966 1.17203 2.88676ZM17.8144 13.0674H2.18555C2.14766 13.0674 2.11031 13.0651 2.07352 13.0611L8.13852 7.84277L8.93812 8.44453L8.94242 8.44773C9.25926 8.68168 9.63043 8.79855 10.0018 8.79855C10.373 8.79855 10.7443 8.6816 11.0611 8.44773L11.8689 7.83984L17.9359 13.0598C17.896 13.0646 17.8556 13.0674 17.8144 13.0674ZM18.8062 12.2626C18.8204 12.1952 18.828 12.1254 18.828 12.0538V2.88676C18.828 2.79738 18.8162 2.7107 18.7944 2.62812L12.8275 7.11848L18.8062 12.2626Z" fill="#6F6D6D"/>
</svg>
