<svg width="14" height="22" viewBox="0 0 14 22" fill="none" xmlns="http://www.w3.org/2000/svg">
<path fill-rule="evenodd" clip-rule="evenodd" d="M1.16962 22C0.523657 22 0 21.4763 0 20.8304L0 4.51139C0 3.86543 0.523657 3.34177 1.16962 3.34177V3.34177C1.81558 3.34177 2.33924 3.86543 2.33924 4.51139L2.33924 20.8304C2.33924 21.4763 1.81558 22 1.16962 22V22Z" fill="#CCCCCC" style="mix-blend-mode:lighten"/>
<path fill-rule="evenodd" clip-rule="evenodd" d="M12.1975 22C11.5515 22 11.0278 21.4763 11.0278 20.8304L11.0278 4.51139C11.0278 3.86543 11.5515 3.34177 12.1975 3.34177V3.34177C12.8434 3.34177 13.3671 3.86543 13.3671 4.51139L13.3671 20.8304C13.3671 21.4763 12.8434 22 12.1975 22V22Z" fill="#CCCCCC" style="mix-blend-mode:lighten"/>
<path fill-rule="evenodd" clip-rule="evenodd" d="M6.57196 16.542C5.926 16.542 5.40234 16.0183 5.40234 15.3724L5.40234 1.16984C5.40234 0.523878 5.926 0.000219345 6.57196 0.000219345V0.000219345C7.21793 0.000219345 7.74158 0.523876 7.74158 1.16984L7.74158 15.3724C7.74158 16.0183 7.21793 16.542 6.57196 16.542V16.542Z" fill="#FF4343"/>
</svg>
