<svg width="85" height="53" viewBox="0 0 85 53" fill="none" xmlns="http://www.w3.org/2000/svg">
<g id="Shape">
<path fill-rule="evenodd" clip-rule="evenodd" d="M9.35291 0.986628C10.0764 0.355612 11.1584 0.208595 12.0339 0.59183C14.2788 1.48549 16.5386 2.34612 18.7735 3.26291C19.9084 3.72378 20.4568 5.04198 20.2173 6.2049C21.1423 6.57657 22.0426 7.01927 22.9941 7.31826C24.2099 7.7081 25.495 7.44876 26.7422 7.53961C29.9617 7.75435 33.2753 7.64698 36.3478 8.79008C36.9524 8.20697 37.524 7.58917 38.1599 7.03909C39.379 6.00337 41.0111 5.47477 42.6051 5.59701C44.3264 5.80184 46.0328 6.12065 47.7474 6.37669C48.5535 6.4246 49.1317 7.33643 48.7996 8.08308C48.5899 8.61994 47.9853 8.94205 47.4203 8.82807C45.8081 8.61168 44.2107 8.30278 42.6002 8.07977C41.4257 7.92615 40.2198 8.39198 39.4071 9.24434C36.2058 12.4523 32.7897 15.4636 29.0664 18.0538C28.5807 18.4007 28.0505 18.6865 27.5995 19.0796C27.3137 19.3241 27.3005 19.813 27.578 20.0691C28.589 21.1213 30.1285 21.5871 31.5607 21.3476C33.7924 21.0156 35.7267 19.7205 37.4678 18.3594C38.3102 17.7333 39.014 16.7884 40.1207 16.6414C41.1399 16.4465 42.1558 16.9338 42.8182 17.6937C45.8461 20.8273 50.3028 22.5997 54.6638 22.0844C55.3592 22.0365 56.1654 21.7292 56.765 22.2413C60.1761 24.7554 63.5955 27.2597 66.9851 29.8003C68.7824 28.6952 70.5333 27.5157 72.3223 26.3974C69.9998 20.4275 67.6211 14.4808 65.2837 8.51752C63.3543 9.14523 61.5125 10.1083 59.4823 10.3792C57.6471 10.6303 55.8366 10.1198 54.0295 9.88527C53.4976 9.7812 52.8616 9.79442 52.4784 9.35006C51.9828 8.82972 52.0951 7.89476 52.7014 7.50822C53.2894 7.10682 54.0245 7.40746 54.6671 7.47354C56.3173 7.69158 57.9874 8.19706 59.6558 7.8419C61.2713 7.45702 62.7877 6.74341 64.3586 6.20985C64.1109 5.04363 64.6659 3.72378 65.804 3.26291C68.0869 2.33621 70.3863 1.44915 72.6791 0.543926C73.9015 0.0467118 75.4344 0.709113 75.9085 1.94141C77.0004 4.66865 78.0725 7.40581 79.1479 10.1413C79.4105 10.6897 79.2503 11.4083 78.7217 11.737C78.1187 12.1682 77.1788 11.8906 76.9145 11.1952C75.7847 8.42171 74.7159 5.62179 73.6058 2.84003C71.3262 3.73535 69.0467 4.63066 66.772 5.53919C69.6033 12.7281 72.4396 19.9154 75.2792 27.1011C77.5571 26.2058 79.8367 25.3121 82.1097 24.4052C81.0954 21.7755 80.0217 19.1671 79.019 16.5324C78.6226 15.6586 79.5328 14.6261 80.4495 14.8904C81.1119 15.0143 81.3647 15.7015 81.5712 16.2565C82.5491 18.8483 83.6459 21.3955 84.5759 24.0038V24.5787C84.4652 25.5582 83.8078 26.4453 82.8679 26.7724C80.775 27.5967 78.6804 28.416 76.5908 29.2502C75.5171 29.8052 74.1691 29.569 73.3514 28.6803C71.7508 29.7011 70.1551 30.7286 68.561 31.7561C69.23 33.2824 69.126 35.1292 68.1728 36.5118C67.0562 38.2562 64.8046 39.1152 62.8026 38.5965C62.6737 40.2533 61.7057 41.8292 60.2273 42.6105C59.2263 43.1788 58.0402 43.3027 56.9137 43.1474C56.8492 44.4606 56.3289 45.7673 55.3444 46.6593C54.0047 47.9329 51.9597 48.2996 50.2285 47.6983C50.0699 48.8051 49.6008 49.8837 48.7831 50.6651C47.5409 51.8957 45.6264 52.3896 43.9448 51.899C42.5985 51.5406 41.5975 50.5181 40.4709 49.7598C39.6962 50.6403 39.0073 51.6777 37.8956 52.165C36.1397 53.0322 33.8551 52.5664 32.5782 51.083C31.8977 50.3347 31.5541 49.3502 31.4418 48.3607C30.1599 48.4532 28.8351 48.0601 27.8985 47.1614C27.0313 46.39 26.5621 45.2701 26.4415 44.1303C25.31 44.198 24.1405 43.9304 23.2419 43.2135C22.1863 42.4354 21.5636 41.18 21.4479 39.8866C19.8407 40.027 18.1871 39.3051 17.2687 37.9655C16.2214 36.5184 16.223 34.4817 17.1398 32.9702C15.1163 31.5678 12.9969 30.309 10.9156 28.9925C10.1805 29.5194 9.20754 29.7524 8.34857 29.3889C6.13175 28.5184 3.91824 27.6396 1.70308 26.7674C0.773077 26.447 0.117283 25.5698 0 24.6018V24.0501C0.199877 23.2919 0.5286 22.5766 0.809418 21.8465C3.28723 15.5661 5.76669 9.28729 8.2412 3.00522C8.53193 2.29822 8.7285 1.48715 9.35291 0.986628ZM10.9684 2.84333C8.13713 10.0356 5.28434 17.2179 2.47285 24.4185C4.75574 25.2923 7.02046 26.2124 9.2984 27.1011C12.1462 19.9254 14.9511 12.7331 17.8088 5.56067C15.5491 4.60423 13.2513 3.7403 10.9684 2.84333ZM19.2988 8.50926C16.9003 14.608 14.4704 20.6935 12.0983 26.8021C14.3052 28.2227 16.5799 29.5442 18.724 31.0606C19.431 30.2611 20.0934 29.422 20.8153 28.6357C22.1417 27.2299 24.4081 26.8748 26.1095 27.78C27.5103 28.4887 28.4436 29.9687 28.551 31.5265C29.7915 31.4356 31.075 31.799 32.0067 32.6415C32.9235 33.4179 33.4488 34.5742 33.5578 35.7602C34.6497 35.6793 35.7763 35.9436 36.6633 36.6027C37.7635 37.3791 38.4358 38.6675 38.5415 40.0022C39.8349 39.8833 41.1729 40.3095 42.1195 41.2114C43.3402 42.3363 43.8292 44.1666 43.3584 45.7557C43.142 46.5701 42.6233 47.2457 42.0914 47.88C42.7703 48.3442 43.3914 48.891 44.1001 49.3056C45.1986 49.925 46.7365 49.56 47.3873 48.4648C47.9671 47.5496 47.9242 46.0811 46.9231 45.4749C46.2062 44.9215 45.4827 44.3764 44.774 43.8114C44.2735 43.4513 44.1199 42.703 44.4569 42.1827C44.8038 41.5699 45.704 41.3898 46.2541 41.8391C47.6714 42.9029 49.0425 44.0295 50.4928 45.0487C51.4393 45.7227 52.8583 45.6401 53.6875 44.8125C54.5663 43.9766 54.6869 42.4272 53.8593 41.5203C52.6122 40.5094 51.3039 39.5711 50.0534 38.5618C49.3464 38.0002 49.5958 36.7546 50.4466 36.4821C51.066 36.2178 51.6475 36.6407 52.1001 37.0222C53.5009 38.096 54.8818 39.1961 56.3107 40.2351C57.2771 40.9587 58.7687 40.9008 59.6095 40.0055C60.5544 39.0722 60.5593 37.2287 59.3964 36.4705C58.1757 35.5455 56.9715 34.6006 55.7524 33.6739C55.2965 33.3766 54.9397 32.8529 55.0669 32.288C55.1907 31.4587 56.2645 30.9764 56.95 31.4852C58.7836 32.8397 60.5511 34.2867 62.3979 35.6264C62.796 35.9238 63.2469 36.1781 63.7508 36.226C64.7931 36.3863 65.8751 35.7619 66.3046 34.8087C66.81 33.7036 66.3326 32.326 65.3498 31.6537C62.2195 29.341 59.0892 27.0301 55.9556 24.724C55.7326 24.5308 55.4567 24.4317 55.1643 24.5192C50.0452 25.1684 44.7592 23.1828 41.1548 19.5306C40.9351 19.3125 40.5964 18.8748 40.2859 19.225C38.0806 21.1494 35.6193 22.9565 32.7269 23.652C30.8454 24.1294 28.7657 23.8849 27.1138 22.8409C26.2532 22.2875 25.3744 21.5971 25.0589 20.5812C24.598 19.2316 25.1712 17.6309 26.3821 16.8793C29.1803 15.0655 31.7787 12.9611 34.2599 10.736C31.9704 10.1297 29.5834 10.2421 27.2443 10.0455C25.865 9.90014 24.4692 10.1595 23.1014 9.89023C21.7618 9.65566 20.5559 8.99491 19.2988 8.50926ZM23.3608 29.8812C22.9445 30.015 22.6158 30.3189 22.3383 30.6477C21.4 31.7511 20.4601 32.8529 19.5202 33.9564C18.7587 34.7278 18.7537 36.084 19.5499 36.8339C20.3246 37.6367 21.7535 37.5938 22.4803 36.7447C23.5062 35.5719 24.5055 34.3759 25.5181 33.1916C26.0517 32.6068 26.2301 31.7181 25.9047 30.9896C25.5165 30.0315 24.3288 29.5079 23.3608 29.8812ZM28.285 34.1397C27.7928 34.3181 27.4508 34.7344 27.1238 35.1209C26.2218 36.198 25.2951 37.2519 24.3998 38.3322C23.6978 39.1399 23.8167 40.4879 24.646 41.1618C25.4521 41.8936 26.8231 41.7747 27.512 40.9388C28.5262 39.7627 29.5305 38.5783 30.5349 37.3939C31.0833 36.7827 31.2336 35.8379 30.8405 35.1061C30.4027 34.1876 29.2216 33.7466 28.285 34.1397ZM33.4389 38.3173C32.8888 38.4643 32.4973 38.9021 32.1488 39.3233C31.2237 40.4317 30.2623 41.5104 29.3505 42.6287C28.693 43.4381 28.8335 44.7398 29.6412 45.3972C30.4242 46.1059 31.7523 46.0299 32.4527 45.2387C33.4851 44.0625 34.4845 42.8583 35.5037 41.6706C36.0967 41.033 36.2438 40.0204 35.7961 39.2622C35.355 38.4495 34.3226 38.0382 33.4389 38.3173ZM38.3648 42.5742C37.8675 42.7311 37.5058 43.1243 37.1837 43.5125C36.2586 44.6176 35.3055 45.7012 34.3871 46.8112C33.6833 47.6256 33.8221 48.9752 34.6596 49.6442C35.4558 50.3578 36.7971 50.2521 37.4843 49.4361C38.5085 48.2599 39.5128 47.0673 40.5221 45.8779C41.0375 45.3014 41.2093 44.4375 40.8954 43.7222C40.5188 42.7592 39.341 42.2124 38.3648 42.5742Z" fill="url(#paint0_linear)" style="mix-blend-mode:multiply"/>
</g>
<defs>
<linearGradient id="paint0_linear" x1="106.22" y1="36.4638" x2="81.2856" y2="-21.7857" gradientUnits="userSpaceOnUse">
<stop stop-color="#011F43"/>
<stop offset="0.470771" stop-color="#793043"/>
<stop offset="1" stop-color="#FF4343"/>
</linearGradient>
</defs>
</svg>
