<svg width="23" height="23" viewBox="0 0 23 23" fill="none" xmlns="http://www.w3.org/2000/svg">
<path id="linkedin" fill-rule="evenodd" clip-rule="evenodd" d="M4.24657 0.795898H18.8289C20.6745 0.795898 22.1707 2.29206 22.1707 4.13768V18.72C22.1707 20.5656 20.6745 22.0618 18.8289 22.0618H4.24657C2.40095 22.0618 0.904785 20.5656 0.904785 18.72V4.13768C0.904785 2.29206 2.40095 0.795898 4.24657 0.795898ZM18.8289 2.61869H4.24657C3.40765 2.61869 2.72757 3.29876 2.72757 4.13768V18.72C2.72757 19.5589 3.40765 20.239 4.24657 20.239H18.8289C19.6678 20.239 20.3479 19.5589 20.3479 18.72V4.13768C20.3479 3.29876 19.6678 2.61869 18.8289 2.61869ZM6.67695 5.65667C7.14158 5.65667 7.52501 6.00435 7.58124 6.45374L7.58835 6.58022C7.58835 7.08357 7.1803 7.49161 6.67695 7.49161C6.21232 7.49161 5.8289 7.14393 5.77266 6.69454L5.76556 6.56806C5.76556 6.06471 6.1736 5.65667 6.67695 5.65667ZM7.58124 10.0993C7.52501 9.64993 7.14158 9.30225 6.67695 9.30225C6.1736 9.30225 5.76556 9.71029 5.76556 10.2136V16.2896L5.77266 16.4039C5.8289 16.8533 6.21232 17.201 6.67695 17.201C7.1803 17.201 7.58835 16.793 7.58835 16.2896V10.2136L7.58124 10.0993ZM12.3157 9.73869C12.1556 9.47693 11.8671 9.30225 11.5377 9.30225C11.0344 9.30225 10.6263 9.71029 10.6263 10.2136V12.644V16.2896L10.6334 16.4039C10.6897 16.8533 11.0731 17.201 11.5377 17.201C12.0411 17.201 12.4491 16.793 12.4491 16.2896V12.644L12.4561 12.4977C12.5297 11.7275 13.1785 11.125 13.9681 11.125C14.807 11.125 15.4871 11.8051 15.4871 12.644V16.2896L15.4942 16.4039C15.5504 16.8533 15.9339 17.201 16.3985 17.201C16.9018 17.201 17.3099 16.793 17.3099 16.2896V12.644L17.3046 12.4544C17.2063 10.697 15.7501 9.30225 13.9681 9.30225C13.367 9.30225 12.8031 9.46093 12.3157 9.73869Z" fill="#838282"/>
</svg>
