<svg width="17" height="21" viewBox="0 0 17 21" fill="none" xmlns="http://www.w3.org/2000/svg">
<path id="Location" fill-rule="evenodd" clip-rule="evenodd" d="M14.4803 3.1856C12.8782 1.58349 10.7481 0.701172 8.48237 0.701172C6.21667 0.701172 4.0865 1.58349 2.48443 3.1856C0.882316 4.78775 0 6.91784 0 9.18351C0 13.7669 4.33375 17.5792 6.662 19.6273C6.98555 19.9119 7.26495 20.1577 7.48756 20.3656C7.76645 20.6261 8.12443 20.7564 8.48233 20.7564C8.84031 20.7564 9.19821 20.6261 9.47715 20.3656C9.69931 20.158 9.97805 19.9129 10.3008 19.629L10.3027 19.6273L10.3028 19.6272C12.6311 17.5791 16.9647 13.7669 16.9647 9.18351C16.9647 6.91784 16.0824 4.78775 14.4803 3.1856ZM9.52674 18.7452C9.1961 19.0361 8.91059 19.2873 8.67517 19.5071C8.56702 19.6081 8.39765 19.6081 8.28946 19.5071C8.05452 19.2876 7.76958 19.037 7.43972 18.7468L7.43789 18.7452C5.24904 16.8198 1.17472 13.2357 1.17472 9.18355C1.17472 5.15415 4.45286 1.87601 8.4823 1.87601C12.5117 1.87601 15.7898 5.15415 15.7898 9.18355C15.7899 13.2357 11.7156 16.8198 9.52674 18.7452ZM8.48237 5.12501C6.42118 5.12501 4.74429 6.80186 4.74429 8.86305C4.74429 10.9242 6.42118 12.6011 8.48237 12.6011C10.5436 12.6011 12.2204 10.9242 12.2204 8.86305C12.2204 6.80186 10.5436 5.12501 8.48237 5.12501ZM8.48237 11.4263C7.06898 11.4263 5.91909 10.2764 5.91909 8.86301C5.91909 7.44966 7.06898 6.29977 8.48237 6.29977C9.89576 6.29977 11.0456 7.44966 11.0456 8.86301C11.0456 10.2764 9.89576 11.4263 8.48237 11.4263Z" fill="#6F6D6D"/>
</svg>
