<svg width="137" height="101" viewBox="0 0 137 101" fill="none" xmlns="http://www.w3.org/2000/svg">
<circle cx="70.2521" cy="35.2697" r="34.5685" fill="#0F0B0B"/>
<g opacity="0.795217">
<path fill-rule="evenodd" clip-rule="evenodd" d="M49.081 34.5913C49.0942 39.4386 50.7777 44.1283 53.8396 47.8476C51.1663 43.9813 49.8528 39.314 50.1108 34.5975C50.5292 25.1552 57.2595 17.2308 66.3972 15.4214C75.4356 13.6529 84.492 18.3945 88.3135 26.8961C90.1675 31.0524 90.5965 35.7195 89.5321 40.1524C87.5701 49.0909 78.9974 56.1304 69.5716 56.0809C74.3351 56.4721 79.0818 55.1446 82.9761 52.3323C84.938 50.9209 86.657 49.1903 88.0637 47.2104C92.3119 41.0013 93.0933 33.0026 90.1292 26.0672C86.0415 16.5926 75.9754 11.3202 66.0011 13.4296C61.19 14.4842 56.8766 17.1723 53.7726 21.0505C50.7258 24.8845 49.0695 29.6651 49.081 34.5913ZM65.6084 24.5006C63.9834 25.1525 62.6153 26.3893 61.7339 28.0035C62.8584 26.7448 64.2989 25.8698 65.8778 25.4864C67.3473 25.1245 68.889 25.3769 70.1936 26.1931C70.448 26.326 70.6942 26.4764 70.9307 26.6434C70.9053 26.6894 70.8774 26.7336 70.847 26.7759C70.2656 27.6221 69.8857 28.61 69.7408 29.6526C69.6305 30.6713 69.7065 31.7035 69.9643 32.6905C70.1525 33.5047 70.4005 34.2586 70.642 34.9924C70.68 35.108 70.7178 35.2231 70.7553 35.3378C71.8328 38.4377 71.7984 41.9034 70.2566 44.7925C68.7149 47.6816 65.7173 49.3989 62.5764 50.5273C64.266 50.4164 65.9245 49.9863 67.4769 49.2564C68.2731 48.8679 69.0251 48.3811 69.7179 47.8056C70.4115 47.2018 71.0282 46.5013 71.552 45.7225C72.6119 44.13 73.2483 42.2538 73.3918 40.2977C73.4942 38.3679 73.2329 36.4358 72.6238 34.6186L72.6001 34.5513L72.6001 34.5511C72.0239 32.9079 71.4736 31.3381 71.6093 29.9192C71.6749 29.1786 71.9093 28.4671 72.2913 27.8485C72.4757 27.5572 72.6025 27.228 72.6639 26.8813C72.7514 26.3551 72.58 25.8175 72.2111 25.4616C71.9841 25.2598 71.7287 25.0986 71.4545 24.9842L71.1851 24.8664L70.9158 24.7362C69.2488 23.8851 67.3343 23.8001 65.6084 24.5006ZM71.0492 26.7291C71.0584 26.7477 71.0661 26.756 71.0705 26.7449L71.0492 26.7291ZM69.283 59.8273V57.2632C66.0102 57.2754 62.922 58.7871 60.8969 61.3684C59.3692 63.2578 58.5486 65.6246 58.5775 68.0579H60.7561C61.0712 68.0647 61.1717 67.9503 61.1717 67.6474C61.3244 63.9934 63.9039 60.8985 67.4596 60.1032C67.878 60.0041 68.3062 59.9513 68.7351 59.8985C68.9179 59.8759 69.1007 59.8534 69.283 59.8273ZM0 80.0387C2.52784 79.8821 4.83151 78.5331 6.20796 76.4033C7.65957 78.6994 10.1832 80.0915 12.8963 80.0928C15.6093 80.094 18.1342 78.7042 19.5879 76.4095C20.9606 78.5378 23.2647 79.8821 25.79 80.028C28.3152 80.1739 30.7583 79.1038 32.3661 77.1476C33.2658 78.7702 34.9106 79.8399 36.7563 80.0026C38.602 80.1653 40.408 79.3999 41.5768 77.9596C42.7464 79.3993 44.5531 80.1637 46.3988 79.9998C48.2446 79.8358 49.8888 78.7649 50.7874 77.1415C50.8285 77.1867 50.8661 77.2293 50.9019 77.2697L50.9021 77.2699C50.9733 77.3503 51.0373 77.4226 51.1067 77.4921C52.4099 78.9439 54.2178 79.8417 56.1602 80.0018C58.3776 80.215 60.5809 79.4741 62.2208 77.9639C63.8607 76.4537 64.7827 74.3165 64.7568 72.0851V67.2318C64.7728 65.2648 66.0924 63.5483 67.9867 63.0304C68.2287 62.9636 68.4821 62.9251 68.7391 62.8861C68.8603 62.8677 68.9823 62.8491 69.1042 62.8275V60.4654C68.9816 60.4773 68.8601 60.486 68.7402 60.4946C68.488 60.5126 68.2423 60.5302 68.0051 60.5761C64.7165 61.1285 62.3223 64.0024 62.3682 67.3425V71.9806C62.4346 74.9823 60.0752 77.4774 57.0796 77.5736C54.084 77.6697 51.57 75.331 51.4444 72.3312V68.8311H48.9882V69.3417V74.3549C48.9912 74.734 48.9374 75.1114 48.8286 75.4745C48.3489 76.9202 46.8983 77.8087 45.3951 77.5775C43.8919 77.3463 42.7742 76.0628 42.7496 74.5395V69.3478V68.825H40.3241V69.3232V74.5149C40.3021 76.2441 38.8849 77.628 37.1587 77.6059C35.4326 77.5838 34.0511 76.1641 34.0732 74.4349V69.3294V68.825H31.6661V69.3232V72.2758C31.6659 72.6697 31.6185 73.062 31.5249 73.4446C31.1502 76.4494 28.4147 78.581 25.4152 78.2057C22.4156 77.8303 20.2878 75.09 20.6625 72.0851V69.2617V68.8065H18.3046V71.9252C18.3065 72.2606 18.284 72.5957 18.237 72.9279C17.852 75.7859 15.3176 77.8532 12.4457 77.6517C9.57391 77.4501 7.35194 75.049 7.3685 72.1651V69.2555V68.8003H5.00444V69.2924V72.1159C5.02626 74.7064 3.23257 76.9576 0.706148 77.5106C0.545939 77.5486 0.379941 77.5779 0.218091 77.6065H0.218086H0.218079H0.21807H0.218058H0.218042H0.21802H0.218008H0.217997H0.217984H0.217969H0.217956H0.217944H0.217933H0.217922H0.217912H0.217901H0.217892H0.217884H0.217878H0.217871H0.217866H0.217861H0.217855H0.217848H0.217841H0.217833H0.217827H0.21782H0.217813H0.217806H0.217799H0.217791C0.144017 77.6195 0.0711065 77.6324 0 77.6459V80.0387ZM10.7259 68.3162C9.65262 68.3271 8.7731 67.4599 8.75984 66.3778C8.74659 65.2957 9.6046 64.4069 10.6779 64.3911C11.7511 64.3752 12.6346 65.2382 12.6529 66.3202C12.6533 67.4021 11.7987 68.2874 10.7259 68.3162ZM13.6262 66.3536C13.6262 67.3932 14.4302 68.2525 15.4595 68.313C16.1808 68.3554 16.866 67.9915 17.2394 67.3678C17.6127 66.744 17.6127 65.9631 17.2394 65.3394C16.866 64.7157 16.1808 64.3518 15.4595 64.3942C14.4302 64.4547 13.6262 65.314 13.6262 66.3536ZM136.203 73.4741L136.202 73.4765C136.138 73.7671 136.075 74.0569 136 74.3431C134.947 78.1267 131.297 80.5483 127.444 80.0208C123.59 79.4933 120.709 76.1778 120.689 72.2473V57.9392V57.5213H123.055V58.0191V72.2841C123.065 75.3085 125.498 77.752 128.491 77.7419C131.483 77.7317 133.9 75.2717 133.89 72.2473V69.4262V68.8915H136.262V73.206C136.242 73.2946 136.223 73.3832 136.203 73.4717L136.203 73.4741ZM84.1978 76.8763C82.3369 79.4436 79.1075 80.6256 76.0315 79.8651C72.9556 79.1046 70.6469 76.5534 70.1936 73.4139C70.128 73.0317 70.0892 72.6454 70.0775 72.2578V57.925V57.5213H72.4299V58.0412V72.1966C72.4277 73.669 73.0206 75.0797 74.0737 76.1075C75.1268 77.1353 76.5504 77.6929 78.0206 77.6532C80.7135 77.6179 82.946 75.5543 83.1957 72.8695C83.3904 69.8273 85.5609 67.2759 88.5298 66.5993C90.3828 66.1945 92.3204 66.5873 93.8703 67.6819C95.4201 68.7764 96.4397 70.4721 96.6805 72.3556C96.9188 74.6007 97.9392 76.2646 100.017 77.1699C101.68 77.8876 103.591 77.7261 105.111 76.7393C106.63 75.7525 107.557 74.071 107.581 72.2578V69.4071V68.8933H109.921C109.944 68.9502 109.961 69.0097 109.97 69.0707C109.97 69.6791 109.975 70.0886 109.978 70.4151C109.987 71.2047 109.991 71.5089 109.909 72.9674C109.613 76.1679 107.39 78.8608 104.306 79.7553C101.223 80.6497 97.9065 79.5634 95.9473 77.017L95.8373 76.8824L95.8316 76.8785L95.8246 76.874L95.8174 76.8696L95.8094 76.8652C95.7995 76.8598 95.7892 76.855 95.7787 76.8509C95.7738 76.8491 95.769 76.8473 95.764 76.8457C94.5149 78.8341 92.3355 80.0433 89.9893 80.0495C87.6431 80.0557 85.4573 78.8581 84.1978 76.8763ZM94.3465 73.2732C94.3465 71.5011 93.28 69.9037 91.6445 69.2261C90.009 68.5485 88.1268 68.9244 86.8761 70.1783C85.6255 71.4322 85.2527 73.3171 85.9317 74.9536C86.6108 76.5901 88.2079 77.6557 89.9778 77.6532C91.1385 77.6565 92.2526 77.1959 93.0727 76.3736C93.8929 75.5513 94.3514 74.4353 94.3465 73.2732ZM115.255 69.2977H117.705C117.729 69.3341 117.747 69.3741 117.756 69.4159C117.756 69.9968 117.761 70.397 117.765 70.7186V70.7187C117.774 71.5321 117.778 71.8429 117.686 73.3037C117.346 76.6686 114.606 79.4052 111 79.9805C110.784 80.0118 110.573 80.0328 110.346 80.0554L110.345 80.0554C110.23 80.0669 110.11 80.0788 109.983 80.0928V77.7943C110.264 77.747 110.546 77.6998 110.821 77.6407C113.396 77.1184 115.235 75.0176 115.248 72.5829V69.7881L115.255 69.2977ZM129.449 66.3205C129.431 67.3992 130.279 68.2905 131.349 68.3163C132.429 68.3167 133.313 67.4491 133.342 66.36C133.345 65.2812 132.485 64.4018 131.415 64.3909C130.345 64.3801 129.467 65.2419 129.449 66.3205ZM101.223 66.36C101.22 65.2812 102.08 64.4018 103.15 64.3909C104.22 64.3801 105.098 65.2419 105.116 66.3205C105.134 67.3992 104.286 68.2905 103.216 68.3163C102.136 68.3167 101.252 67.4491 101.223 66.36ZM124.582 66.3491C124.58 67.4322 125.448 68.3126 126.522 68.3163C127.59 68.2951 128.451 67.4297 128.475 66.3536C128.475 65.2705 127.605 64.3921 126.531 64.3908C125.457 64.3896 124.585 65.266 124.582 66.3491ZM10.7063 92.8254C10.7099 90.6704 12.6814 88.9251 15.1122 88.9251C17.5241 88.9472 19.4661 90.687 19.466 92.8254V99.7202H18.1644V95.5948H12.0079V99.7144H10.7063V92.8254ZM12.0339 92.8773V94.4697H18.1904V92.8773C18.1904 91.3701 16.8122 90.1483 15.1122 90.1483C13.4121 90.1483 12.0339 91.3701 12.0339 92.8773ZM44.3176 88.9251C43.148 88.9236 42.0257 89.3346 41.198 90.0677C40.3703 90.8008 39.9053 91.7957 39.9053 92.8333V99.7201H41.2069V95.5984H47.3634V99.7201H48.665V92.8333C48.6652 90.695 46.728 88.9535 44.3176 88.9251ZM41.2329 94.4438V92.839C41.2329 91.8635 41.8196 90.9621 42.772 90.4743C43.7244 89.9866 44.8979 89.9866 45.8503 90.4743C46.8027 90.9621 47.3894 91.8635 47.3894 92.839V94.4438H41.2329ZM62.2911 92.8275C62.2947 90.6713 64.2663 88.9251 66.697 88.9251C69.1089 88.9472 71.051 90.6879 71.0508 92.8275V99.7202H69.7493V95.5984H63.5927V99.7202H62.2911V92.8275ZM63.5146 92.839V94.4438H69.6712V92.839C69.6712 91.331 68.293 90.1085 66.5929 90.1085C64.8928 90.1085 63.5146 91.331 63.5146 92.839ZM28.2254 92.815C28.2217 90.6657 26.1724 88.9251 23.6457 88.9251H20.4393V99.6856H21.826V96.7279H23.6457H24.1125L26.5613 99.7202H28.2254L25.5196 96.4057C27.1813 95.7736 28.244 94.3633 28.2254 92.815ZM21.826 95.5368V90.099H23.639C25.3471 90.1658 26.6916 91.3633 26.6916 92.8179C26.6916 94.2724 25.3471 95.4699 23.639 95.5368H21.826ZM113.57 90.1832H116.796V88.9251H109.01V90.1832H112.191V99.7202H113.57V90.1832ZM123.168 88.9252C121.996 88.9206 120.87 89.3303 120.04 90.0637C119.209 90.7971 118.742 91.7938 118.743 92.8333V99.7202H120.044V95.5984H126.201V99.7202H127.502V92.8333C127.503 90.6994 125.573 88.9598 123.168 88.9252ZM120.09 94.4439V92.8391C120.09 91.3311 121.468 90.1086 123.168 90.1086C124.868 90.1086 126.246 91.3311 126.246 92.8391V94.4439H120.09ZM134.924 90.0664C135.782 90.7972 136.264 91.7881 136.262 92.8207C136.272 94.3736 135.198 95.7839 133.526 96.4114L136.235 99.7202H134.576L132.118 96.7279H131.658H129.83V99.6856H128.475V88.9251H131.685C132.9 88.9251 134.065 89.3357 134.924 90.0664ZM129.857 90.099V95.5425H131.671C133.44 95.5425 134.874 94.3239 134.874 92.8207C134.874 91.3176 133.44 90.099 131.671 90.099H129.857ZM93.9234 88.9251C90.9669 88.9251 88.5702 91.3416 88.5702 94.3226C88.5702 97.3036 90.9669 99.7202 93.9234 99.7202C96.8798 99.7202 99.2765 97.3036 99.2765 94.3226C99.2765 91.3416 96.8798 88.9251 93.9234 88.9251ZM93.9234 98.4563C91.6592 98.4563 89.8237 96.6056 89.8237 94.3226C89.8237 92.0397 91.6592 90.189 93.9234 90.189C96.1876 90.189 98.023 92.0397 98.023 94.3226C98.0276 95.4225 97.5979 96.479 96.8287 97.2589C96.0596 98.0388 95.0142 98.4779 93.9234 98.4795V98.4563ZM81.0501 84.0182C77.0388 84.0591 73.5284 86.7181 72.4112 90.5621C71.294 94.406 72.8342 98.5261 76.2014 100.702H86.6503V93.0946H81.0925V95.0537H84.6866V99.341C82.0681 100.808 78.8113 100.497 76.5199 98.56C74.2285 96.6232 73.3855 93.4692 74.406 90.6512C75.4265 87.8332 78.0955 85.9452 81.0986 85.9169H85.7776V84.0182H81.0501ZM0 84.0182H15.5728V85.9239H8.83845V100.702H6.72831V85.9239H0V84.0182ZM76.8906 84.0182H16.5461V85.981H73.6598C74.595 85.1101 75.6943 84.4423 76.8906 84.0182ZM136.262 84.0182H86.6236V85.981H136.262V84.0182ZM59.0861 90.9521L55.2053 97.0909H54.7775L50.7603 90.9521V99.7202H49.6383V88.9251H50.7045L55.0441 94.977L59.2225 88.9251H60.3446V99.7202H59.1047L59.0861 90.9521ZM30.5119 99.7202L30.4715 91.7259L36.6121 99.6972H37.9587V88.9423H36.6121V97.3276L29.9733 88.9251H29.199V99.7202H30.5119ZM106.747 96.9033C106.763 96.5262 106.625 96.1581 106.362 95.8781C106.078 95.598 105.751 95.3616 105.393 95.1772C104.983 94.9624 104.561 94.769 104.129 94.5979C103.686 94.4248 103.262 94.2074 102.866 93.9491C102.484 93.6984 102.155 93.3799 101.897 93.0108C101.623 92.5837 101.489 92.0872 101.512 91.5858C101.478 90.8435 101.805 90.1283 102.396 89.6511C103.117 89.1311 104.007 88.8763 104.906 88.9328C105.48 88.9295 106.054 88.974 106.621 89.066C107.036 89.1281 107.44 89.243 107.824 89.4078L107.439 90.5142C107.103 90.3691 106.752 90.2604 106.392 90.1898C105.882 90.0822 105.361 90.0317 104.839 90.0392C104.291 90.0003 103.747 90.157 103.311 90.4794C103.01 90.7256 102.827 91.0792 102.803 91.4585C102.779 91.8378 102.917 92.2101 103.185 92.4894C103.471 92.764 103.797 92.9962 104.154 93.1787C104.539 93.3873 104.96 93.5842 105.417 93.7869C105.858 93.9785 106.279 94.2092 106.675 94.4763C107.057 94.7312 107.386 95.0535 107.643 95.4262C107.916 95.8347 108.053 96.3138 108.035 96.7991C108.04 97.2128 107.956 97.6231 107.788 98.0039C107.621 98.3616 107.372 98.6784 107.06 98.9307C106.712 99.1933 106.316 99.3899 105.892 99.51C105.391 99.6558 104.87 99.7261 104.346 99.7185C103.701 99.731 103.057 99.6727 102.427 99.5447C102.011 99.4631 101.607 99.3347 101.223 99.1624L101.656 98.0618C101.992 98.2229 102.345 98.3472 102.709 98.4326C103.22 98.5582 103.746 98.6185 104.274 98.6121C104.598 98.6159 104.921 98.5829 105.237 98.5136C105.514 98.4594 105.778 98.3531 106.013 98.2009C106.227 98.0605 106.404 97.8741 106.53 97.6564C106.668 97.4273 106.743 97.168 106.747 96.9033ZM64.6538 37.7695C64.1202 38.9956 63.4566 40.1678 62.673 41.2683C61.1314 43.4175 59.3307 45.3913 57.307 47.1504C56.2737 48.0512 55.1484 48.8537 53.9475 49.5459C54.4909 48.3223 55.1654 47.1541 55.9606 46.0593C57.5041 43.9116 59.307 41.9397 61.3331 40.1833C62.3515 39.2761 63.4639 38.4674 64.6538 37.7695Z" fill="#FF4343"/>
</g>
</svg>
