<svg width="71" height="67" viewBox="0 0 71 67" fill="none" xmlns="http://www.w3.org/2000/svg">
<g id="Combined Shape">
<path fill-rule="evenodd" clip-rule="evenodd" d="M0 33.5556C0 27.8189 1.44391 22.2624 4.19984 17.3113C2.30546 15.3817 1.20264 12.7222 1.29893 9.91261C1.4775 4.70705 5.71382 0.441146 10.9436 0.200846C13.7389 0.0723447 16.3965 1.05816 18.4167 2.97689C20.4383 4.89679 21.5517 7.48441 21.5517 10.2635C21.5517 11.2169 21.4182 12.1454 21.1661 13.0286C22.1178 13.7388 22.7354 14.8744 22.7354 16.1515C22.7354 18.2979 20.9911 20.0443 18.8472 20.0443H14.6403L13.3293 21.6874C12.8647 22.2696 12.1697 22.6035 11.4225 22.6035C10.675 22.6035 9.98005 22.2696 9.5155 21.6874L8.20444 20.0443H5.25471C4.59351 21.4211 4.0358 22.841 3.58569 24.2953H10.7044C12.6724 24.2953 14.2735 25.8982 14.2735 27.8685C14.2735 29.8388 12.6724 31.4417 10.7044 31.4417H7.25251C6.39351 32.9757 4.7587 33.9468 2.98296 33.9468H2.19793C2.26737 39.583 3.83406 44.8639 6.51836 49.4095H9.08658C9.24202 49.4095 9.38988 49.4419 9.52383 49.5003C9.96496 44.7497 13.9032 40.9398 18.7226 40.7173C19.5162 40.6806 20.3154 40.7416 21.0979 40.8985C21.6931 41.018 22.078 41.5971 21.9587 42.1917C21.8395 42.7863 21.2602 43.1711 20.665 43.0523C20.0581 42.9306 19.4387 42.8832 18.8236 42.9116C14.9526 43.0902 11.8167 46.2632 11.6848 50.1352C11.5714 53.4542 13.6952 56.4916 16.8491 57.5216C17.0539 57.5886 17.2346 57.7142 17.3685 57.8829L18.2166 58.9506H20.145L20.9929 57.8827C21.1269 57.714 21.3077 57.5884 21.5124 57.5215C24.604 56.5118 26.6812 53.6491 26.6812 50.3979C26.6812 48.3013 25.8353 46.3566 24.2995 44.9225C23.8561 44.5083 23.8327 43.8134 24.2471 43.3703C24.6615 42.9274 25.3567 42.9037 25.8004 43.3179C27.5307 44.9336 28.6084 47.1384 28.8347 49.4748C28.9512 49.4326 29.077 49.4095 29.2081 49.4095H31.615C33.6787 49.4095 35.3575 51.0905 35.3575 53.1566C35.3575 55.2228 33.6785 56.9037 31.615 56.9037H27.8384C27.5843 59.2851 25.5654 61.1461 23.1204 61.1461H21.2073L21.0341 61.3642C20.8458 61.6014 20.6184 61.7963 20.3646 61.943C24.335 63.779 28.7525 64.8049 33.4055 64.8049C43.1364 64.8049 51.8407 60.3225 57.5692 53.3126H50.0725C47.9858 53.3126 46.2587 51.7407 46.0109 49.7175H45.2861C43.2443 49.7175 41.5833 48.0544 41.5833 46.0103C41.5833 43.9663 43.2443 42.3032 45.2861 42.3032H51.0985C51.7042 42.3032 52.195 42.7947 52.195 43.4009C52.195 44.0071 51.7042 44.4986 51.0985 44.4986H45.2861C44.4536 44.4986 43.7762 45.1768 43.7762 46.0103C43.7762 46.8439 44.4536 47.5221 45.2861 47.5221H46.4816C47.4145 47.5221 48.1732 48.2818 48.1732 49.2156C48.1732 50.2641 49.0252 51.1173 50.0725 51.1173H59.2093C60.6028 49.0713 61.7594 46.8519 62.6411 44.4986H55.771C55.1653 44.4986 54.6746 44.0071 54.6746 43.4009C54.6746 42.7947 55.1653 42.3032 55.771 42.3032H63.3714C63.9903 40.1815 64.391 37.9676 64.5456 35.6871C64.1007 35.9244 63.6354 36.1324 63.1517 36.3082L61.4596 38.4531C60.9782 39.0637 60.2576 39.4138 59.4829 39.4138C58.708 39.414 57.9874 39.0639 57.5056 38.4533L55.8134 36.308C52.1006 34.9543 49.4417 31.6303 48.8373 27.7759H43.9846C41.3969 27.7759 39.247 25.8274 38.9299 23.2725H34.559C32.378 23.2725 30.6034 21.4789 30.6034 19.2742C30.6034 17.0696 32.378 15.2759 34.559 15.2759H46.1266C46.728 15.2759 47.2153 15.7686 47.2153 16.3764C47.2153 16.9842 46.728 17.4769 46.1266 17.4769H34.559C33.5786 17.4769 32.781 18.2832 32.781 19.2742C32.781 20.2653 33.5785 21.0715 34.559 21.0715H39.3024C40.2475 21.0715 41.0244 21.8189 41.0711 22.7728C41.1485 24.344 42.4283 25.5749 43.9848 25.5749H48.7198C48.9907 20.0476 53.4637 15.5436 58.973 15.2876C61.0464 15.1915 63.085 15.6893 64.8698 16.7273C65.3947 17.0328 65.5742 17.7086 65.2706 18.2367C64.967 18.7649 64.2953 18.9453 63.7701 18.64C62.3502 17.8139 60.7281 17.418 59.0743 17.4947C54.6462 17.7005 51.0593 21.3544 50.9083 25.8131C50.7786 29.6351 53.2078 33.1327 56.8157 34.3189C57.0204 34.3862 57.2009 34.5126 57.3348 34.6823L59.2262 37.08C59.3117 37.1884 59.4237 37.2046 59.4827 37.2046C59.5417 37.2046 59.6536 37.1884 59.7391 37.08L61.6305 34.6823C61.7643 34.5126 61.945 34.3862 62.1496 34.3189C63.0533 34.0218 63.8813 33.5853 64.6132 33.0377C64.5997 32.248 64.5555 31.4441 64.4814 30.6407C64.4256 30.0371 64.8693 29.5024 65.4723 29.4467C66.0746 29.3903 66.609 29.8351 66.6647 30.4384C66.6758 30.558 66.6862 30.6777 66.696 30.7973C67.5684 29.4363 68.0622 27.8226 68.0622 26.1158C68.0622 24.5042 67.6172 22.932 66.7753 21.569C66.455 21.0507 66.6132 20.3695 67.1284 20.0476C67.6433 19.7257 68.3206 19.8845 68.6407 20.4028C69.6991 22.1162 70.2586 24.0918 70.2586 26.1155C70.2586 29.2148 68.9622 32.0701 66.8064 34.0748C66.6745 42.8139 63.2131 51.01 57.0262 57.2043C50.7167 63.5212 42.328 67 33.4052 67C24.4823 67 16.0936 63.5212 9.78419 57.2043C3.47488 50.8875 0 42.4889 0 33.5556ZM7.66944 15.8733C7.45453 16.1862 7.24574 16.5024 7.04307 16.8217C7.62811 17.2107 8.27112 17.5253 8.96078 17.7494C9.0381 17.7746 9.112 17.808 9.18127 17.8489H13.6638C13.7331 17.808 13.807 17.7746 13.8843 17.7494C15.693 17.1616 17.1729 15.9758 18.1331 14.4541H17.0234C16.4177 14.4541 15.927 13.9626 15.927 13.3564C15.927 12.7501 16.4177 12.2587 17.0234 12.2587H18.8472C18.9268 12.2587 19.0058 12.2611 19.0842 12.2658C19.253 11.6234 19.342 10.9518 19.342 10.2637C19.342 8.09102 18.4715 6.06781 16.8908 4.56668C15.4027 3.1536 13.4741 2.38772 11.4253 2.38772C11.299 2.38772 11.1726 2.39065 11.0454 2.39651C6.95821 2.58435 3.64715 5.91865 3.50777 9.98748C3.43939 11.9835 4.14454 13.8826 5.38446 15.3449C5.54056 15.1047 5.69994 14.8662 5.86256 14.6294C6.20566 14.1299 6.88807 14.0033 7.3873 14.3468C7.88623 14.6903 8.01254 15.3738 7.66944 15.8733ZM11.2468 20.3212L11.0258 20.0443H11.8192L11.5982 20.3212C11.5425 20.3911 11.472 20.4056 11.4226 20.4056C11.3731 20.4056 11.3025 20.391 11.2468 20.3212ZM18.8472 17.8489H18.0952C18.9629 17.0951 19.6927 16.2006 20.2547 15.2063C20.4364 15.4766 20.5426 15.8019 20.5426 16.1515C20.5426 17.0875 19.7821 17.8489 18.8472 17.8489ZM9.08658 51.6049C9.25142 51.6049 9.40774 51.5685 9.54798 51.5033C9.68626 52.6825 10.0407 53.8126 10.5764 54.8434C9.62796 53.8249 8.7466 52.7431 7.93945 51.6049H9.08658ZM24.0875 58.76C24.385 58.6377 24.6544 58.4606 24.8833 58.2414C24.6279 58.4263 24.3624 58.5995 24.0875 58.76ZM31.615 54.7083H27.8725C28.3596 53.7261 28.6827 52.6542 28.8136 51.5317C28.936 51.579 29.069 51.6049 29.2081 51.6049H31.615C32.4694 51.6049 33.1647 52.301 33.1647 53.1566C33.1647 54.0122 32.4694 54.7083 31.615 54.7083ZM53.8793 26.0518C53.8793 22.962 56.3931 20.4483 59.4828 20.4483C62.5726 20.4483 65.0862 22.962 65.0862 26.0518C65.0862 29.1416 62.5726 31.6552 59.4828 31.6552C56.3931 31.6552 53.8793 29.1416 53.8793 26.0518ZM56.1027 26.0519C56.1027 27.9157 57.619 29.4319 59.4828 29.4319C61.3465 29.4319 62.8628 27.9157 62.8628 26.0519C62.8628 24.1881 61.3465 22.6719 59.4828 22.6719C57.6189 22.6719 56.1027 24.1881 56.1027 26.0519ZM19.181 55.3621C16.4479 55.3621 14.2241 53.1385 14.2241 50.4052C14.2241 47.6719 16.4479 45.4483 19.181 45.4483C21.9142 45.4483 24.1379 47.6721 24.1379 50.4052C24.1379 53.1384 21.9142 55.3621 19.181 55.3621ZM19.1812 53.2012C20.7229 53.2012 21.9771 51.947 21.9771 50.4052C21.9771 48.8635 20.7229 47.6093 19.1812 47.6093C17.6394 47.6093 16.3852 48.8636 16.3852 50.4052C16.3852 51.9468 17.6394 53.2012 19.1812 53.2012ZM16.8103 10.1034C16.8103 12.9555 14.49 15.2759 11.6379 15.2759C8.7859 15.2759 6.46552 12.9557 6.46552 10.1034C6.46552 7.25146 8.7859 4.93108 11.6379 4.93108C14.49 4.93108 16.8103 7.25131 16.8103 10.1034ZM14.6299 10.1034C14.6299 8.45373 13.2877 7.11147 11.6379 7.11147C9.98802 7.11147 8.64592 8.45373 8.64592 10.1034C8.64592 11.7533 9.98802 13.0955 11.6379 13.0955C13.2877 13.0955 14.6299 11.7533 14.6299 10.1034ZM33.7818 2.3307C30.9833 2.3307 28.2042 2.69593 25.5215 3.4164C24.9375 3.57297 24.3371 3.23742 24.1773 2.66738C24.0173 2.09734 24.36 1.50832 24.9425 1.3519C27.8138 0.580761 30.7878 0.189697 33.7818 0.189697C40.3203 0.189697 46.6526 2.04425 52.0941 5.55283C52.5985 5.8781 52.738 6.54191 52.4057 7.03559C52.1954 7.34787 51.8468 7.51728 51.4912 7.51728C51.2845 7.51728 51.0757 7.46019 50.8903 7.34059C45.8073 4.06308 39.8912 2.3307 33.7818 2.3307ZM12.0808 27.8686C12.0808 27.1089 11.4634 26.4908 10.7046 26.4908V26.4911H2.99392C2.59717 28.2107 2.34558 29.9692 2.24427 31.7517H2.98296C4.0377 31.7517 5.00225 31.1308 5.44037 30.1703L5.56901 29.8881C5.74722 29.4972 6.13695 29.2465 6.56631 29.2465H10.7046C11.4634 29.2465 12.0808 28.6284 12.0808 27.8686Z" fill="url(#paint0_linear)" style="mix-blend-mode:multiply"/>
</g>
<defs>
<linearGradient id="paint0_linear" x1="88.2388" y1="52.0157" x2="40.9068" y2="-11.9417" gradientUnits="userSpaceOnUse">
<stop stop-color="#011F43"/>
<stop offset="0.470771" stop-color="#793043"/>
<stop offset="1" stop-color="#FF4343"/>
</linearGradient>
</defs>
</svg>
