<svg width="85" height="65" viewBox="0 0 85 65" fill="none" xmlns="http://www.w3.org/2000/svg">
<path d="M65.0999 20.3C64.5999 20.3 64.0999 20.6 64.0999 21.2L63.5999 23.7C63.2999 25.1 62.9999 26.5 62.7999 27.9L62.5999 29L62.2999 27.9C61.8999 26.7 61.4999 25.4 61.0999 24.2C60.7999 23.2 60.4999 22.1 60.0999 21.1C59.9999 20.6 59.4999 20.3 58.9999 20.4C58.5999 20.4 58.2999 20.7 58.1999 21.1C57.8999 22.1 57.5999 23.1 57.2999 24.1C56.8999 25.4 56.4999 26.6 56.0999 27.9L55.6999 28.8L55.4999 27.8C55.1999 26.6 54.9999 25.3 54.6999 24.1C54.5999 23.4 54.3999 22.7 54.2999 22C54.2999 21.9 54.2999 21.8 54.1999 21.6C54.0999 20.9 53.9999 20.5 53.4999 20.3C53.3999 20.2 53.2999 20.2 53.0999 20.2C52.8999 20.2 52.5999 20.3 52.4999 20.4C52.2999 20.6 52.0999 20.9 52.1999 21.3C52.5999 23.2 52.8999 25.1 53.2999 27C53.5999 28.6 53.8999 30.2 54.2999 31.8C54.3999 32.3 54.6999 32.7 55.0999 32.9C55.3999 33 55.6999 33 56.0999 32.9C56.3999 32.8 56.5999 32.5 56.6999 32.3C57.0999 31.2 57.3999 30.1 57.7999 28.9C58.0999 27.8 58.4999 26.6 58.8999 25.5L58.9999 25.3L59.4999 25.2L59.5999 25.4C59.8999 26.5 60.2999 27.5 60.5999 28.6C60.9999 29.8 61.2999 31 61.6999 32.2C61.7999 32.6 62.0999 32.8 62.4999 32.9C62.9999 33 63.3999 32.8 63.6999 32.5C63.8999 32.3 63.8999 32 63.9999 31.7V31.6C64.2999 30 64.5999 28.5 64.8999 26.9C65.2999 25 65.6999 23.1 65.9999 21.3C66.0999 21 65.9999 20.8 65.7999 20.5C65.5999 20.5 65.2999 20.3 65.0999 20.3Z" fill="url(#paint0_linear)"/>
<path d="M48.5998 20.3C48.2998 20.2 48.0998 20.3 47.7998 20.4C47.5998 20.5 47.3998 20.8 47.3998 21C47.1998 22 46.9998 22.9 46.7998 23.9C46.5998 25.2 46.2998 26.5 45.9998 27.8L45.6998 28.8L45.3998 27.8C44.9998 26.5 44.5998 25.2 44.1998 24C43.8998 23 43.5998 22 43.2998 21.1C43.1998 20.6 42.6998 20.3 42.1998 20.4C41.7998 20.4 41.4998 20.8 41.3998 21.1C41.0998 22.1 40.7998 23 40.4998 24C40.0998 25.3 39.6998 26.6 39.1998 27.9L38.7998 28.9L38.5998 27.9C38.2998 26.6 38.0998 25.4 37.7998 24.1C37.5998 23.1 37.3998 22.2 37.1998 21.2C37.1998 21 36.9998 20.7 36.7998 20.6C36.5998 20.5 36.2998 20.4 36.0998 20.5C35.8998 20.6 35.5998 20.7 35.4998 20.9C35.3998 21.1 35.2998 21.4 35.3998 21.6C35.8998 24.1 36.3998 26.6 36.8998 29.1L37.4998 32.2C37.5998 32.6 37.7998 32.9 38.1998 33.1C38.5998 33.3 38.9998 33.3 39.2998 33.1C39.6998 32.8 39.8998 32.3 39.9998 31.8C40.0998 31.6 40.0998 31.4 40.1998 31.2C40.3998 30.5 40.5998 29.8 40.7998 29.1C41.0998 28 41.4998 26.8 41.8998 25.6L42.1998 24.8L42.4998 25.6C42.8998 26.9 43.2998 28.2 43.6998 29.5C43.9998 30.4 44.2998 31.4 44.5998 32.3C44.6998 32.6 44.7998 32.8 44.9998 33C45.2998 33.3 45.7998 33.3 46.1998 33.2C46.5998 33.1 46.7998 32.8 46.8998 32.4C47.4998 29.7 47.9998 27 48.4998 24.2L48.9998 21.7C49.0998 21.4 48.9998 21.2 48.8998 20.9C48.9998 20.6 48.7998 20.4 48.5998 20.3Z" fill="url(#paint1_linear)"/>
<path d="M72.5998 7.49995C72.5998 11.8 72.5998 16 72.5998 20.3C72.5998 25 72.5998 29.7 72.5998 34.3C72.4998 34.8 72.7998 35.4 73.3998 35.5C73.6998 35.6 73.9998 35.5 74.1998 35.3C74.3998 35.1 74.5998 34.7999 74.4998 34.5V32.1C74.4998 23.5 74.4998 14.8 74.4998 6.19995C74.4998 5.89995 74.3998 5.69995 74.1998 5.49995C73.9998 5.29995 73.6998 5.19995 73.4998 5.19995C61.4998 5.19995 49.5998 5.19995 37.6998 5.19995H12.3998C12.2998 5.19995 12.1998 5.19995 11.9998 5.19995C11.8998 5.19995 11.7998 5.19995 11.6998 5.19995C11.4998 5.19995 11.2998 5.19995 11.0998 5.19995C10.6998 5.39995 10.2998 5.79995 10.3998 6.29995C10.3998 14.6 10.3998 22.7999 10.3998 31.1V47.6C10.3998 48 10.4998 48.4 10.7998 48.5C11.0998 48.7 11.4998 48.7 11.8998 48.7C11.9998 48.7 12.1998 48.7 12.2998 48.7C21.5998 48.7 30.9998 48.7 40.2998 48.7C51.3998 48.7 62.4998 48.7 73.4998 48.7C73.7998 48.7 73.9998 48.6 74.1998 48.4C74.3998 48.2 74.4998 48 74.4998 47.7C74.4998 45.9 74.4998 44.0999 74.4998 42.2999V40.1C74.4998 39.8 74.3998 39.6 74.2998 39.4C74.0998 39.2 73.8998 39.1 73.6998 39.1C73.4998 39.1 73.1998 39.2 72.9998 39.2999C72.7998 39.5 72.6998 39.7 72.6998 39.9C72.6998 41.2 72.6998 42.6 72.6998 43.9C72.6998 44.7 72.6998 45.5 72.6998 46.2999V46.6H72.3998C59.5998 46.6 46.6998 46.6 33.8998 46.6C26.7998 46.6 19.7998 46.6 12.6998 46.6H12.3998V46.2999C12.3998 38.5999 12.3998 30.9 12.3998 23.1C12.3998 17.8 12.3998 12.6 12.3998 7.29995V6.99995H36.1998C48.2998 6.99995 60.2998 6.99995 72.3998 6.99995H72.6998V7.49995H72.5998Z" fill="url(#paint2_linear)"/>
<path d="M31.9002 20.3001C31.6002 20.2001 31.4002 20.2001 31.1002 20.4001C30.9002 20.5001 30.7002 20.8001 30.7002 21.0001C30.5002 22.0001 30.3002 23.0001 30.1002 24.0001C29.9002 25.2001 29.6002 26.5001 29.3002 27.8001L29.1002 28.8001L28.8002 27.8001C28.4002 26.5001 28.0002 25.2001 27.6002 24.0001C27.3002 23.0001 27.0002 22.0001 26.7002 21.0001C26.6002 20.5001 26.0002 20.2001 25.5002 20.3001C25.1002 20.4001 24.9002 20.8001 24.8002 21.1001C24.5002 21.9001 24.3002 22.7001 24.0002 23.6001C23.6002 25.0001 23.1002 26.4001 22.7002 27.8001L22.4002 28.8001L22.1002 27.8001C21.8002 26.6001 21.6002 25.3001 21.3002 24.1001C21.1002 23.0001 20.9002 21.9001 20.6002 20.9001C20.5002 20.5001 19.9002 20.2001 19.5002 20.3001C19.3002 20.4001 19.0002 20.5001 18.9002 20.7001C18.8002 20.9001 18.7002 21.2001 18.8002 21.4001C19.2002 23.3001 19.5002 25.1001 19.9002 27.0001C20.2002 28.5001 20.5002 30.0001 20.8002 31.6001V31.8001C20.9002 32.2001 20.9002 32.5001 21.2002 32.8001C21.6002 33.3001 22.4002 33.3001 22.8002 32.9001C23.1002 32.7001 23.2002 32.3001 23.3002 32.0001V31.9001C23.6002 31.0001 23.9002 30.1001 24.1002 29.2001C24.4002 28.2001 24.7002 27.2001 25.0002 26.2001C25.1002 26.0001 25.1002 25.8001 25.3002 25.6001L25.6002 25.1001L25.8002 25.7001C26.5002 27.9001 27.1002 30.1001 27.8002 32.2001C27.9002 32.6001 28.0002 32.8001 28.2002 33.0001C28.5002 33.3001 29.0002 33.3001 29.4002 33.2001C29.8002 33.1001 30.0002 32.8001 30.1002 32.4001C30.6002 30.2001 31.0002 28.0001 31.4002 25.8001C31.7002 24.4001 31.9002 23.0001 32.2002 21.7001C32.3002 21.4001 32.2002 21.2001 32.1002 20.9001C32.3002 20.6001 32.2002 20.4001 31.9002 20.3001Z" fill="url(#paint3_linear)"/>
<path fill-rule="evenodd" clip-rule="evenodd" d="M81.4 51.9H84C84.3101 51.9 84.5601 52.2005 84.75 52.4288C84.8051 52.495 84.8551 52.555 84.9 52.6V60.9C84.8 62.7 83.1 64.1 81.4 64.1H24.1C23.8 64.1 23.5 64 23.3 63.8C23.1 63.6 23 63.4 23 63.1C23 62.9 23.1 62.7 23.3 62.5C23.5 62.3 23.7 62.2 24 62.2H24.1H47.8H81.1C81.5 62.3 82 62.1 82.3 61.8C82.7 61.5 82.8 61.1 82.8 60.7V56.9V54.1V53.8H56.2V54.1V54.7C56.2 55.5 56.2 56.2 55.9 56.9C55.4 58.1 54.1 59 52.8 59H40.4H31.9C30.6 59 29.2 58.2 28.7 56.9C28.4 56.2 28.4 55.5 28.4 54.7V54.1V53.8H1.8V54.1V57.8V60.6C1.8 61.1 2 61.5 2.3 61.8C2.7 62.2 3.1 62.3 3.5 62.3H10.4H18.4C18.7 62.2 19 62.4 19.2 62.6C19.4 62.8 19.5 63.1 19.4 63.4C19.3 63.8 18.9 64.1 18.4 64.1H16.8H3.4C1.7 64.1 0.1 62.7 0 61V52.7C0.1 52.3 0.4 51.9 0.9 51.9H3.6H4.9H5.1V51.6V25.5V3.4C5.2 1.7 6.7 0.1 8.5 0.1H25.4H38.5H38.9C39.3 0 39.6 0 39.9 0.1C40.2 0.2 40.4 0.4 40.5 0.6C40.6 0.8 40.7 1.1 40.5 1.3C40.4 1.7 40 2 39.5 2H22.5H8.7C8.3 2 7.9 2.1 7.6 2.5C7.2 2.8 7.1 3.2 7.1 3.6V51.6V51.9H7.4H59.9H77.7V51.6V28V3.6C77.8 3.2 77.6 2.8 77.2 2.3C76.9 2 76.5 1.9 76.1 1.9H46.1H45.8C45.2 1.9 44.7 1.9 44.4 1.5C44.2 1.2 44.3 0.8 44.4 0.5C44.5 0.3 44.8 0 45.2 0H64.8H76.2C77 0 77.9 0.4 78.6 1C79.3 1.7 79.7 2.5 79.7 3.4V26V51.6V51.9H80H81.4ZM54.4 55.9V54.7V54.1V53.8H54.1H30.7H30.5V54.1V54.8C30.5 54.8879 30.4984 54.9758 30.4969 55.0633C30.4859 55.6726 30.4753 56.2628 31 56.7C31.4 57.1 32 57.1 32.5 57.1H32.8H44.1H52.8H52.9C53.6 57.1 54.3 56.6 54.4 55.9Z" fill="url(#paint4_linear)"/>
<path fill-rule="evenodd" clip-rule="evenodd" d="M30.7167 54.8565C30.7238 54.6026 30.731 54.3466 30.7002 54.1C38.5002 54.1 46.3002 54.1 54.0002 54C54.0002 54.2038 54.0117 54.3962 54.0231 54.5848C54.0451 54.9513 54.0662 55.3038 54.0002 55.7C53.9002 56.3 53.3002 56.7 52.7002 56.7H32.7002C32.6199 56.7 32.5344 56.7026 32.4458 56.7053C31.983 56.7192 31.4359 56.7357 31.1002 56.4C30.6851 55.9849 30.7008 55.4263 30.7167 54.8565ZM52.9002 56.5C53.3002 56.5 53.7002 56.2 53.8002 55.8V54.8V54.5H31.0002V54.9C31.0002 54.9824 30.9975 55.0676 30.9947 55.1536C30.9808 55.5897 30.9661 56.0495 31.3002 56.3C31.6002 56.5 32.0002 56.5 32.4002 56.5H32.7002H44.0002H49.2002H52.9002Z" fill="white"/>
<path fill-rule="evenodd" clip-rule="evenodd" d="M30.6998 53.8H54.0998V53.9H54.2998V54.2V54.7C54.2998 54.8334 54.3109 54.9667 54.322 55.1C54.3442 55.3667 54.3665 55.6334 54.2998 55.9C54.1998 56.6 53.4998 57.1 52.7998 57.1H52.6998H43.9998H32.6998H32.3998C31.8998 57.1 31.2998 57.1 30.8998 56.7C30.3728 56.2609 30.3858 55.5902 30.3968 55.0269C30.3983 54.9489 30.3998 54.873 30.3998 54.8V54.1V53.8H30.6998ZM52.7998 56.8C53.3998 56.8 53.9998 56.4 54.0998 55.8C54.1498 55.55 54.1498 55.275 54.1498 55C54.1498 54.725 54.1498 54.45 54.1998 54.2H30.7998C30.8304 54.4141 30.8236 54.6563 30.8165 54.9064C30.8005 55.4743 30.7833 56.0835 31.1998 56.5C31.5355 56.8358 32.0826 56.8193 32.5454 56.8053C32.634 56.8026 32.7195 56.8 32.7998 56.8H52.7998Z" fill="white"/>
<defs>
<linearGradient id="paint0_linear" x1="46.7531" y1="-2.99466" x2="3.37613" y2="39.2901" gradientUnits="userSpaceOnUse">
<stop stop-color="#011F43"/>
<stop offset="0.4708" stop-color="#793043"/>
<stop offset="1" stop-color="#FF4343"/>
</linearGradient>
<linearGradient id="paint1_linear" x1="40.6067" y1="-11.8699" x2="-4.14229" y2="29.1429" gradientUnits="userSpaceOnUse">
<stop stop-color="#011F43"/>
<stop offset="0.4708" stop-color="#793043"/>
<stop offset="1" stop-color="#FF4343"/>
</linearGradient>
<linearGradient id="paint2_linear" x1="33.021" y1="-4.7862" x2="5.51555" y2="44.6994" gradientUnits="userSpaceOnUse">
<stop stop-color="#011F43"/>
<stop offset="0.4708" stop-color="#793043"/>
<stop offset="1" stop-color="#FF4343"/>
</linearGradient>
<linearGradient id="paint3_linear" x1="34.1622" y1="-20.4359" x2="-11.2891" y2="19.8612" gradientUnits="userSpaceOnUse">
<stop stop-color="#011F43"/>
<stop offset="0.4708" stop-color="#793043"/>
<stop offset="1" stop-color="#FF4343"/>
</linearGradient>
<linearGradient id="paint4_linear" x1="39.519" y1="-2.24494" x2="6.34713" y2="45.9079" gradientUnits="userSpaceOnUse">
<stop stop-color="#011F43"/>
<stop offset="0.4708" stop-color="#793043"/>
<stop offset="1" stop-color="#FF4343"/>
</linearGradient>
</defs>
</svg>
