<svg width="18" height="15" viewBox="0 0 18 15" fill="none" xmlns="http://www.w3.org/2000/svg">
<path id="Combined Shape" fill-rule="evenodd" clip-rule="evenodd" d="M6 1C6 0.447715 5.55228 0 5 0C4.44772 0 4 0.447715 4 1V9C4 9.55229 4.44772 10 5 10C5.55228 10 6 9.55228 6 9V1ZM9 3C9.55229 3 10 3.44772 10 4V13.0438C10 13.5961 9.55229 14.0438 9 14.0438C8.44771 14.0438 8 13.5961 8 13.0438V4C8 3.44771 8.44771 3 9 3ZM1 6.5C1.55228 6.5 2 6.94772 2 7.5V9.5C2 10.0523 1.55228 10.5 1 10.5C0.447715 10.5 0 10.0523 0 9.5V7.5C0 6.94772 0.447715 6.5 1 6.5ZM13 0C13.5523 0 14 0.447715 14 1V9C14 9.55228 13.5523 10 13 10C12.4477 10 12 9.55229 12 9V1C12 0.447715 12.4477 0 13 0ZM18 7.5C18 6.94772 17.5523 6.5 17 6.5C16.4477 6.5 16 6.94772 16 7.5V9.5C16 10.0523 16.4477 10.5 17 10.5C17.5523 10.5 18 10.0523 18 9.5V7.5Z" fill="#FF4343"/>
</svg>
