<svg width="67" height="52" viewBox="0 0 67 52" fill="none" xmlns="http://www.w3.org/2000/svg">
<path d="M57.6999 28.9001C58.2999 29.0001 58.8999 28.5001 58.8999 27.9001C58.8999 20.6001 58.8999 13.3001 58.8999 6.1001C58.8999 5.6001 58.3999 5.1001 57.8999 5.1001C41.8999 5.1001 25.7999 5.1001 9.7999 5.1001C9.4999 5.1001 9.0999 5.1001 8.7999 5.1001C8.1999 5.1001 7.8999 5.5001 7.8999 6.0001C7.8999 16.6001 7.8999 27.3001 7.8999 37.9001C7.8999 38.2001 7.9999 38.6001 8.2999 38.8001C8.5999 39.1001 9.1999 39.0001 9.5999 39.0001C25.6999 39.0001 41.7999 39.0001 57.8999 39.0001C58.3999 39.0001 58.8999 38.6001 58.8999 38.0001C58.8999 36.1001 58.8999 34.1001 58.8999 32.2001C58.8999 31.7001 58.4999 31.2001 57.9999 31.2001C57.4999 31.1001 56.8999 31.6001 56.8999 32.1001C56.8999 33.8001 56.8999 35.4001 56.8999 37.1001C41.1999 37.1001 25.4999 37.1001 9.8999 37.1001C9.8999 27.1001 9.8999 17.0001 9.8999 7.0001C25.5999 7.0001 41.2999 7.0001 56.9999 7.0001C56.9999 13.9001 56.9999 20.8001 56.9999 27.7001C56.8999 28.2001 57.1999 28.8001 57.6999 28.9001Z" fill="#827F7F"/>
<path fill-rule="evenodd" clip-rule="evenodd" d="M62.9 40.9H66C66.5 40.9 66.8 41.3 66.9 41.7V48.3C66.8 49.8 65.4 51.1 63.9 51H19C18.4 51.1 17.9 50.6 17.9 50C17.9 49.4 18.5 49 19 49H63.9C64.4 49.1 64.9 48.6 64.9 48V42.8H44.5C44.5 42.9608 44.504 43.1216 44.5081 43.2816C44.524 43.9176 44.5397 44.5407 44.3 45.1C43.9 46.2 42.8 46.9 41.7 46.9H25.3C24.1 46.9 23 46.2 22.5 45.1C22.2603 44.5407 22.276 43.9176 22.2919 43.2816C22.296 43.1216 22.3 42.9608 22.3 42.8H1.9V45.4V48C1.8 48.5 2.3 49 2.9 49H14.6C15.2 48.9 15.8 49.6 15.6 50.2C15.5 50.7 15.1 51 14.6 51H2.8C1.3 51 0 49.7 0 48.3V41.7C0.1 41.3 0.4 40.9 0.9 40.9H4V2.9C4 1.4 5.3 0 6.8 0C14.7 0 22.5 0 30.3 0.1C30.3935 0.1 30.4968 0.090282 30.6067 0.0799343C30.8494 0.0570886 31.1247 0.0311737 31.4 0.1C32 0.2 32.3 0.8 32.1 1.3C32 1.7 31.5 2 31.1 2H6.9C6.4 1.9 5.9 2.4 5.9 3C5.9 15.6 5.9 28.2 6 40.8H60.9V2.9C61 2.4 60.5 1.9 59.9 1.9H36.3C36.2308 1.9 36.1577 1.90192 36.0824 1.90389C35.6138 1.91619 35.0585 1.93076 34.8 1.5C34.4 0.9 34.9 0 35.6 0H59.9C61.5 0 62.9 1.3 62.9 2.9V40.9ZM41.6 45C42 45 42.5 44.7 42.6 44.2C42.6 43.7 42.6 43.3 42.7 42.9H24.3C24.3 43.0317 24.2904 43.1683 24.2806 43.3065C24.2459 43.7977 24.2098 44.3098 24.6 44.7C24.9351 45.0351 25.3404 45.0193 25.6982 45.0053C25.7675 45.0026 25.8351 45 25.9 45H41.6Z" fill="#827F7F"/>
<path d="M39.3999 21.7C39.4999 21.7 39.5999 21.7 39.6999 21.7C39.9999 21.7 40.1999 21.7 40.3999 21.9C40.5999 22 40.5999 22.3 40.5999 22.5C40.4999 22.7 40.3999 22.9 40.1999 22.9C39.7999 22.9 39.3999 22.9 38.9999 22.9C38.6999 22.9 38.3999 22.9 38.0999 22.9C37.6999 22.9 37.3999 23.2 37.3999 23.6C37.3999 23.8 37.3999 24 37.5999 24.1C37.6999 24.2 37.8999 24.3 38.0999 24.3C38.2999 24.3 38.5999 24.3 38.7999 24.3C39.0999 24.3 39.3999 24.3 39.5999 24.3C39.6999 24.3 39.7999 24.3 39.9999 24.3C40.4999 24.3 40.9999 24.1 41.3999 23.8C42.0999 23.2 42.2999 22.1 41.8999 21.2C41.5999 20.6 40.8999 20.1 40.0999 20.1C39.9999 20.1 39.8999 20.1 39.7999 20.1C39.4999 20.1 39.1999 20.1 38.9999 19.9C38.7999 19.8 38.7999 19.5 38.7999 19.3C38.8999 19.1 38.9999 18.9 39.1999 18.9C39.5999 18.9 39.9999 18.9 40.3999 18.9C40.6999 18.9 40.9999 18.9 41.3999 18.9C41.6999 18.9 41.9999 18.6 42.0999 18.3C42.0999 18.1 42.0999 17.9 41.8999 17.7C41.7999 17.5 41.5999 17.5 41.3999 17.5C41.0999 17.5 40.8999 17.5 40.5999 17.5C40.0999 17.5 39.5999 17.5 38.9999 17.6C38.3999 17.7 37.8999 18.1 37.6999 18.7C37.2999 19.4 37.3999 20.3 37.8999 20.9C38.0999 21.4 38.6999 21.7 39.3999 21.7Z" fill="#827F7F"/>
<path fill-rule="evenodd" clip-rule="evenodd" d="M24.0998 10.8998H24.8998L42.5998 10.7998C43.5998 10.7998 44.5998 11.1998 45.1998 11.9998C45.6998 12.5998 45.9998 13.4998 45.9998 14.2998V19.5998V26.6998C46.0998 28.0998 45.0998 29.3998 43.7998 29.8998C43.2998 30.0998 42.7998 30.0998 42.3998 30.0998H42.1998H29.8998C29.5498 30.3998 29.2248 30.6748 28.8998 30.9498C28.5748 31.2248 28.2498 31.4998 27.8998 31.7998C27.5998 32.0498 27.2748 32.3248 26.9498 32.5998C26.6248 32.8748 26.2998 33.1498 25.9998 33.3998C25.7998 33.6998 25.4998 33.8998 25.0998 33.8998H24.8998C24.5998 33.8998 24.1998 33.4998 24.1998 33.0998V32.9998V30.1998C23.1998 30.1998 22.2998 29.6998 21.6998 28.9998C21.0998 28.3998 20.7998 27.5998 20.7998 26.6998V20.5998V14.2998C20.7998 13.3998 21.1998 12.4998 21.7998 11.8998C22.3998 11.2998 23.1998 10.8998 24.0998 10.8998ZM44.5998 21.3998V14.1998C44.5998 13.1998 43.6998 12.2998 42.6998 12.2998H33.4998H24.2998C23.2998 12.2998 22.2998 13.2998 22.2998 14.2998V23.2998V26.7998C22.1998 27.5998 22.7998 28.3998 23.5998 28.6998C23.8998 28.7998 24.1998 28.7998 24.5998 28.7998H24.8998C25.0998 28.7998 25.2998 28.8998 25.3998 28.9998C25.4998 29.0998 25.5998 29.2998 25.5998 29.4998V31.0998V31.9998C26.0998 31.4998 26.6998 30.9998 27.2998 30.4998C27.8998 29.8998 28.4998 29.3998 29.0998 28.8998C29.1998 28.7998 29.3998 28.6998 29.5998 28.6998H42.4998C43.0998 28.6998 43.5998 28.4998 43.9998 28.0998C44.3998 27.6998 44.5998 27.1998 44.5998 26.5998V21.3998Z" fill="#827F7F"/>
<path d="M32.5999 19.2001C32.2999 18.8001 32.0999 18.4001 31.7999 18.0001C31.6999 17.8001 31.4999 17.6001 31.2999 17.6001H31.1999H31.0999C30.6999 17.6001 30.3999 18.0001 30.3999 18.3001C30.3999 19.5001 30.3999 20.6001 30.3999 21.8001V23.4001C30.3999 23.8001 30.4999 24.1001 30.6999 24.2001C30.8999 24.3001 31.1999 24.4001 31.3999 24.2001C31.5999 24.1001 31.7999 23.9001 31.7999 23.6001C31.7999 22.9001 31.7999 22.2001 31.7999 21.5001C31.7999 21.2001 31.7999 20.9001 31.7999 20.6001L31.8999 20.7001C32.1999 21.1001 32.4999 21.6001 32.7999 22.0001C32.8999 22.2001 33.0999 22.3001 33.3999 22.3001C33.6999 22.3001 33.8999 22.2001 33.9999 22.0001C34.1999 21.7001 34.3999 21.3001 34.6999 21.0001C34.7999 20.9001 34.8999 20.7001 34.9999 20.6001C34.9999 21.5001 34.9999 22.5001 34.9999 23.4001C34.9999 23.6001 34.9999 23.8001 35.1999 24.0001C35.2999 24.2001 35.4999 24.2001 35.6999 24.3001C35.8999 24.3001 36.0999 24.2001 36.1999 24.1001C36.2999 24.0001 36.3999 23.8001 36.3999 23.5001C36.3999 22.2001 36.3999 20.9001 36.3999 19.6001V18.3001C36.3999 18.0001 36.2999 17.7001 35.9999 17.6001C35.6999 17.4001 35.2999 17.5001 35.0999 17.8001C34.6999 18.4001 34.3999 18.9001 33.9999 19.5001C33.7999 19.8001 33.5999 20.1001 33.3999 20.4001C33.0999 20.0001 32.7999 19.6001 32.5999 19.2001Z" fill="#827F7F"/>
<path d="M27.4002 20.2001C27.3002 20.2001 27.3002 20.2001 27.2002 20.2001C26.9002 20.2001 26.6002 20.2001 26.3002 20.0001C26.1002 19.8001 26.1002 19.6001 26.2002 19.4001C26.3002 19.2001 26.4002 19.1001 26.6002 19.0001C27.0002 19.0001 27.4002 19.0001 27.8002 19.0001C28.1002 19.0001 28.4002 19.0001 28.7002 19.0001C28.9002 19.0001 29.1002 18.9001 29.2002 18.8001C29.3002 18.7001 29.4002 18.5001 29.4002 18.3001C29.4002 18.1001 29.3002 17.9001 29.2002 17.8001C29.1002 17.7001 28.9002 17.6001 28.7002 17.6001H28.0002H26.6002C26.0002 17.6001 25.4002 18.0001 25.1002 18.5001C24.6002 19.2001 24.6002 20.3001 25.2002 20.9001C25.6002 21.4001 26.3002 21.7001 27.0002 21.7001C27.1002 21.7001 27.2002 21.7001 27.2002 21.7001C27.5002 21.7001 27.7002 21.7001 27.9002 21.8001C28.1002 21.9001 28.1002 22.2001 28.1002 22.4001C28.0002 22.6001 27.9002 22.8001 27.7002 22.8001C27.3002 22.8001 26.9002 22.8001 26.5002 22.8001C26.2002 22.8001 25.9002 22.8001 25.5002 22.8001C25.1002 22.8001 24.8002 23.2001 24.9002 23.5001C24.9002 23.7001 25.0002 23.9001 25.1002 24.0001C25.2002 24.1001 25.4002 24.2001 25.6002 24.2001C25.9002 24.2001 26.2002 24.2001 26.5002 24.2001C26.8002 24.2001 27.2002 24.2001 27.5002 24.2001C28.1002 24.2001 28.8002 23.9001 29.1002 23.4001C29.7002 22.7001 29.7002 21.6001 29.1002 20.9001C28.8002 20.5001 28.1002 20.2001 27.4002 20.2001Z" fill="#827F7F"/>
</svg>
