<svg width="137" height="44" viewBox="0 0 137 44" fill="none" xmlns="http://www.w3.org/2000/svg">
<path fill-rule="evenodd" clip-rule="evenodd" d="M69.3577 0.262695V2.82679C69.1755 2.85293 68.9926 2.87546 68.8099 2.89798L68.8098 2.89799C68.3809 2.95085 67.9527 3.00362 67.5344 3.10272C63.9786 3.898 61.3991 6.99294 61.2464 10.647C61.2464 10.9498 61.1459 11.0642 60.8308 11.0575H58.6522C58.6233 8.62411 59.4439 6.25738 60.9716 4.36794C62.9967 1.78667 66.0849 0.274913 69.3577 0.262695ZM6.28267 19.4029C4.90622 21.5326 2.60255 22.8817 0.074707 23.0383V20.6454C0.145145 20.6321 0.217354 20.6193 0.290418 20.6064L0.290721 20.6064L0.290984 20.6063L0.29161 20.6062L0.292157 20.6061L0.292633 20.606C0.454535 20.5774 0.620592 20.5481 0.780855 20.5101C3.30728 19.9571 5.10097 17.7059 5.07915 15.1154V12.292V11.7999H7.44321V12.2551V15.1646C7.42665 18.0486 9.64861 20.4497 12.5205 20.6512C15.3923 20.8528 17.9267 18.7855 18.3117 15.9274C18.3587 15.5953 18.3813 15.2602 18.3793 14.9247V11.806H20.7372V12.2612V15.0847C20.3625 18.0895 22.4903 20.8298 25.4899 21.2052C28.4895 21.5806 31.2249 19.449 31.5996 16.4441C31.6932 16.0616 31.7406 15.6692 31.7408 15.2754V12.3227V11.8245H34.1479V12.3289V17.4345C34.1258 19.1637 35.5073 20.5834 37.2334 20.6054C38.9596 20.6275 40.3768 19.2436 40.3988 17.5144V12.3227V11.8245H42.8243V12.3474V17.539C42.8489 19.0624 43.9666 20.3458 45.4698 20.577C46.973 20.8082 48.4236 19.9198 48.9033 18.474C49.0121 18.1109 49.0659 17.7336 49.0629 17.3545V12.3412V11.8306H51.5191V15.3307C51.6447 18.3305 54.1587 20.6693 57.1543 20.5731C60.1499 20.477 62.5093 17.9818 62.4429 14.9801V10.342C62.397 7.0019 64.7912 4.12801 68.0798 3.57563C68.317 3.52977 68.5627 3.51217 68.8149 3.49409C68.9349 3.4855 69.0563 3.4768 69.1789 3.46491V5.827C69.057 5.84868 68.935 5.8672 68.8138 5.8856C68.5568 5.92463 68.3034 5.9631 68.0614 6.02999C66.1671 6.54786 64.8475 8.26433 64.8315 10.2313V15.0847C64.8574 17.316 63.9355 19.4532 62.2955 20.9634C60.6556 22.4737 58.4523 23.2145 56.235 23.0014C54.2925 22.8413 52.4846 21.9434 51.1814 20.4916C51.1119 20.4221 51.0479 20.3497 50.9766 20.2693L50.9766 20.2693C50.9408 20.2288 50.9032 20.1863 50.8621 20.141C49.9635 21.7645 48.3193 22.8354 46.4736 22.9993C44.6278 23.1633 42.8211 22.3989 41.6515 20.9591C40.4827 22.3994 38.6767 23.1648 36.831 23.0021C34.9853 22.8394 33.3405 21.7698 32.4408 20.1472C30.833 22.1033 28.3899 23.1734 25.8647 23.0275C23.3395 22.8817 21.0353 21.5373 19.6626 19.409C18.2089 21.7038 15.684 23.0935 12.971 23.0923C10.2579 23.0911 7.73428 21.6989 6.28267 19.4029ZM8.83455 9.37737C8.84781 10.4595 9.72732 11.3266 10.8007 11.3158C11.8734 11.2869 12.728 10.4017 12.7276 9.31976C12.7093 8.23771 11.8258 7.37472 10.7526 7.3906C9.6793 7.40648 8.8213 8.29524 8.83455 9.37737ZM15.5342 11.3125C14.5049 11.252 13.7009 10.3927 13.7009 9.35312C13.7009 8.31351 14.5049 7.45423 15.5342 7.39372C16.2555 7.35133 16.9408 7.71524 17.3141 8.33895C17.6874 8.96267 17.6874 9.74358 17.3141 10.3673C16.9408 10.991 16.2555 11.3549 15.5342 11.3125ZM136.277 16.4761L136.277 16.474L136.278 16.4719C136.297 16.3832 136.317 16.2944 136.337 16.2056V11.891H133.965V12.4258V15.2468C133.975 18.2712 131.558 20.7312 128.565 20.7414C125.573 20.7516 123.139 18.3081 123.129 15.2837V1.01863V0.520798H120.764V0.938731V15.2468C120.784 19.1774 123.665 22.4929 127.518 23.0204C131.372 23.5478 135.022 21.1262 136.075 17.3426C136.149 17.0564 136.213 16.7667 136.277 16.4761ZM76.1062 22.8646C79.1822 23.6251 82.4116 22.4432 84.2725 19.8758C85.532 21.8576 87.7178 23.0552 90.064 23.049C92.4102 23.0428 94.5897 21.8337 95.8387 19.8453C95.8649 19.8538 95.8896 19.8661 95.912 19.882L96.022 20.0165C97.9812 22.5629 101.297 23.6493 104.381 22.7548C107.465 21.8604 109.687 19.1675 109.983 15.9669C110.066 14.5085 110.062 14.2043 110.053 13.4147C110.049 13.0882 110.045 12.6787 110.045 12.0702C110.036 12.0093 110.019 11.9497 109.996 11.8928H107.655V12.4067V15.2573C107.632 17.0705 106.705 18.752 105.186 19.7388C103.666 20.7256 101.755 20.8872 100.091 20.1695C98.0139 19.2641 96.9935 17.6002 96.7552 15.3552C96.5144 13.4717 95.4948 11.7759 93.945 10.6814C92.3951 9.58685 90.4575 9.19408 88.6045 9.59883C85.6356 10.2754 83.4651 12.8269 83.2704 15.869C83.0207 18.5538 80.7882 20.6174 78.0953 20.6527C76.6251 20.6924 75.2015 20.1349 74.1484 19.107C73.0953 18.0792 72.5024 16.6685 72.5046 15.1961V1.04077V0.520798H70.1523V0.924538V15.2573C70.1639 15.6449 70.2027 16.0313 70.2683 16.4135C70.7216 19.553 73.0303 22.1041 76.1062 22.8646ZM91.7192 12.2256C93.3547 12.9032 94.4212 14.5007 94.4212 16.2728C94.4261 17.4348 93.9676 18.5508 93.1474 19.3731C92.3273 20.1954 91.2132 20.656 90.0526 20.6527C88.2826 20.6552 86.6855 19.5896 86.0064 17.9531C85.3274 16.3167 85.7002 14.4318 86.9509 13.1778C88.2015 11.9239 90.0837 11.548 91.7192 12.2256ZM117.78 12.2972H115.329L115.323 12.7876V15.5824C115.31 18.0171 113.471 20.1179 110.896 20.6402C110.621 20.6993 110.339 20.7466 110.058 20.7938V23.0923C110.185 23.0784 110.305 23.0664 110.42 23.0549L110.42 23.0549L110.42 23.0549C110.648 23.0323 110.858 23.0114 111.075 22.98C114.681 22.4047 117.421 19.6681 117.761 16.3033C117.852 14.8425 117.849 14.5317 117.839 13.7183V13.7182C117.836 13.3965 117.831 12.9963 117.831 12.4154C117.821 12.3736 117.804 12.3337 117.78 12.2972ZM131.424 11.3159C130.354 11.2901 129.506 10.3988 129.524 9.32009C129.542 8.2414 130.42 7.37964 131.49 7.39049C132.559 7.40133 133.42 8.28071 133.417 9.35954C133.388 10.4486 132.504 11.3163 131.424 11.3159ZM103.225 7.39049C102.155 7.40133 101.294 8.28071 101.298 9.35954C101.327 10.4486 102.211 11.3163 103.291 11.3159C104.36 11.2901 105.209 10.3988 105.191 9.32009C105.173 8.2414 104.295 7.37964 103.225 7.39049ZM126.597 11.3159C125.523 11.3122 124.655 10.4318 124.657 9.34867C124.659 8.26555 125.532 7.38916 126.606 7.39039C127.68 7.39161 128.55 8.27 128.55 9.35312C128.525 10.4292 127.664 11.2946 126.597 11.3159ZM15.1869 31.9246C12.7561 31.9246 10.7846 33.6699 10.781 35.8249V42.7139H12.0826V38.5944H18.2391V42.7197H19.5407V35.8249C19.5408 33.6865 17.5988 31.9468 15.1869 31.9246ZM12.1086 37.4693V35.8769C12.1086 34.3696 13.4868 33.1478 15.1869 33.1478C16.887 33.1478 18.2651 34.3696 18.2651 35.8769V37.4693H12.1086ZM41.2727 33.0673C42.1004 32.3342 43.2227 31.9231 44.3924 31.9246C46.8028 31.9531 48.7399 33.6945 48.7397 35.8328V42.7197H47.4381V38.5979H41.2816V42.7197H39.98V35.8328C39.98 34.7953 40.4451 33.8004 41.2727 33.0673ZM41.3076 35.8386V37.4434H47.4641V35.8386C47.4641 34.863 46.8774 33.9616 45.925 33.4739C44.9726 32.9861 43.7991 32.9861 42.8467 33.4739C41.8943 33.9616 41.3076 34.863 41.3076 35.8386ZM66.7717 31.9246C64.341 31.9246 62.3694 33.6709 62.3659 35.827V42.7197H63.6674V38.5979H69.824V42.7197H71.1255V35.827C71.1257 33.6875 69.1836 31.9468 66.7717 31.9246ZM63.5893 37.4434V35.8386C63.5893 34.3305 64.9675 33.108 66.6676 33.108C68.3677 33.108 69.7459 34.3305 69.7459 35.8386V37.4434H63.5893ZM23.7205 31.9246C26.2471 31.9246 28.2964 33.6653 28.3001 35.8145C28.3187 37.3629 27.256 38.7731 25.5943 39.4052L28.3001 42.7197H26.636L24.1872 39.7275H23.7205H21.9008V42.6852H20.514V31.9246H23.7205ZM21.9008 33.0985V38.5363H23.7137C25.4218 38.4695 26.7663 37.272 26.7663 35.8174C26.7663 34.3629 25.4218 33.1654 23.7137 33.0985H21.9008ZM116.871 33.1827H113.644V42.7197H112.266V33.1827H109.084V31.9246H116.871V33.1827ZM120.115 33.0632C120.945 32.3298 122.071 31.9201 123.243 31.9247C125.648 31.9593 127.577 33.699 127.577 35.8328V42.7197H126.275V38.5979H120.119V42.7197H118.817V35.8328C118.817 34.7933 119.284 33.7966 120.115 33.0632ZM120.164 35.8386V37.4434H126.321V35.8386C126.321 34.3306 124.943 33.1081 123.243 33.1081C121.543 33.1081 120.164 34.3306 120.164 35.8386ZM136.336 35.8203C136.338 34.7876 135.857 33.7967 134.998 33.066C134.14 32.3352 132.975 31.9246 131.759 31.9246H128.55V42.6852H129.904V39.7275H131.732H132.193L134.651 42.7197H136.309L133.601 39.411C135.272 38.7834 136.347 37.3732 136.336 35.8203ZM129.931 38.5421V33.0985H131.746C133.515 33.0985 134.948 34.3171 134.948 35.8203C134.948 37.3235 133.515 38.5421 131.746 38.5421H129.931ZM88.6449 37.3222C88.6449 34.3412 91.0416 31.9246 93.9981 31.9246C96.9545 31.9246 99.3512 34.3412 99.3512 37.3222C99.3512 40.3031 96.9545 42.7197 93.9981 42.7197C91.0416 42.7197 88.6449 40.3031 88.6449 37.3222ZM89.8984 37.3222C89.8984 39.6051 91.7339 41.4558 93.9981 41.4558V41.479C95.0889 41.4775 96.1343 41.0383 96.9034 40.2584C97.6726 39.4785 98.1023 38.422 98.0977 37.3222C98.0977 35.0392 96.2623 33.1885 93.9981 33.1885C91.7339 33.1885 89.8984 35.0392 89.8984 37.3222ZM72.4859 33.5616C73.6031 29.7177 77.1135 27.0586 81.1248 27.0178H85.8523V28.9165H81.1733C78.1702 28.9448 75.5013 30.8328 74.4807 33.6508C73.4602 36.4688 74.3032 39.6227 76.5946 41.5596C78.886 43.4964 82.1429 43.8078 84.7613 42.3405V38.0533H81.1672V36.0941H86.725V43.7011H76.2761C72.9089 41.5257 71.3688 37.4056 72.4859 33.5616ZM15.6475 27.0178H0.074707V28.9234H6.80302V43.7011H8.91315V28.9234H15.6475V27.0178ZM16.6208 27.0178H76.9653C75.769 27.4418 74.6697 28.1096 73.7345 28.9805H16.6208V27.0178ZM86.6983 27.0178H136.337V28.9805H86.6983V27.0178ZM55.28 40.0904L59.1608 33.9516L59.1794 42.7197H60.4193V31.9246H59.2972L55.1188 37.9766L50.7793 31.9246H49.713V42.7197H50.8351V33.9516L54.8522 40.0904H55.28ZM30.5462 34.7255L30.5866 42.7197H29.2737V31.9246H30.048L36.6868 40.3272V31.9419H38.0334V42.6967H36.6868L30.5462 34.7255ZM106.437 38.8776C106.699 39.1577 106.838 39.5258 106.822 39.9029C106.818 40.1676 106.743 40.4269 106.605 40.6559C106.479 40.8736 106.302 41.0601 106.088 41.2004C105.853 41.3526 105.589 41.4589 105.311 41.5132C104.996 41.5824 104.672 41.6155 104.349 41.6117C103.821 41.6181 103.295 41.5577 102.784 41.4321C102.42 41.3468 102.067 41.2224 101.731 41.0614L101.298 42.162C101.682 42.3343 102.086 42.4626 102.501 42.5443C103.132 42.6723 103.776 42.7306 104.421 42.718C104.944 42.7257 105.466 42.6553 105.967 42.5095C106.391 42.3894 106.787 42.1928 107.135 41.9303C107.447 41.678 107.695 41.3612 107.863 41.0034C108.031 40.6227 108.115 40.2123 108.109 39.7986C108.127 39.3133 107.991 38.8343 107.718 38.4258C107.46 38.0531 107.132 37.7307 106.749 37.4758C106.353 37.2088 105.932 36.978 105.492 36.7865C105.035 36.5838 104.613 36.3868 104.228 36.1783C103.872 35.9958 103.545 35.7635 103.259 35.489C102.992 35.2097 102.854 34.8374 102.878 34.4581C102.902 34.0787 103.085 33.7252 103.386 33.479C103.822 33.1565 104.366 32.9998 104.914 33.0387C105.436 33.0312 105.957 33.0818 106.467 33.1893C106.827 33.2599 107.178 33.3687 107.514 33.5137L107.899 32.4073C107.515 32.2425 107.11 32.1276 106.695 32.0656C106.129 31.9736 105.555 31.929 104.98 31.9324C104.082 31.8758 103.192 32.1306 102.471 32.6506C101.88 33.1278 101.553 33.843 101.587 34.5853C101.564 35.0868 101.698 35.5832 101.972 36.0103C102.23 36.3795 102.559 36.6979 102.941 36.9487C103.337 37.2069 103.761 37.4243 104.204 37.5974C104.636 37.7686 105.058 37.9619 105.468 38.1767C105.826 38.3612 106.153 38.5976 106.437 38.8776Z" fill="#FF4343"/>
</svg>
