<svg width="150" height="37" viewBox="0 0 150 37" fill="none" xmlns="http://www.w3.org/2000/svg">
<g id="Combined Shape 2 Copy" opacity="0.795217">
<path id="Combined Shape" fill-rule="evenodd" clip-rule="evenodd" d="M55.9178 2.81519V0.745728C53.2763 0.755588 50.7838 1.97572 49.1494 4.05904C47.9165 5.584 47.2542 7.49416 47.2774 9.45812H49.0358C49.2901 9.46355 49.3712 9.37121 49.3712 9.12679C49.4944 6.17766 51.5764 3.67976 54.4462 3.03789C54.7838 2.95791 55.1294 2.91532 55.4756 2.87266C55.6231 2.85448 55.7707 2.83629 55.9178 2.81519ZM0 19.1277C2.0402 19.0013 3.89948 17.9125 5.0104 16.1936C6.18198 18.0468 8.21881 19.1703 10.4085 19.1713C12.5981 19.1723 14.636 18.0506 15.8093 16.1986C16.9171 17.9163 18.7768 19.0013 20.8149 19.1191C22.853 19.2368 24.8248 18.3731 26.1225 16.7943C26.8486 18.1039 28.1761 18.9672 29.6657 19.0986C31.1554 19.2299 32.613 18.6121 33.5563 17.4497C34.5003 18.6117 35.9585 19.2286 37.4482 19.0963C38.9379 18.964 40.2649 18.0996 40.9901 16.7894C41.0233 16.8259 41.0537 16.8602 41.0826 16.8929C41.1401 16.9578 41.1918 17.0162 41.2478 17.0724C42.2996 18.2441 43.7588 18.9687 45.3265 19.0979C47.1161 19.27 48.8944 18.672 50.218 17.4531C51.5415 16.2343 52.2856 14.5093 52.2648 12.7084V8.79132C52.2776 7.20378 53.3427 5.81844 54.8715 5.40047C55.0669 5.34648 55.2714 5.31543 55.4788 5.28393C55.5766 5.26908 55.6751 5.25413 55.7735 5.23664V3.33021C55.6745 3.33981 55.5765 3.34683 55.4797 3.35377C55.2761 3.36835 55.0779 3.38256 54.8864 3.41957C52.2322 3.86539 50.2999 6.18489 50.3369 8.88069V12.624C50.3905 15.0467 48.4862 17.0605 46.0685 17.1381C43.6508 17.2157 41.6218 15.3281 41.5204 12.907V10.0821H39.538V10.4942V14.5404C39.5405 14.8463 39.497 15.1509 39.4092 15.444C39.022 16.6108 37.8513 17.3279 36.6381 17.1413C35.4248 16.9547 34.5228 15.9188 34.5029 14.6893V10.4992V10.0772H32.5453V10.4793V14.6695C32.5275 16.0651 31.3837 17.182 29.9905 17.1642C28.5974 17.1464 27.4824 16.0006 27.5002 14.6049V10.4843V10.0772H25.5575V10.4793V12.8623C25.5573 13.1802 25.519 13.4969 25.4435 13.8056C25.1411 16.2308 22.9333 17.9512 20.5124 17.6483C18.0915 17.3453 16.3741 15.1336 16.6765 12.7084V10.4297V10.0623H14.7735V12.5794C14.7751 12.8501 14.7569 13.1205 14.719 13.3886C14.4082 15.6953 12.3627 17.3638 10.0449 17.2011C7.72703 17.0385 5.9337 15.1006 5.94706 12.773V10.4247V10.0573H4.03905V10.4545V12.7333C4.05666 14.824 2.60899 16.641 0.569927 17.0873C0.440579 17.1179 0.306555 17.1416 0.175884 17.1647C0.116305 17.1752 0.0574235 17.1856 0 17.1965V19.1277ZM8.65683 9.66658C7.79056 9.67533 7.0807 8.97548 7.07 8.10211C7.05931 7.22874 7.7518 6.51143 8.61802 6.49861C9.48425 6.48579 10.1973 7.1823 10.2121 8.05562C10.2124 8.92882 9.52261 9.64329 8.65683 9.66658ZM10.9976 8.08255C10.9976 8.92161 11.6465 9.61513 12.4772 9.66396C13.0594 9.69818 13.6125 9.40447 13.9138 8.90107C14.2151 8.39768 14.2151 7.76742 13.9138 7.26402C13.6125 6.76062 13.0594 6.46691 12.4772 6.50113C11.6465 6.54996 10.9976 7.24348 10.9976 8.08255ZM109.976 13.6131C109.96 13.686 109.944 13.7589 109.928 13.8318C109.876 14.0662 109.825 14.2999 109.765 14.5308C108.915 17.5845 105.969 19.539 102.859 19.1133C99.7485 18.6875 97.4234 16.0116 97.4073 12.8393V1.29135V0.954041H99.3164V1.35584V12.8691C99.3245 15.31 101.289 17.2822 103.704 17.2739C106.119 17.2657 108.07 15.2803 108.062 12.8393V10.5624V10.1309H109.976V13.6131ZM67.9554 16.5753C66.4535 18.6474 63.847 19.6014 61.3645 18.9876C58.8819 18.3738 57.0186 16.3148 56.6528 13.7809C56.5997 13.4724 56.5684 13.1606 56.5591 12.8478V1.2799V0.954041H58.4576V1.3737V12.7984C58.4559 13.9868 58.9344 15.1253 59.7843 15.9549C60.6343 16.7844 61.7833 17.2344 62.9698 17.2024C65.1433 17.1739 66.9451 15.5083 67.1467 13.3415C67.3038 10.8862 69.0556 8.82693 71.4517 8.28085C72.9473 7.95418 74.5111 8.27119 75.762 9.15459C77.0128 10.038 77.8358 11.4066 78.0301 12.9268C78.2225 14.7387 79.046 16.0816 80.7226 16.8123C82.0651 17.3916 83.6078 17.2612 84.8342 16.4648C86.0606 15.6683 86.8086 14.3112 86.8276 12.8478V10.547V10.1323H88.7163C88.7353 10.1782 88.7486 10.2263 88.7558 10.2755C88.7558 10.7649 88.7596 11.0948 88.7626 11.3579V11.358V11.3582V11.3583V11.3584V11.3586V11.3587V11.3589V11.359V11.3591V11.3592V11.3594V11.3595V11.3596V11.3597V11.3598V11.3599V11.36V11.3601V11.3602V11.3603V11.3604V11.3605V11.3606V11.3607V11.3608V11.3608C88.7699 11.9979 88.7728 12.2435 88.7065 13.4205C88.4675 16.0036 86.6736 18.1771 84.1848 18.8989C81.6961 19.6208 79.0196 18.7441 77.4384 16.6889L77.3496 16.5803C77.3315 16.5675 77.3115 16.5575 77.2904 16.5507C76.2823 18.1555 74.5233 19.1314 72.6297 19.1364C70.7361 19.1414 68.972 18.1748 67.9554 16.5753ZM76.1464 13.6673C76.1463 12.2371 75.2856 10.9478 73.9656 10.4009C72.6456 9.85405 71.1265 10.1574 70.1171 11.1694C69.1077 12.1815 68.8068 13.7028 69.3549 15.0236C69.9029 16.3444 71.1919 17.2044 72.6204 17.2024C73.5572 17.205 74.4563 16.8333 75.1183 16.1696C75.7802 15.5059 76.1503 14.6052 76.1464 13.6673ZM93.0212 10.4587H94.9989C95.0184 10.4881 95.0324 10.5204 95.0402 10.5541C95.0402 11.023 95.0439 11.346 95.0469 11.6056C95.0545 12.2621 95.0574 12.5129 94.9834 13.692C94.7093 16.4077 92.4976 18.6164 89.5873 19.0807C89.4127 19.106 89.2427 19.1229 89.0591 19.1412C88.9658 19.1505 88.869 19.1601 88.7663 19.1713V17.3163C88.9935 17.2781 89.2207 17.24 89.4427 17.1923C91.521 16.7707 93.0052 15.0752 93.016 13.1102V10.8545L93.0212 10.4587ZM104.477 8.05588C104.463 8.92648 105.147 9.64585 106.011 9.66666C106.883 9.66697 107.596 8.9667 107.619 8.08773C107.622 7.21701 106.927 6.50727 106.064 6.49852C105.201 6.48976 104.492 7.18528 104.477 8.05588ZM81.6964 8.08773C81.6937 7.21701 82.3883 6.50727 83.2517 6.49852C84.1151 6.48976 84.8237 7.18528 84.8384 8.05588C84.853 8.92648 84.1682 9.64585 83.305 9.66666C82.4331 9.66697 81.7197 8.9667 81.6964 8.08773ZM100.549 8.07895C100.547 8.95312 101.248 9.66367 102.115 9.66666C102.977 9.64952 103.672 8.95106 103.692 8.08254C103.692 7.20836 102.989 6.49943 102.122 6.49843C101.255 6.49744 100.551 7.20477 100.549 8.07895ZM8.64097 29.4477C8.64387 27.7084 10.2351 26.2998 12.1969 26.2998C14.1435 26.3177 15.711 27.7219 15.7108 29.4477V35.0125H14.6603V31.6829H9.69147V35.0078H8.64097V29.4477ZM9.71248 29.4897V30.7749H14.6814V29.4897C14.6814 28.2732 13.569 27.2871 12.1969 27.2871C10.8248 27.2871 9.71248 28.2732 9.71248 29.4897ZM35.7684 26.2998C34.8244 26.2986 33.9186 26.6304 33.2506 27.2221C32.5826 27.8137 32.2072 28.6167 32.2072 29.4541V35.0125H33.2577V31.6858H38.2266V35.0125H39.2771V29.4541C39.2773 27.7283 37.7139 26.3228 35.7684 26.2998ZM33.2788 30.754V29.4587C33.2788 28.6714 33.7523 27.9439 34.521 27.5502C35.2897 27.1566 36.2367 27.1566 37.0054 27.5502C37.7741 27.9439 38.2476 28.6714 38.2476 29.4587V30.754H33.2788ZM50.2747 29.4494C50.2776 27.7092 51.8688 26.2998 53.8307 26.2998C55.7773 26.3177 57.3447 27.7226 57.3446 29.4494V35.0125H56.2941V31.6858H51.3252V35.0125H50.2747V29.4494ZM51.2622 29.4587V30.754H56.2311V29.4587C56.2311 28.2416 55.1187 27.255 53.7466 27.255C52.3745 27.255 51.2622 28.2416 51.2622 29.4587ZM22.7805 29.4394C22.7775 27.7047 21.1235 26.2998 19.0843 26.2998H16.4964V34.9846H17.6156V32.5974H19.0843H19.461L21.4374 35.0125H22.7805L20.5966 32.3374C21.9378 31.8272 22.7955 30.689 22.7805 29.4394ZM17.6156 31.6361V27.2473H19.0788C20.4575 27.3012 21.5426 28.2677 21.5426 29.4417C21.5426 30.6156 20.4575 31.5821 19.0788 31.6361H17.6156ZM91.6611 27.3152H94.2651V26.2998H87.9808V27.3152H90.5488V35.0125H91.6611V27.3152ZM99.4079 26.2999C98.4621 26.2962 97.5535 26.6269 96.8833 27.2188C96.213 27.8107 95.8362 28.6151 95.8362 29.4541V35.0125H96.8867V31.6858H101.856V35.0125H102.906V29.4541C102.906 27.7319 101.349 26.3279 99.4079 26.2999ZM96.9235 30.754V29.4588C96.9235 28.2417 98.0358 27.255 99.4079 27.255C100.78 27.255 101.892 28.2417 101.892 29.4588V30.754H96.9235ZM108.896 27.221C109.589 27.8108 109.977 28.6105 109.976 29.444C109.984 30.6973 109.117 31.8355 107.768 32.342L109.954 35.0125H108.615L106.632 32.5974H106.26H104.785V34.9846H103.692V26.2998H106.282C107.262 26.2998 108.203 26.6312 108.896 27.221ZM104.806 27.2473V31.6407H106.271C107.698 31.6407 108.856 30.6572 108.856 29.444C108.856 28.2308 107.698 27.2473 106.271 27.2473H104.806ZM75.8048 26.2998C73.4187 26.2998 71.4844 28.2502 71.4844 30.6561C71.4844 33.0621 73.4187 35.0125 75.8048 35.0125C78.191 35.0125 80.1253 33.0621 80.1253 30.6561C80.1253 28.2502 78.191 26.2998 75.8048 26.2998ZM75.8048 33.9924C73.9774 33.9924 72.496 32.4987 72.496 30.6561C72.496 28.8136 73.9774 27.3199 75.8048 27.3199C77.6323 27.3199 79.1137 28.8136 79.1137 30.6561C79.1174 31.5438 78.7705 32.3965 78.1497 33.026C77.529 33.6554 76.6852 34.0099 75.8048 34.0111V33.9924ZM65.2632 22.3396C62.0257 22.3725 59.1925 24.5186 58.2909 27.621C57.3892 30.7235 58.6322 34.0488 61.3499 35.8045H69.7831V29.665H65.2975V31.2462H68.1982V34.7064C66.0849 35.8907 63.4563 35.6393 61.6069 34.0761C59.7576 32.5129 59.0772 29.9674 59.9008 27.693C60.7245 25.4186 62.8786 23.8948 65.3024 23.872H69.0787V22.3396H65.2632ZM0 22.3396H12.5687V23.8776H7.13344V35.8045H5.43037V23.8776H0V22.3396ZM62.0579 22.3396H13.3542V23.9237H59.4502C60.2051 23.2208 61.0923 22.6818 62.0579 22.3396ZM109.976 22.3396H69.9133V23.9237H109.976V22.3396ZM47.6879 27.9358L44.5558 32.8904H44.2105L40.9683 27.9358V35.0125H40.0627V26.2998H40.9233L44.4257 31.1843L47.798 26.2998H48.7036V35.0125H47.7029L47.6879 27.9358ZM24.6259 35.0125L24.5933 28.5604L29.5493 34.9939H30.6362V26.3138H29.5493V33.0815L24.1912 26.2998H23.5663V35.0125H24.6259ZM86.1546 32.739C86.1675 32.4347 86.0559 32.1376 85.8438 31.9115C85.6149 31.6855 85.3511 31.4947 85.0619 31.3458C84.7309 31.1725 84.3905 31.0164 84.0421 30.8783C83.684 30.7386 83.3422 30.5631 83.0222 30.3547C82.714 30.1523 82.4487 29.8953 82.2403 29.5973C82.0193 29.2527 81.911 28.852 81.9295 28.4473C81.902 27.8482 82.1659 27.2709 82.6434 26.8858C83.225 26.4661 83.9433 26.2605 84.6686 26.3061C85.1323 26.3034 85.5954 26.3393 86.0527 26.4136C86.3877 26.4637 86.7143 26.5564 87.0239 26.6894L86.7131 27.5824C86.4424 27.4653 86.159 27.3775 85.8681 27.3206C85.4567 27.2337 85.0363 27.193 84.6152 27.199C84.1726 27.1676 83.7335 27.2941 83.3816 27.5543C83.1389 27.753 82.9908 28.0384 82.9716 28.3445C82.9524 28.6507 83.0636 28.9512 83.2796 29.1766C83.5103 29.3982 83.7738 29.5856 84.0615 29.7329C84.3723 29.9012 84.7123 30.0602 85.0814 30.2238C85.437 30.3784 85.7768 30.5646 86.0964 30.7801C86.405 30.9859 86.6703 31.2461 86.8783 31.5469C87.0984 31.8766 87.2085 32.2632 87.1939 32.6549C87.1983 32.9888 87.1305 33.3199 86.9948 33.6273C86.8599 33.916 86.659 34.1717 86.4072 34.3753C86.1268 34.5872 85.807 34.7459 85.465 34.8428C85.0605 34.9605 84.6395 35.0173 84.2169 35.0111C83.6967 35.0212 83.1769 34.9742 82.6677 34.8709C82.3325 34.805 82.0065 34.7014 81.6964 34.5623L82.0461 33.674C82.3169 33.804 82.602 33.9044 82.896 33.9732C83.3084 34.0746 83.733 34.1233 84.1586 34.1182C84.42 34.1212 84.6808 34.0946 84.9357 34.0387C85.1597 33.9949 85.3725 33.9091 85.5622 33.7862C85.735 33.673 85.878 33.5225 85.9798 33.3468C86.0912 33.1619 86.1514 32.9527 86.1546 32.739ZM128.552 9.40331C127.241 9.92943 126.136 10.9277 125.425 12.2305C126.333 11.2146 127.495 10.5084 128.769 10.1989C129.955 9.90683 131.2 10.1106 132.253 10.7694C132.458 10.8766 132.657 10.998 132.848 11.1327C132.827 11.1698 132.805 11.2056 132.78 11.2397C132.311 11.9226 132.004 12.72 131.887 13.5615C131.798 14.3837 131.86 15.2167 132.068 16.0133C132.22 16.6705 132.42 17.2791 132.615 17.8715L132.618 17.8822C132.648 17.9718 132.677 18.061 132.706 18.15C133.576 20.6519 133.548 23.449 132.304 25.7808C131.059 28.1125 128.64 29.4986 126.105 30.4093C127.469 30.3198 128.807 29.9726 130.06 29.3835C130.703 29.07 131.31 28.6771 131.869 28.2126C132.429 27.7253 132.926 27.1599 133.349 26.5313C134.205 25.2461 134.718 23.7318 134.834 22.153C134.917 20.5955 134.706 19.0361 134.214 17.5695L134.195 17.5151C133.73 16.1888 133.286 14.9219 133.395 13.7766C133.448 13.1789 133.637 12.6047 133.946 12.1054C134.095 11.8703 134.197 11.6046 134.246 11.3248C134.317 10.9001 134.179 10.4661 133.881 10.1789C133.698 10.016 133.492 9.88594 133.27 9.79361L133.053 9.69854L132.836 9.59346C131.49 8.90653 129.945 8.83794 128.552 9.40331ZM132.943 11.2019C132.951 11.2169 132.957 11.2236 132.96 11.2147L132.943 11.2019ZM127.782 20.1125C127.351 21.1021 126.815 22.0482 126.183 22.9364C124.939 24.671 123.485 26.2641 121.852 27.6838C121.018 28.4109 120.11 29.0585 119.141 29.6172C119.579 28.6296 120.124 27.6868 120.765 26.8032C122.011 25.0698 123.466 23.4783 125.102 22.0607C125.923 21.3285 126.821 20.6758 127.782 20.1125ZM115.213 19.3475C115.224 23.2596 116.582 27.0447 119.054 30.0465C116.896 26.9261 115.836 23.1591 116.044 19.3525C116.382 11.7317 121.814 5.33594 129.189 3.87557C136.483 2.44819 143.793 6.27515 146.877 13.1367C148.374 16.4913 148.72 20.258 147.861 23.8358C146.277 31.05 139.358 36.7315 131.751 36.6916C135.595 37.0073 139.426 35.9359 142.569 33.6661C144.153 32.5269 145.54 31.1302 146.676 29.5322C150.104 24.5209 150.735 18.0652 148.343 12.4677C145.043 4.82082 136.919 0.565535 128.869 2.26797C124.986 3.11916 121.505 5.28874 118.999 8.41878C116.54 11.5132 115.204 15.3716 115.213 19.3475Z" fill="#FF4343"/>
</g>
</svg>
