<svg width="75" height="64" viewBox="0 0 75 64" fill="none" xmlns="http://www.w3.org/2000/svg">
<g id="Combined Shape">
<path fill-rule="evenodd" clip-rule="evenodd" d="M46.1273 44.2675L54.5978 47.0157C56.9682 47.7848 58.5606 49.9353 58.5609 52.367V62.787C58.5609 63.3775 58.069 63.8563 57.4623 63.8563C56.8556 63.8563 56.3637 63.3775 56.3637 62.787V52.367C56.3637 50.857 55.3749 49.5218 53.9033 49.0443L51.1765 48.1596L52.0485 49.8571C52.5312 50.7967 52.5312 51.9187 52.0485 52.8581L46.7024 63.2652C46.51 63.6399 46.1219 63.8566 45.7189 63.8566C45.5539 63.8566 45.3863 63.8202 45.2285 63.7435C44.6858 63.4795 44.4658 62.8372 44.7372 62.3089L50.0833 51.9019C50.2582 51.5612 50.2582 51.1545 50.0833 50.8137L48.2307 47.2041L45.5257 46.3265L42.1003 62.9969C41.9958 63.5053 41.5371 63.8568 41.0241 63.8568C40.9526 63.8568 40.8803 63.8499 40.8075 63.8358C40.2124 63.72 39.8266 63.1567 39.9456 62.5775L42.9795 47.8121L38.2526 52.1371C38.0411 52.3306 37.7707 52.4274 37.5001 52.4274C37.2296 52.4274 36.959 52.3306 36.7477 52.1371L32.0208 47.8121L35.0547 62.5775C35.1737 63.1567 34.7878 63.72 34.1928 63.8358C34.12 63.8499 34.0475 63.8568 33.9762 63.8568C33.463 63.8568 33.0044 63.5051 32.9 62.9969L29.4746 46.3265L26.769 47.2043L24.917 50.8138C24.7421 51.1546 24.7421 51.5614 24.917 51.902L30.2631 62.3091C30.5345 62.8373 30.3145 63.4795 29.7718 63.7437C29.614 63.8204 29.4464 63.8568 29.2813 63.8568C28.8782 63.8568 28.4903 63.64 28.2979 63.2653L22.9518 52.8583C22.4691 51.9187 22.4691 50.7969 22.9518 49.8573L23.8238 48.1598L21.097 49.0445C19.6254 49.5219 18.6366 50.8572 18.6366 52.3671V62.7871C18.6366 63.3777 18.1447 63.8565 17.538 63.8565C16.9312 63.8565 16.4394 63.3777 16.4394 62.7871V52.3671C16.4394 49.9353 18.0318 47.7846 20.4022 47.0156L28.8727 44.2674C29.8641 43.9457 30.5301 43.0462 30.5301 42.029V37.8489C27.4809 35.9234 25.3203 32.774 24.7875 29.1213C21.7157 26.7345 19.962 23.197 19.962 19.3561C19.962 14.007 23.4328 9.43268 28.2971 7.6526C29.0033 3.28144 32.9358 0 37.5 0C42.0642 0 45.9967 3.28129 46.7029 7.6526C51.5673 9.43268 55.038 14.007 55.038 19.3561C55.038 23.1972 53.2844 26.7347 50.2125 29.1214C49.6797 32.7741 47.5191 35.9236 44.4699 37.8491V42.0292C44.4699 43.0463 45.1359 43.9459 46.1273 44.2675ZM44.3043 7.02682C43.3982 4.17754 40.6456 2.13867 37.5 2.13867C34.3544 2.13867 31.6018 4.17754 30.6958 7.02682C31.3816 6.91604 32.0855 6.85744 32.8031 6.85744H42.197C42.9146 6.85744 43.6184 6.91604 44.3043 7.02682ZM26.8563 27.3566V24.8746C26.8563 23.0756 27.5761 21.3843 28.8829 20.1122C29.312 19.6946 29.312 19.0175 28.8829 18.6C28.4539 18.1823 27.7582 18.1824 27.3293 18.6C25.6074 20.276 24.659 22.5044 24.659 24.8747V26.0332C23.0508 24.1858 22.1594 21.8482 22.1594 19.3563C22.1594 16.075 23.7368 13.1473 26.1899 11.2477C27.224 13.4311 31.1785 20.2672 41.0999 22.8634C41.1954 22.8884 41.2913 22.9003 41.3858 22.9003C41.8705 22.9003 42.3142 22.5857 42.446 22.1083C42.6037 21.538 42.2563 20.9514 41.6704 20.798C37.2763 19.6483 33.6376 17.4624 30.8553 14.3013C29.1804 12.3982 28.3367 10.6935 28.0646 10.0836C29.4927 9.38934 31.1013 8.99639 32.8031 8.99639H42.197C48.0659 8.99639 52.8407 13.6439 52.8407 19.3564C52.8407 21.8485 51.9492 24.1862 50.3407 26.0336C50.3331 23.7103 48.5498 21.7963 46.1861 21.5786C45.5836 21.5226 45.046 21.9545 44.9889 22.5425C44.9317 23.1304 45.3751 23.6521 45.9791 23.7077C47.1929 23.8195 48.1437 24.8477 48.1437 26.0485V27.3569C48.1437 33.0693 43.3689 37.7168 37.5 37.7168C31.6311 37.7168 26.8563 33.069 26.8563 27.3566ZM31.8255 44.6984L37.5 49.8904L43.1745 44.6984C42.6026 43.9434 42.2726 43.0158 42.2726 42.0292V38.9595C40.7963 39.5368 39.1857 39.8551 37.5 39.8551C35.8143 39.8551 34.2035 39.5368 32.7274 38.9595V42.0292C32.7274 43.0158 32.3974 43.9434 31.8255 44.6984ZM12.7654 47.4246V46.3541C13.5313 46.587 14.3457 46.7127 15.1894 46.7127C19.68 46.7127 23.3335 43.1568 23.3335 38.7858V38.0548C24.0936 37.1648 24.5077 36.0554 24.5077 34.8837V34.2142C24.5077 30.4735 21.381 27.4302 17.5378 27.4302H12.841C8.9978 27.4302 5.87109 30.4734 5.87109 34.2142V34.8837C5.87109 36.0554 6.2852 37.165 7.04531 38.0548V38.7858C7.04531 41.4872 8.44175 43.8761 10.568 45.3079V47.4246C10.568 47.9492 10.2245 48.4128 9.71338 48.5786L3.9627 50.4444C1.59258 51.2135 0 53.3641 0 55.7961V62.7873C0 63.3778 0.491895 63.8566 1.09863 63.8566C1.70537 63.8566 2.19727 63.3778 2.19727 62.7873V55.7961C2.19727 54.2862 3.18604 52.951 4.65762 52.4733L8.76445 51.1409L12.2314 53.3907C12.4188 53.5121 12.6305 53.5703 12.8398 53.5703C13.1947 53.5703 13.5432 53.4031 13.7549 53.094C14.0915 52.6026 13.9551 51.9386 13.4502 51.6111L11.2635 50.1922C12.1869 49.5781 12.7654 48.5534 12.7654 47.4246ZM8.06851 34.214C8.06851 31.6526 10.2095 29.5687 12.8411 29.5687H17.538C20.1696 29.5687 22.3106 31.6526 22.3106 34.214V34.8836C22.3106 35.4271 22.1521 35.9459 21.8604 36.3941L12.0142 33.1996C11.6927 33.0954 11.3395 33.1413 11.0574 33.3244L8.09487 35.2466C8.0792 35.127 8.06836 35.0062 8.06836 34.8836V34.214H8.06851ZM9.24272 37.0722V38.7858C9.24272 41.9774 11.9105 44.5739 15.1896 44.5739C18.4686 44.5739 21.1364 41.9773 21.1364 38.7857V38.4135L11.8292 35.3939L9.24272 37.0722ZM5.87124 58.2155C5.87124 57.6248 6.36313 57.1462 6.96987 57.1462C7.57661 57.1462 8.06851 57.6249 8.06851 58.2155V62.7871C8.06851 63.3777 7.57661 63.8565 6.96987 63.8565C6.36313 63.8565 5.87124 63.3777 5.87124 62.7871V58.2155ZM71.0372 50.4444L65.2865 48.5786C64.7754 48.4128 64.4319 47.949 64.4319 47.4246V45.3079C66.5581 43.8761 67.9545 41.4874 67.9545 38.7858V38.0548C68.7146 37.1648 69.1288 36.0554 69.1288 34.8837V34.2142C69.1288 30.4735 66.0021 27.4302 62.1589 27.4302H57.462C53.6188 27.4302 50.4921 30.4734 50.4921 34.2142V34.8837C50.4921 36.0554 50.9062 37.165 51.6664 38.0548V38.7858C51.6664 43.1567 55.3198 46.7127 59.8104 46.7127C60.6542 46.7127 61.4685 46.5871 62.2345 46.3541V47.4246C62.2345 48.5534 62.8129 49.5781 63.7362 50.1922L61.5495 51.6111C61.0446 51.9388 60.9082 52.6026 61.2448 53.094C61.4565 53.4031 61.8048 53.5703 62.1599 53.5703C62.3694 53.5703 62.5811 53.5121 62.7683 53.3907L66.2353 51.1409L70.3421 52.4733C71.814 52.9508 72.8027 54.286 72.8027 55.7961V62.7873C72.8027 63.3778 73.2946 63.8566 73.9014 63.8566C74.5081 63.8566 75 63.3778 75 62.7873V55.7961C75 53.3641 73.4074 51.2135 71.0372 50.4444ZM52.6894 34.214C52.6894 31.6526 54.8304 29.5687 57.462 29.5687H62.1589C64.7905 29.5687 66.9315 31.6526 66.9315 34.214V34.8836C66.9315 35.4271 66.773 35.9459 66.4813 36.3941L56.6353 33.1996C56.3137 33.0954 55.9605 33.1413 55.6784 33.3244L52.7159 35.2466C52.7002 35.1268 52.6894 35.0061 52.6894 34.8836V34.214ZM53.8636 37.0722V38.7858C53.8636 41.9774 56.5312 44.5739 59.8104 44.5739C63.0896 44.5739 65.7573 41.9773 65.7573 38.7857V38.4135L56.4501 35.3939L53.8636 37.0722ZM66.9315 58.2155C66.9315 57.6248 67.4234 57.1462 68.0301 57.1462C68.637 57.1462 69.1288 57.6249 69.1288 58.2155V62.7871C69.1288 63.3777 68.6369 63.8565 68.0301 63.8565C67.4234 63.8565 66.9315 63.3777 66.9315 62.7871V58.2155Z" fill="url(#paint0_linear)" style="mix-blend-mode:multiply"/>
</g>
<defs>
<linearGradient id="paint0_linear" x1="94.1936" y1="44.1259" x2="57.3007" y2="-18.3763" gradientUnits="userSpaceOnUse">
<stop stop-color="#011F43"/>
<stop offset="0.470771" stop-color="#793043"/>
<stop offset="1" stop-color="#FF4343"/>
</linearGradient>
</defs>
</svg>
