<svg width="25" height="23" viewBox="0 0 25 23" fill="none" xmlns="http://www.w3.org/2000/svg">
<path id="telegram" fill-rule="evenodd" clip-rule="evenodd" d="M24.1481 1.73391C24.2371 1.05987 23.5649 0.50917 22.9067 0.765136L0.917661 9.31644L0.80064 9.37107C0.174004 9.71684 0.168663 10.6542 0.839996 10.9898L5.38682 13.2631L7.71023 20.233L7.75538 20.3447C8.04524 20.9485 8.89359 21.0514 9.31239 20.493L12.3427 16.4515L17.7045 21.8127L17.7968 21.894C18.3069 22.2867 19.0786 22.0374 19.2412 21.3871L24.1277 1.84126L24.1481 1.73391ZM3.50728 10.2747L21.9205 3.11465L17.8557 19.3719L12.3186 13.8348L16.557 9.59659L16.639 9.50277C16.9123 9.14365 16.885 8.62886 16.557 8.30088C16.1992 7.94307 15.6191 7.94307 15.2613 8.30088L10.3748 13.1873L10.2928 13.2812C10.0195 13.6403 10.0468 14.1551 10.3748 14.4831L11.0338 15.1427L8.89565 17.9939L7.00539 12.3238L6.95977 12.2121C6.87201 12.0321 6.72705 11.8847 6.54594 11.7941L3.50728 10.2747Z" fill="#838282"/>
</svg>
