<svg width="8" height="10" viewBox="0 0 8 10" fill="none" xmlns="http://www.w3.org/2000/svg">
<path id="Combined Shape" fill-rule="evenodd" clip-rule="evenodd" d="M5.33451 4.70514C5.42751 4.62423 5.53383 4.53486 5.64642 4.44021L5.64682 4.43988L5.64683 4.43987C6.47837 3.74087 7.61719 2.78357 7.61719 1.77734V1.17188C7.61719 0.525703 7.09148 0 6.44531 0H1.17188C0.525703 0 0 0.525703 0 1.17188V1.77734C0 2.78354 1.13875 3.74082 1.97029 4.43983L1.97037 4.4399L1.97073 4.4402C2.08333 4.53486 2.18967 4.62425 2.28268 4.70516C2.37113 4.78213 2.42188 4.88959 2.42188 5.00002C2.42188 5.11043 2.37115 5.21789 2.28268 5.29486C2.18967 5.37577 2.08333 5.46516 1.97073 5.55982L1.97037 5.56012L1.97036 5.56013C1.13881 6.25913 0 7.21643 0 8.22266V8.82812C0 9.4743 0.525703 10 1.17188 10H6.44531C7.09148 10 7.61719 9.4743 7.61719 8.82812C7.61719 8.61238 7.4423 8.4375 7.22656 8.4375C7.01082 8.4375 6.83594 8.61238 6.83594 8.82812C6.83594 9.04352 6.6607 9.21875 6.44531 9.21875H1.17188C0.956484 9.21875 0.78125 9.04352 0.78125 8.82812V8.22266C0.78125 7.58038 1.84011 6.69023 2.47288 6.15828L2.47307 6.15812C2.5884 6.06119 2.69734 5.96961 2.79545 5.88426C3.05453 5.65885 3.20312 5.33654 3.20312 5C3.20312 4.66344 3.05453 4.34113 2.79547 4.11572C2.69744 4.03045 2.58858 3.93894 2.47334 3.84207L2.47309 3.84186L2.47308 3.84185C1.84031 3.30994 0.78125 2.41969 0.78125 1.77734V1.17188C0.78125 0.956484 0.956484 0.78125 1.17188 0.78125H6.44531C6.6607 0.78125 6.83594 0.956484 6.83594 1.17188V1.77734C6.83594 2.41966 5.77697 3.30986 5.14421 3.84178L5.14412 3.84186C5.02879 3.93879 4.91984 4.03037 4.82174 4.11572C4.56266 4.34113 4.41406 4.66344 4.41406 5C4.41406 5.33656 4.56266 5.65887 4.82172 5.88426C4.92396 5.97318 5.03787 6.06854 5.15848 6.16949C5.53852 6.4876 5.96924 6.84814 6.30922 7.23174C6.4523 7.39318 6.69918 7.40807 6.86064 7.26498C7.02209 7.12189 7.03697 6.87502 6.89389 6.71355C6.51542 6.28652 6.04128 5.88963 5.66024 5.57067L5.66023 5.57066L5.65992 5.57041L5.65735 5.56825L5.65731 5.56822C5.54062 5.47054 5.4304 5.37826 5.33451 5.29484C5.24605 5.21787 5.19531 5.11041 5.19531 5C5.19531 4.88959 5.24605 4.78211 5.33451 4.70514ZM1.9742 7.81014L1.96441 7.82064C1.7668 8.03322 1.91828 8.37891 2.20863 8.37891H5.40855C5.69891 8.37891 5.85039 8.03322 5.65281 7.82064L5.64303 7.81014C5.3604 7.50798 4.33468 6.63936 4.22295 6.54475L4.2132 6.53648C3.98035 6.33678 3.63686 6.33678 3.40402 6.53648L3.39511 6.54404C3.2878 6.6349 2.25755 7.50721 1.9742 7.81014ZM4.2395 3.61025C4.23433 3.6147 4.23133 3.61729 4.23066 3.61787C3.99898 3.82008 3.65725 3.82008 3.42559 3.61787C3.42492 3.61729 3.42192 3.61471 3.41677 3.61027C3.36701 3.5674 3.11672 3.35173 2.83537 3.10279C2.59203 2.8875 2.74184 2.48047 3.06443 2.48047H4.59182C4.91441 2.48047 5.06422 2.8875 4.82088 3.10279C4.53957 3.35169 4.28929 3.56734 4.2395 3.61025Z" fill="white"/>
</svg>
