<svg width="26" height="21" viewBox="0 0 26 21" fill="none" xmlns="http://www.w3.org/2000/svg">
<path id="tweeter" fill-rule="evenodd" clip-rule="evenodd" d="M23.9954 0.977678L23.9256 1.00864C23.6868 1.12563 23.4399 1.23088 23.1751 1.32964L22.7843 1.46673L22.5425 1.54425L21.9664 1.71257L21.1662 1.93279L21.068 1.84551C19.6551 0.652321 17.72 0.50388 15.6987 1.26076L15.4803 1.34768C13.5395 2.16678 12.2673 3.97255 12.2054 6.03616L12.2035 6.52264L12.0652 6.51682C9.11159 6.31873 6.49587 4.85051 4.7335 2.38885C4.37409 1.88684 3.61488 1.9282 3.31214 2.46629C3.27363 2.53472 3.23153 2.61399 3.18667 2.70355L3.0446 3.00261C2.92069 3.2767 2.78468 3.61186 2.64958 3.99985C1.91857 6.09923 1.73071 8.29784 2.43966 10.3884L2.53306 10.6489C3.21801 12.4601 4.55866 14.0083 6.617 15.2204L6.81038 15.3311L6.75699 15.3624C5.04576 16.3092 3.51539 16.727 1.83035 16.6615C0.939096 16.6268 0.610597 17.8185 1.39375 18.2454C5.37958 20.4178 9.65005 21.0869 13.3206 20.0214C17.7966 18.7211 21.2012 15.3705 22.5048 10.7298L22.6308 10.2437C22.9074 9.10584 23.0613 7.94396 23.0905 6.7759L23.0938 6.40886L23.2228 6.13675L24.0591 4.49969L24.2969 4.01703L24.4288 3.74034C24.7246 3.11054 24.937 2.59045 25.0641 2.15812L25.0989 2.03106C25.2195 1.65881 25.0783 1.21374 24.6735 1.01132C24.4508 0.899982 24.2066 0.896922 23.9954 0.977678ZM20.2905 3.43958C20.5076 3.68457 20.8468 3.78188 21.1607 3.68923L22.8035 3.22778L22.4114 4.01807L21.681 5.44535L21.5719 5.66965L21.4954 5.84335C21.4335 5.99715 21.4126 6.09931 21.4086 6.22265L21.4079 6.28642C21.4154 7.63332 21.2375 8.97696 20.8791 10.2775C19.7365 14.3451 16.7734 17.2611 12.8501 18.4009L12.5268 18.489C10.2504 19.0705 7.68972 18.9044 5.12261 18.0449L4.90694 17.9693L5.0543 17.9284C6.34145 17.5391 7.62488 16.8829 9.01508 15.9568C9.57085 15.5866 9.49665 14.7481 8.8845 14.4812C6.21496 13.3174 4.6797 11.7395 4.03771 9.84641L3.94465 9.54835C3.488 7.95056 3.66116 6.22623 4.24318 4.55475L4.26667 4.48903L4.44368 4.68072C6.68218 7.03061 9.73741 8.30852 13.0688 8.22331C13.5262 8.21161 13.8909 7.83743 13.8909 7.37986V6.2549C13.8701 4.72972 14.8113 3.39494 16.2905 2.84105C17.9563 2.21728 19.3753 2.4068 20.2905 3.43958Z" fill="#FF4343"/>
</svg>
