<svg width="96" height="77" viewBox="0 0 96 77" fill="none" xmlns="http://www.w3.org/2000/svg">
<g filter="url(#filter0_d)">
<path fill-rule="evenodd" clip-rule="evenodd" d="M16.0254 5.01131C14.2756 5.00829 12.7165 6.55524 12.7075 8.30654C12.697 15.007 12.6994 21.7074 12.7017 28.4078C12.7045 36.2809 12.7073 44.1539 12.6893 52.027C12.2856 52.028 11.8818 52.0249 11.478 52.0219C10.6704 52.0159 9.86278 52.0098 9.05653 52.036C8.51464 52.0421 8.0999 52.5023 8 53.0108V60.5867C8.14531 62.2578 9.63021 63.6882 11.3225 63.6897C15.454 63.6993 19.5868 63.6964 23.7197 63.6936H23.7198H23.7198H23.7199H23.72L24.9575 63.6927C25.4948 63.7245 26.0276 63.3521 26.1396 62.8178C26.3349 62.1049 25.6871 61.3586 24.956 61.4298C22.564 61.4185 20.172 61.4214 17.78 61.4243C15.678 61.4268 13.5759 61.4293 11.4738 61.4222C10.8215 61.4707 10.2296 60.8924 10.2735 60.237C10.2715 59.3756 10.2724 58.5139 10.2733 57.652C10.2745 56.5315 10.2756 55.4107 10.2705 54.2899C18.1339 54.2899 25.9974 54.2899 33.8608 54.2914C33.8639 54.4737 33.8615 54.6581 33.8592 54.8433V54.8434V54.8434V54.8435V54.8435C33.85 55.5626 33.8406 56.2935 34.1499 56.9554C34.6827 58.1951 35.9951 59.0458 37.3498 58.9928C39.9231 58.991 42.4964 58.9919 45.0697 58.9928H45.0698H45.0699H45.07H45.0701C48.8129 58.9941 52.5556 58.9954 56.2977 58.9883C57.601 58.9822 58.8437 58.1452 59.3508 56.9479C59.657 56.286 59.6482 55.5559 59.6397 54.838C59.6375 54.6546 59.6353 54.4719 59.6384 54.2914C67.5018 54.2899 75.3652 54.2899 83.2287 54.2899C83.2267 55.1293 83.2278 55.9688 83.2289 56.8083C83.2303 57.9532 83.2318 59.0981 83.2256 60.2431C83.265 60.897 82.6732 61.4722 82.0208 61.4222C72.1483 61.4257 62.2753 61.4252 52.4024 61.4247H52.3739C44.9605 61.4243 37.5472 61.424 30.1342 61.4252C29.503 61.3632 28.8642 61.8476 28.8536 62.5015C28.7961 63.1735 29.4258 63.7517 30.0857 63.6942C47.3974 63.6957 64.7121 63.6957 82.0238 63.6942C83.7781 63.7623 85.366 62.3017 85.4992 60.5625V53.0018C85.3917 52.4992 84.9845 52.0421 84.4426 52.0345C83.6538 52.0039 82.8637 52.012 82.0739 52.02H82.0737H82.0734H82.0732H82.0729C81.6522 52.0243 81.2316 52.0285 80.8114 52.027C80.7928 44.2651 80.7953 36.5029 80.7978 28.7407C80.8 21.9287 80.8022 15.1167 80.7902 8.30503C80.7826 6.50075 79.1312 4.93563 77.3315 5.00677C73.8746 5.00845 70.4172 5.00724 66.9598 5.00604C61.0327 5.00398 55.1052 5.00191 49.179 5.01434C48.3132 4.98861 47.7637 6.10417 48.2874 6.78532C48.6246 7.30015 49.2538 7.28933 49.816 7.27967C49.905 7.27814 49.9924 7.27663 50.0766 7.27726C59.1631 7.27574 68.2495 7.27423 77.336 7.27877C77.9808 7.23336 78.5606 7.80703 78.5242 8.45185C78.5297 15.9478 78.5287 23.4437 78.5277 30.9396C78.5268 37.9657 78.5259 44.9918 78.5303 52.0179C73.8817 52.0182 69.233 52.0188 64.5844 52.0195L64.4079 52.0195C47.9302 52.0217 31.4526 52.0239 14.9749 52.0133C14.9689 37.4959 14.9704 22.9769 14.9749 8.45942C14.9325 7.81309 15.5138 7.23336 16.1616 7.27877C20.3496 7.27538 24.5378 7.27594 28.726 7.2765C33.8808 7.27719 39.0356 7.27788 44.19 7.2712C44.6986 7.3045 45.2041 6.98058 45.3525 6.48713C45.5598 5.90134 45.1829 5.19598 44.5775 5.05218C44.2618 4.99369 43.9406 4.99796 43.6201 5.00222C43.5011 5.0038 43.3821 5.00539 43.2636 5.00375C39.2916 5.00706 35.3193 5.00631 31.347 5.00557C26.2397 5.00461 21.1323 5.00365 16.0254 5.01131ZM36.1293 54.9184C36.1391 54.7031 36.1489 54.4903 36.1313 54.2914C43.2107 54.2899 50.2885 54.2899 57.3679 54.2914C57.3649 54.4582 57.3677 54.6256 57.3705 54.7933C57.3763 55.1429 57.3821 55.4935 57.3361 55.8414C57.2301 56.3772 56.6913 56.7602 56.1509 56.7223C53.4346 56.7196 50.7184 56.7208 48.0021 56.7221C44.6592 56.7236 41.3163 56.7251 37.9734 56.7193C37.877 56.7164 37.777 56.7179 37.6757 56.7195C37.2537 56.726 36.8079 56.733 36.493 56.4181C36.0786 56.0243 36.1043 55.4632 36.1293 54.9184ZM17.4074 10.8782C17.3771 10.3439 17.7767 9.82171 18.3065 9.73543C18.595 9.69923 18.8859 9.70278 19.1763 9.70633C19.2866 9.70767 19.3968 9.70902 19.5068 9.70819C27.1127 9.70943 34.7182 9.70888 42.3237 9.70833C53.1884 9.70755 64.0528 9.70676 74.9172 9.71121C75.5529 9.67186 76.1251 10.241 76.0903 10.8767C76.0969 18.3486 76.0954 25.8205 76.0939 33.2924L76.0933 36.4878C76.1584 37.1992 75.4591 37.8455 74.7537 37.6866C74.115 37.5897 73.7426 36.9222 73.8213 36.3137C73.826 32.096 73.8254 27.8786 73.8248 23.6613C73.8243 19.7677 73.8237 15.8741 73.8274 11.9802C62.9977 11.9775 52.1685 11.978 41.3393 11.9785H41.3392H41.3392H41.3344C34.1141 11.9789 26.8938 11.9793 19.6733 11.9787C19.6764 16.7465 19.6752 21.5143 19.6741 26.2822C19.6724 33.2936 19.6707 40.305 19.6824 47.3165C26.0996 47.3149 32.5168 47.3163 38.934 47.3177H38.9341H38.9342H38.9343H38.9415C50.5693 47.3204 62.1972 47.323 73.8258 47.3074C73.8288 46.557 73.8272 45.8068 73.8256 45.0567V45.0566V45.0564V45.0563C73.8231 43.8563 73.8206 42.6567 73.8364 41.4571C73.841 40.8395 74.4449 40.3234 75.0534 40.3945C75.6619 40.4278 76.1417 41.0136 76.0933 41.6145C76.0933 42.2657 76.094 42.9168 76.0948 43.5679V43.5712V43.5713V43.5714C76.0966 45.1971 76.0985 46.8225 76.0888 48.4472C76.1115 49.0753 75.5393 49.6248 74.9157 49.5854C65.213 49.5894 55.5104 49.5888 45.8078 49.5882C36.9878 49.5876 28.1678 49.5871 19.3479 49.59C19.2249 49.5841 19.0972 49.5875 18.9682 49.591C18.5669 49.6017 18.1534 49.6128 17.8327 49.3448C17.5012 49.1011 17.3816 48.6772 17.4043 48.2822C17.4056 43.2948 17.4048 38.3075 17.4041 33.3201V33.3169C17.403 25.8373 17.4019 18.3578 17.4074 10.8782ZM25.9883 23.3341C25.4086 23.4537 24.9968 24.0803 25.1361 24.6601C25.4602 26.36 25.7986 28.0572 26.1371 29.7544L26.1371 29.7546L26.1371 29.7547C26.4104 31.1252 26.6837 32.4956 26.9495 33.8676C26.96 33.9187 26.9701 33.9704 26.9802 34.0225L26.9803 34.0227L26.9803 34.0229C27.0529 34.3957 27.1289 34.7862 27.4157 35.0543C27.8803 35.5599 28.7416 35.6326 29.2653 35.18C29.5597 34.9372 29.6741 34.5655 29.783 34.212C29.7956 34.1711 29.8081 34.1304 29.8209 34.0901C30.0711 33.2668 30.3263 32.4448 30.5816 31.6228L30.5816 31.6226L30.5818 31.622C30.8684 30.699 31.155 29.776 31.4344 28.8514C31.4783 28.6909 31.551 28.5411 31.6448 28.4049C32.2624 30.3787 32.8678 32.357 33.4688 34.3369L33.4841 34.3844C33.5807 34.6846 33.684 35.0058 33.9471 35.2027C34.663 35.7748 35.9512 35.4555 36.1313 34.4958C36.545 32.5128 36.937 30.5246 37.3291 28.5362L37.3292 28.5356C37.5754 27.2869 37.8217 26.038 38.0733 24.7902C38.2443 24.2135 37.9083 23.543 37.324 23.3765C36.7262 23.1631 36.0026 23.5702 35.8861 24.1969C35.6903 25.097 35.5143 26.0018 35.3382 26.9067L35.3382 26.9068L35.3382 26.9069C35.1154 28.0519 34.8927 29.197 34.6297 30.3333C34.2546 29.1805 33.9006 28.0205 33.5466 26.8607C33.2721 25.9615 32.9977 25.0623 32.7135 24.1666C32.5439 23.5975 31.9127 23.2009 31.3285 23.3553C30.888 23.4507 30.5974 23.8533 30.4808 24.2665C30.2481 25.0087 30.0204 25.7525 29.7926 26.4963L29.7925 26.4965C29.4025 27.7702 29.0125 29.0439 28.5978 30.309C28.3276 29.2169 28.1181 28.1108 27.9086 27.0046L27.9086 27.0046C27.7227 26.0226 27.5367 25.0406 27.3082 24.0682C27.1447 23.5339 26.5287 23.1888 25.9883 23.3341ZM40.2742 24.6692C40.1304 24.0879 40.539 23.4567 41.1188 23.3356C41.7258 23.1676 42.3933 23.6172 42.4947 24.2317C42.6761 25.1056 42.846 25.9818 43.0159 26.858L43.016 26.8581C43.2401 28.0138 43.4642 29.1694 43.7147 30.3196C44.1243 29.1459 44.4859 27.9555 44.8473 26.7653L44.8474 26.7651L44.8474 26.7649C45.111 25.897 45.3746 25.0292 45.6567 24.1681C45.7854 23.7473 46.1411 23.3841 46.5922 23.3356C47.1401 23.2584 47.6911 23.6399 47.8485 24.1651C48.1305 25.0518 48.4022 25.9417 48.6739 26.8316C49.0279 27.9909 49.3819 29.1503 49.7587 30.303C50.0444 29.1462 50.2699 27.975 50.4953 26.8036L50.4954 26.8035C50.6629 25.9332 50.8304 25.0629 51.0226 24.1984C51.1362 23.5778 51.8476 23.1691 52.4439 23.3704C53.0328 23.5294 53.3794 24.1984 53.2114 24.7781C53.0576 25.552 52.9045 26.3261 52.7513 27.1003L52.7512 27.101C52.2635 29.5657 51.7758 32.0311 51.2678 34.4913C51.0923 35.4539 49.7935 35.7794 49.0791 35.1981C48.8399 35.0135 48.7325 34.7198 48.6432 34.4428C48.3763 33.5952 48.1175 32.7453 47.8587 31.8956C47.5025 30.7258 47.1463 29.5562 46.7693 28.3927C46.3776 29.4184 46.0623 30.4731 45.747 31.5277L45.747 31.5279C45.5542 32.1729 45.3614 32.8178 45.1512 33.4559C45.0875 33.6226 45.0381 33.8024 44.9882 33.9839L44.9882 33.984C44.8482 34.4934 44.7044 35.0165 44.2324 35.3011C43.4513 35.79 42.3146 35.2466 42.1859 34.3414C41.9957 33.3811 41.8043 32.4211 41.613 31.4612C41.162 29.198 40.711 26.9351 40.2742 24.6692ZM56.9758 23.3962C56.1736 23.0011 55.1746 23.817 55.4107 24.6813C55.7424 26.3934 56.0828 28.1047 56.4233 29.8161C56.7137 31.2758 57.0042 32.7356 57.2892 34.1961C57.3512 34.7001 57.663 35.1679 58.1383 35.3692C58.7998 35.6901 59.6928 35.3435 59.9169 34.6305C60.2484 33.6073 60.5632 32.578 60.878 31.5487C61.1929 30.5194 61.5077 29.4901 61.8392 28.4669C61.8619 28.4639 61.9088 28.4593 61.9315 28.4578C62.2407 29.4267 62.5376 30.3998 62.8345 31.3731C63.1698 32.4724 63.5052 33.5718 63.8584 34.6653C64.1445 35.6235 65.6006 35.7567 66.1698 34.9953C66.3587 34.7523 66.4227 34.4467 66.4846 34.1513C66.4901 34.1248 66.4957 34.0983 66.5013 34.072C66.7775 32.6449 67.0643 31.22 67.3511 29.7954C67.6946 28.089 68.038 26.3829 68.3631 24.6737C68.5159 24.0319 67.9922 23.3553 67.3383 23.325C66.7389 23.2645 66.1834 23.7519 66.1229 24.3437C65.9715 25.0934 65.8222 25.8437 65.6728 26.5941C65.4221 27.8542 65.1713 29.1146 64.9104 30.3726C64.5537 29.2497 64.2077 28.1231 63.8618 26.9967C63.5721 26.0536 63.2825 25.1105 62.9866 24.1696C62.8307 23.6459 62.2842 23.2615 61.7363 23.3341C61.2822 23.3795 60.9219 23.7458 60.7933 24.1681C60.4999 25.08 60.2191 25.9959 59.9383 26.9116C59.5891 28.0508 59.2398 29.19 58.8664 30.3211C58.6042 29.2184 58.3903 28.1039 58.1764 26.9894C58.0556 26.3601 57.9348 25.7307 57.8053 25.1036C57.7846 25.0043 57.7668 24.8999 57.7486 24.7934C57.654 24.239 57.5497 23.6285 56.9758 23.3962Z" fill="url(#paint0_linear)" style="mix-blend-mode:multiply"/>
</g>
<defs>
<filter id="filter0_d" x="0" y="0" width="95.4992" height="76.6982" filterUnits="userSpaceOnUse" color-interpolation-filters="sRGB">
<feFlood flood-opacity="0" result="BackgroundImageFix"/>
<feColorMatrix in="SourceAlpha" type="matrix" values="0 0 0 0 0 0 0 0 0 0 0 0 0 0 0 0 0 0 127 0" result="hardAlpha"/>
<feOffset dx="1" dy="4"/>
<feGaussianBlur stdDeviation="4.5"/>
<feColorMatrix type="matrix" values="0 0 0 0 1 0 0 0 0 1 0 0 0 0 1 0 0 0 1 0"/>
<feBlend mode="normal" in2="BackgroundImageFix" result="effect1_dropShadow"/>
<feBlend mode="normal" in="SourceGraphic" in2="effect1_dropShadow" result="shape"/>
</filter>
<linearGradient id="paint0_linear" x1="105.332" y1="45.5613" x2="73.4454" y2="-15.1658" gradientUnits="userSpaceOnUse">
<stop stop-color="#011F43"/>
<stop offset="0.470771" stop-color="#793043"/>
<stop offset="1" stop-color="#FF4343"/>
</linearGradient>
</defs>
</svg>
