<svg width="28" height="22" viewBox="0 0 28 22" fill="none" xmlns="http://www.w3.org/2000/svg">
<path id="youtob" fill-rule="evenodd" clip-rule="evenodd" d="M22.6416 1.38543C17.3486 0.599388 9.95462 0.599388 4.65937 1.38543C2.54127 1.69939 0.872494 3.36247 0.508481 5.52153C-0.169493 9.52908 -0.169493 13.1021 0.508481 17.1085C0.872494 19.2687 2.54127 20.9306 4.65937 21.2446C7.31211 21.6382 10.4881 21.835 13.663 21.835C16.8322 21.835 20.0002 21.6393 22.6427 21.2457C24.7586 20.9318 26.4262 19.2698 26.7925 17.1096C27.4705 13.1021 27.4705 9.52794 26.7925 5.52039C26.4285 3.36247 24.7597 1.69939 22.6416 1.38543ZM25.1101 16.8253C24.8678 18.254 23.7757 19.3529 22.3913 19.5576C17.2519 20.3209 10.0627 20.3209 4.90962 19.5565C3.5241 19.3506 2.43092 18.2529 2.18977 16.8241C1.53682 12.9633 1.53682 9.66786 2.18977 5.80477C2.43206 4.37602 3.5241 3.27943 4.91076 3.0724C7.48388 2.69133 10.5677 2.50022 13.6493 2.50022C16.7332 2.50022 19.8171 2.69133 22.3902 3.0724C23.7757 3.2783 24.8689 4.37602 25.1101 5.80477C25.763 9.66786 25.763 12.9633 25.1101 16.8253ZM11.306 6.60105C10.7407 6.2632 10.016 6.67158 10.016 7.33363V15.2964C10.016 15.9619 10.7418 16.3646 11.306 16.0301L17.9822 12.0544C18.5374 11.7234 18.5362 10.9203 17.9834 10.5881L11.306 6.60105ZM11.7224 13.796V8.83632L15.8801 11.3196L11.7224 13.796Z" fill="#B1B1B1"/>
</svg>
